<?xml version="1.0" encoding="UTF-8" standalone="no"?>
<!DOCTYPE svg PUBLIC "-//W3C//DTD SVG 1.1//EN"
 "http://www.w3.org/Graphics/SVG/1.1/DTD/svg11.dtd">
<!-- Generated by graphviz version 8.0.5 (0)
 -->
<!-- Pages: 1 -->
<svg width="198pt" height="476pt"
 viewBox="0.00 0.00 198.12 476.00" xmlns="http://www.w3.org/2000/svg" xmlns:xlink="http://www.w3.org/1999/xlink">
<g id="graph0" class="graph" transform="scale(1 1) rotate(0) translate(4 472)">
<polygon fill="white" stroke="none" points="-4,4 -4,-472 194.12,-472 194.12,4 -4,4"/>
<!-- c&#45;df&#45;global&#45;100 -->
<g id="node1" class="node">
<title>c&#45;df&#45;global&#45;100</title>
<polygon fill="none" stroke="black" points="89.5,-468 0,-468 0,-432 89.5,-432 89.5,-468"/>
<text text-anchor="middle" x="44.75" y="-445.73" font-family="Times,serif" font-size="12.00">c&#45;df&#45;global&#45;100</text>
</g>
<!-- c&#45;start&#45;140 -->
<g id="node2" class="node">
<title>c&#45;start&#45;140</title>
<polygon fill="none" stroke="black" points="129.88,-396 63.62,-396 63.62,-360 129.88,-360 129.88,-396"/>
<text text-anchor="middle" x="96.75" y="-373.73" font-family="Times,serif" font-size="12.00">c&#45;start&#45;140</text>
</g>
<!-- c&#45;df&#45;global&#45;100&#45;&gt;c&#45;start&#45;140 -->
<g id="edge1" class="edge">
<title>c&#45;df&#45;global&#45;100&#45;&gt;c&#45;start&#45;140</title>
<path fill="none" stroke="#41ab5d" d="M57.6,-431.7C63.65,-423.56 70.98,-413.69 77.66,-404.7"/>
<polygon fill="#41ab5d" stroke="#41ab5d" points="80.89,-407.22 84.04,-397.1 75.27,-403.04 80.89,-407.22"/>
</g>
<!-- c&#45;cfg&#45;100 -->
<g id="node3" class="node">
<title>c&#45;cfg&#45;100</title>
<polygon fill="none" stroke="black" points="127.62,-324 65.88,-324 65.88,-288 127.62,-288 127.62,-324"/>
<text text-anchor="middle" x="96.75" y="-301.73" font-family="Times,serif" font-size="12.00">c&#45;cfg&#45;100</text>
</g>
<!-- c&#45;start&#45;140&#45;&gt;c&#45;cfg&#45;100 -->
<g id="edge2" class="edge">
<title>c&#45;start&#45;140&#45;&gt;c&#45;cfg&#45;100</title>
<path fill="none" stroke="#41ab5d" d="M96.75,-359.7C96.75,-352.24 96.75,-343.32 96.75,-334.97"/>
<polygon fill="#41ab5d" stroke="#41ab5d" points="100.25,-335.1 96.75,-325.1 93.25,-335.1 100.25,-335.1"/>
</g>
<!-- ql&#45;recursion&#45;100 -->
<g id="node5" class="node">
<title>ql&#45;recursion&#45;100</title>
<polygon fill="none" stroke="black" points="143.75,-252 49.75,-252 49.75,-216 143.75,-216 143.75,-252"/>
<text text-anchor="middle" x="96.75" y="-229.72" font-family="Times,serif" font-size="12.00">ql&#45;recursion&#45;100</text>
</g>
<!-- c&#45;cfg&#45;100&#45;&gt;ql&#45;recursion&#45;100 -->
<g id="edge4" class="edge">
<title>c&#45;cfg&#45;100&#45;&gt;ql&#45;recursion&#45;100</title>
<path fill="none" stroke="#41ab5d" d="M96.75,-287.7C96.75,-280.24 96.75,-271.32 96.75,-262.97"/>
<polygon fill="#41ab5d" stroke="#41ab5d" points="100.25,-263.1 96.75,-253.1 93.25,-263.1 100.25,-263.1"/>
</g>
<!-- c&#45;df&#45;local&#45;100 -->
<g id="node4" class="node">
<title>c&#45;df&#45;local&#45;100</title>
<polygon fill="none" stroke="black" points="190.12,-468 107.38,-468 107.38,-432 190.12,-432 190.12,-468"/>
<text text-anchor="middle" x="148.75" y="-445.73" font-family="Times,serif" font-size="12.00">c&#45;df&#45;local&#45;100</text>
</g>
<!-- c&#45;df&#45;local&#45;100&#45;&gt;c&#45;start&#45;140 -->
<g id="edge3" class="edge">
<title>c&#45;df&#45;local&#45;100&#45;&gt;c&#45;start&#45;140</title>
<path fill="none" stroke="#41ab5d" d="M135.9,-431.7C129.85,-423.56 122.52,-413.69 115.84,-404.7"/>
<polygon fill="#41ab5d" stroke="#41ab5d" points="118.23,-403.04 109.46,-397.1 112.61,-407.22 118.23,-403.04"/>
</g>
<!-- ql&#45;dominators&#45;100 -->
<g id="node6" class="node">
<title>ql&#45;dominators&#45;100</title>
<polygon fill="none" stroke="black" points="148.25,-180 45.25,-180 45.25,-144 148.25,-144 148.25,-180"/>
<text text-anchor="middle" x="96.75" y="-157.72" font-family="Times,serif" font-size="12.00">ql&#45;dominators&#45;100</text>
</g>
<!-- ql&#45;recursion&#45;100&#45;&gt;ql&#45;dominators&#45;100 -->
<g id="edge5" class="edge">
<title>ql&#45;recursion&#45;100&#45;&gt;ql&#45;dominators&#45;100</title>
<path fill="none" stroke="#41ab5d" d="M96.75,-215.7C96.75,-208.24 96.75,-199.32 96.75,-190.97"/>
<polygon fill="#41ab5d" stroke="#41ab5d" points="100.25,-191.1 96.75,-181.1 93.25,-191.1 100.25,-191.1"/>
</g>
<!-- ql&#45;choices&#45;100 -->
<g id="node7" class="node">
<title>ql&#45;choices&#45;100</title>
<polygon fill="none" stroke="black" points="139.62,-108 53.88,-108 53.88,-72 139.62,-72 139.62,-108"/>
<text text-anchor="middle" x="96.75" y="-85.72" font-family="Times,serif" font-size="12.00">ql&#45;choices&#45;100</text>
</g>
<!-- ql&#45;dominators&#45;100&#45;&gt;ql&#45;choices&#45;100 -->
<g id="edge6" class="edge">
<title>ql&#45;dominators&#45;100&#45;&gt;ql&#45;choices&#45;100</title>
<path fill="none" stroke="#41ab5d" d="M96.75,-143.7C96.75,-136.24 96.75,-127.32 96.75,-118.97"/>
<polygon fill="#41ab5d" stroke="#41ab5d" points="100.25,-119.1 96.75,-109.1 93.25,-119.1 100.25,-119.1"/>
</g>
<!-- c&#45;goal&#45;140 -->
<g id="node8" class="node">
<title>c&#45;goal&#45;140</title>
<polygon fill="none" stroke="black" points="130.25,-36 63.25,-36 63.25,0 130.25,0 130.25,-36"/>
<text text-anchor="middle" x="96.75" y="-13.72" font-family="Times,serif" font-size="12.00">c&#45;goal&#45;140</text>
</g>
<!-- ql&#45;choices&#45;100&#45;&gt;c&#45;goal&#45;140 -->
<g id="edge7" class="edge">
<title>ql&#45;choices&#45;100&#45;&gt;c&#45;goal&#45;140</title>
<path fill="none" stroke="#41ab5d" d="M96.75,-71.7C96.75,-64.24 96.75,-55.32 96.75,-46.97"/>
<polygon fill="#41ab5d" stroke="#41ab5d" points="100.25,-47.1 96.75,-37.1 93.25,-47.1 100.25,-47.1"/>
</g>
</g>
</svg>
