<?xml version="1.0" encoding="UTF-8" standalone="no"?>
<!DOCTYPE svg PUBLIC "-//W3C//DTD SVG 1.1//EN"
 "http://www.w3.org/Graphics/SVG/1.1/DTD/svg11.dtd">
<!-- Generated by graphviz version 8.0.5 (0)
 -->
<!-- Pages: 1 -->
<svg width="407pt" height="260pt"
 viewBox="0.00 0.00 406.75 260.00" xmlns="http://www.w3.org/2000/svg" xmlns:xlink="http://www.w3.org/1999/xlink">
<g id="graph0" class="graph" transform="scale(1 1) rotate(0) translate(4 256)">
<polygon fill="white" stroke="none" points="-4,4 -4,-256 402.75,-256 402.75,4 -4,4"/>
<!-- c&#45;df&#45;global&#45;100 -->
<g id="node1" class="node">
<title>c&#45;df&#45;global&#45;100</title>
<polygon fill="none" stroke="black" points="177.62,-252 88.12,-252 88.12,-216 177.62,-216 177.62,-252"/>
<text text-anchor="middle" x="132.88" y="-229.72" font-family="Times,serif" font-size="12.00">c&#45;df&#45;global&#45;100</text>
</g>
<!-- c&#45;start&#45;140 -->
<g id="node2" class="node">
<title>c&#45;start&#45;140</title>
<polygon fill="none" stroke="black" points="218,-180 151.75,-180 151.75,-144 218,-144 218,-180"/>
<text text-anchor="middle" x="184.88" y="-157.72" font-family="Times,serif" font-size="12.00">c&#45;start&#45;140</text>
</g>
<!-- c&#45;df&#45;global&#45;100&#45;&gt;c&#45;start&#45;140 -->
<g id="edge1" class="edge">
<title>c&#45;df&#45;global&#45;100&#45;&gt;c&#45;start&#45;140</title>
<path fill="none" stroke="#41ab5d" d="M145.73,-215.7C151.77,-207.56 159.11,-197.69 165.78,-188.7"/>
<polygon fill="#41ab5d" stroke="#41ab5d" points="169.02,-191.22 172.17,-181.1 163.4,-187.04 169.02,-191.22"/>
</g>
<!-- c&#45;cfg&#45;100 -->
<g id="node3" class="node">
<title>c&#45;cfg&#45;100</title>
<polygon fill="none" stroke="black" points="61.75,-108 0,-108 0,-72 61.75,-72 61.75,-108"/>
<text text-anchor="middle" x="30.88" y="-85.72" font-family="Times,serif" font-size="12.00">c&#45;cfg&#45;100</text>
</g>
<!-- c&#45;start&#45;140&#45;&gt;c&#45;cfg&#45;100 -->
<g id="edge2" class="edge">
<title>c&#45;start&#45;140&#45;&gt;c&#45;cfg&#45;100</title>
<path fill="none" stroke="#41ab5d" d="M151.46,-145.81C128.13,-135.21 96.85,-120.99 72,-109.69"/>
<polygon fill="#41ab5d" stroke="#41ab5d" points="73.68,-106.16 63.13,-105.21 70.78,-112.53 73.68,-106.16"/>
</g>
<!-- ql&#45;recursion&#45;100 -->
<g id="node4" class="node">
<title>ql&#45;recursion&#45;100</title>
<polygon fill="none" stroke="black" points="173.88,-108 79.88,-108 79.88,-72 173.88,-72 173.88,-108"/>
<text text-anchor="middle" x="126.88" y="-85.72" font-family="Times,serif" font-size="12.00">ql&#45;recursion&#45;100</text>
</g>
<!-- c&#45;start&#45;140&#45;&gt;ql&#45;recursion&#45;100 -->
<g id="edge3" class="edge">
<title>c&#45;start&#45;140&#45;&gt;ql&#45;recursion&#45;100</title>
<path fill="none" stroke="#41ab5d" d="M170.54,-143.7C163.72,-135.47 155.45,-125.48 147.94,-116.42"/>
<polygon fill="#41ab5d" stroke="#41ab5d" points="150.12,-114.57 141.05,-109.1 144.73,-119.04 150.12,-114.57"/>
</g>
<!-- ql&#45;dominators&#45;100 -->
<g id="node5" class="node">
<title>ql&#45;dominators&#45;100</title>
<polygon fill="none" stroke="black" points="295.38,-108 192.38,-108 192.38,-72 295.38,-72 295.38,-108"/>
<text text-anchor="middle" x="243.88" y="-85.72" font-family="Times,serif" font-size="12.00">ql&#45;dominators&#45;100</text>
</g>
<!-- c&#45;start&#45;140&#45;&gt;ql&#45;dominators&#45;100 -->
<g id="edge4" class="edge">
<title>c&#45;start&#45;140&#45;&gt;ql&#45;dominators&#45;100</title>
<path fill="none" stroke="#41ab5d" d="M199.46,-143.7C206.39,-135.47 214.81,-125.48 222.45,-116.42"/>
<polygon fill="#41ab5d" stroke="#41ab5d" points="225.69,-119.01 229.46,-109.1 220.34,-114.49 225.69,-119.01"/>
</g>
<!-- ql&#45;choices&#45;100 -->
<g id="node6" class="node">
<title>ql&#45;choices&#45;100</title>
<polygon fill="none" stroke="black" points="398.75,-108 313,-108 313,-72 398.75,-72 398.75,-108"/>
<text text-anchor="middle" x="355.88" y="-85.72" font-family="Times,serif" font-size="12.00">ql&#45;choices&#45;100</text>
</g>
<!-- c&#45;start&#45;140&#45;&gt;ql&#45;choices&#45;100 -->
<g id="edge5" class="edge">
<title>c&#45;start&#45;140&#45;&gt;ql&#45;choices&#45;100</title>
<path fill="none" stroke="#41ab5d" d="M218.25,-147.34C242.4,-137.45 275.53,-123.89 303.23,-112.55"/>
<polygon fill="#41ab5d" stroke="#41ab5d" points="304.23,-115.51 312.16,-108.49 301.58,-109.04 304.23,-115.51"/>
</g>
<!-- c&#45;goal&#45;140 -->
<g id="node8" class="node">
<title>c&#45;goal&#45;140</title>
<polygon fill="none" stroke="black" points="218.38,-36 151.38,-36 151.38,0 218.38,0 218.38,-36"/>
<text text-anchor="middle" x="184.88" y="-13.72" font-family="Times,serif" font-size="12.00">c&#45;goal&#45;140</text>
</g>
<!-- c&#45;cfg&#45;100&#45;&gt;c&#45;goal&#45;140 -->
<g id="edge7" class="edge">
<title>c&#45;cfg&#45;100&#45;&gt;c&#45;goal&#45;140</title>
<path fill="none" stroke="#41ab5d" d="M62.04,-74.83C84.85,-64.47 116.1,-50.26 141.37,-38.77"/>
<polygon fill="#41ab5d" stroke="#41ab5d" points="142.43,-41.68 150.08,-34.36 139.53,-35.31 142.43,-41.68"/>
</g>
<!-- ql&#45;recursion&#45;100&#45;&gt;c&#45;goal&#45;140 -->
<g id="edge8" class="edge">
<title>ql&#45;recursion&#45;100&#45;&gt;c&#45;goal&#45;140</title>
<path fill="none" stroke="#41ab5d" d="M141.21,-71.7C148.03,-63.47 156.3,-53.48 163.81,-44.42"/>
<polygon fill="#41ab5d" stroke="#41ab5d" points="167.02,-47.04 170.7,-37.1 161.63,-42.57 167.02,-47.04"/>
</g>
<!-- ql&#45;dominators&#45;100&#45;&gt;c&#45;goal&#45;140 -->
<g id="edge9" class="edge">
<title>ql&#45;dominators&#45;100&#45;&gt;c&#45;goal&#45;140</title>
<path fill="none" stroke="#41ab5d" d="M229.29,-71.7C222.36,-63.47 213.94,-53.48 206.3,-44.42"/>
<polygon fill="#41ab5d" stroke="#41ab5d" points="208.41,-42.49 199.29,-37.1 203.06,-47.01 208.41,-42.49"/>
</g>
<!-- ql&#45;choices&#45;100&#45;&gt;c&#45;goal&#45;140 -->
<g id="edge10" class="edge">
<title>ql&#45;choices&#45;100&#45;&gt;c&#45;goal&#45;140</title>
<path fill="none" stroke="#41ab5d" d="M313.17,-71.52C287.4,-60.97 254.66,-47.57 228.7,-36.94"/>
<polygon fill="#41ab5d" stroke="#41ab5d" points="230.33,-33.42 219.75,-32.87 227.68,-39.89 230.33,-33.42"/>
</g>
<!-- c&#45;df&#45;local&#45;100 -->
<g id="node7" class="node">
<title>c&#45;df&#45;local&#45;100</title>
<polygon fill="none" stroke="black" points="278.25,-252 195.5,-252 195.5,-216 278.25,-216 278.25,-252"/>
<text text-anchor="middle" x="236.88" y="-229.72" font-family="Times,serif" font-size="12.00">c&#45;df&#45;local&#45;100</text>
</g>
<!-- c&#45;df&#45;local&#45;100&#45;&gt;c&#45;start&#45;140 -->
<g id="edge6" class="edge">
<title>c&#45;df&#45;local&#45;100&#45;&gt;c&#45;start&#45;140</title>
<path fill="none" stroke="#41ab5d" d="M224.02,-215.7C217.98,-207.56 210.64,-197.69 203.97,-188.7"/>
<polygon fill="#41ab5d" stroke="#41ab5d" points="206.35,-187.04 197.58,-181.1 200.73,-191.22 206.35,-187.04"/>
</g>
</g>
</svg>
