<?xml version="1.0" encoding="UTF-8" standalone="no"?>
<!DOCTYPE svg PUBLIC "-//W3C//DTD SVG 1.1//EN"
 "http://www.w3.org/Graphics/SVG/1.1/DTD/svg11.dtd">
<!-- Generated by graphviz version 8.0.5 (0)
 -->
<!-- Pages: 1 -->
<svg width="98pt" height="332pt"
 viewBox="0.00 0.00 98.25 332.00" xmlns="http://www.w3.org/2000/svg" xmlns:xlink="http://www.w3.org/1999/xlink">
<g id="graph0" class="graph" transform="scale(1 1) rotate(0) translate(4 328)">
<polygon fill="white" stroke="none" points="-4,4 -4,-328 94.25,-328 94.25,4 -4,4"/>
<!-- c&#45;start&#45;150 -->
<g id="node1" class="node">
<title>c&#45;start&#45;150</title>
<polygon fill="none" stroke="black" points="78.25,-324 12,-324 12,-288 78.25,-288 78.25,-324"/>
<text text-anchor="middle" x="45.12" y="-301.73" font-family="Times,serif" font-size="12.00">c&#45;start&#45;150</text>
</g>
<!-- ql&#45;modules&#45;100 -->
<g id="node2" class="node">
<title>ql&#45;modules&#45;100</title>
<polygon fill="none" stroke="black" points="90.25,-252 0,-252 0,-216 90.25,-216 90.25,-252"/>
<text text-anchor="middle" x="45.12" y="-229.72" font-family="Times,serif" font-size="12.00">ql&#45;modules&#45;100</text>
</g>
<!-- c&#45;start&#45;150&#45;&gt;ql&#45;modules&#45;100 -->
<g id="edge1" class="edge">
<title>c&#45;start&#45;150&#45;&gt;ql&#45;modules&#45;100</title>
<path fill="none" stroke="#006d2c" d="M45.12,-287.7C45.12,-280.24 45.12,-271.32 45.12,-262.97"/>
<polygon fill="#006d2c" stroke="#006d2c" points="48.63,-263.1 45.12,-253.1 41.63,-263.1 48.63,-263.1"/>
</g>
<!-- ql&#45;classes&#45;100 -->
<g id="node3" class="node">
<title>ql&#45;classes&#45;100</title>
<polygon fill="none" stroke="black" points="86.5,-180 3.75,-180 3.75,-144 86.5,-144 86.5,-180"/>
<text text-anchor="middle" x="45.12" y="-157.72" font-family="Times,serif" font-size="12.00">ql&#45;classes&#45;100</text>
</g>
<!-- ql&#45;modules&#45;100&#45;&gt;ql&#45;classes&#45;100 -->
<g id="edge2" class="edge">
<title>ql&#45;modules&#45;100&#45;&gt;ql&#45;classes&#45;100</title>
<path fill="none" stroke="#006d2c" d="M45.12,-215.7C45.12,-208.24 45.12,-199.32 45.12,-190.97"/>
<polygon fill="#006d2c" stroke="#006d2c" points="48.63,-191.1 45.12,-181.1 41.63,-191.1 48.63,-191.1"/>
</g>
<!-- c&#45;ast&#45;100 -->
<g id="node4" class="node">
<title>c&#45;ast&#45;100</title>
<polygon fill="none" stroke="black" points="74.88,-108 15.37,-108 15.37,-72 74.88,-72 74.88,-108"/>
<text text-anchor="middle" x="45.12" y="-85.72" font-family="Times,serif" font-size="12.00">c&#45;ast&#45;100</text>
</g>
<!-- ql&#45;classes&#45;100&#45;&gt;c&#45;ast&#45;100 -->
<g id="edge3" class="edge">
<title>ql&#45;classes&#45;100&#45;&gt;c&#45;ast&#45;100</title>
<path fill="none" stroke="#006d2c" d="M45.12,-143.7C45.12,-136.24 45.12,-127.32 45.12,-118.97"/>
<polygon fill="#006d2c" stroke="#006d2c" points="48.63,-119.1 45.12,-109.1 41.63,-119.1 48.63,-119.1"/>
</g>
<!-- c&#45;goal&#45;150 -->
<g id="node5" class="node">
<title>c&#45;goal&#45;150</title>
<polygon fill="none" stroke="black" points="78.62,-36 11.62,-36 11.62,0 78.62,0 78.62,-36"/>
<text text-anchor="middle" x="45.12" y="-13.72" font-family="Times,serif" font-size="12.00">c&#45;goal&#45;150</text>
</g>
<!-- c&#45;ast&#45;100&#45;&gt;c&#45;goal&#45;150 -->
<g id="edge4" class="edge">
<title>c&#45;ast&#45;100&#45;&gt;c&#45;goal&#45;150</title>
<path fill="none" stroke="#006d2c" d="M45.12,-71.7C45.12,-64.24 45.12,-55.32 45.12,-46.97"/>
<polygon fill="#006d2c" stroke="#006d2c" points="48.63,-47.1 45.12,-37.1 41.63,-47.1 48.63,-47.1"/>
</g>
</g>
</svg>
