<?xml version="1.0" encoding="UTF-8" standalone="no"?>
<!DOCTYPE svg PUBLIC "-//W3C//DTD SVG 1.1//EN"
 "http://www.w3.org/Graphics/SVG/1.1/DTD/svg11.dtd">
<!-- Generated by graphviz version 8.0.5 (0)
 -->
<!-- Pages: 1 -->
<svg width="277pt" height="188pt"
 viewBox="0.00 0.00 276.88 188.00" xmlns="http://www.w3.org/2000/svg" xmlns:xlink="http://www.w3.org/1999/xlink">
<g id="graph0" class="graph" transform="scale(1 1) rotate(0) translate(4 184)">
<polygon fill="white" stroke="none" points="-4,4 -4,-184 272.88,-184 272.88,4 -4,4"/>
<!-- c&#45;start&#45;150 -->
<g id="node1" class="node">
<title>c&#45;start&#45;150</title>
<polygon fill="none" stroke="black" points="183.25,-180 117,-180 117,-144 183.25,-144 183.25,-180"/>
<text text-anchor="middle" x="150.12" y="-157.72" font-family="Times,serif" font-size="12.00">c&#45;start&#45;150</text>
</g>
<!-- ql&#45;modules&#45;100 -->
<g id="node2" class="node">
<title>ql&#45;modules&#45;100</title>
<polygon fill="none" stroke="black" points="90.25,-108 0,-108 0,-72 90.25,-72 90.25,-108"/>
<text text-anchor="middle" x="45.12" y="-85.72" font-family="Times,serif" font-size="12.00">ql&#45;modules&#45;100</text>
</g>
<!-- c&#45;start&#45;150&#45;&gt;ql&#45;modules&#45;100 -->
<g id="edge1" class="edge">
<title>c&#45;start&#45;150&#45;&gt;ql&#45;modules&#45;100</title>
<path fill="none" stroke="#41ab5d" d="M123.9,-143.52C110.65,-134.68 94.38,-123.84 80.08,-114.3"/>
<polygon fill="#41ab5d" stroke="#41ab5d" points="82.28,-110.9 72.02,-108.26 78.39,-116.72 82.28,-110.9"/>
</g>
<!-- ql&#45;classes&#45;100 -->
<g id="node3" class="node">
<title>ql&#45;classes&#45;100</title>
<polygon fill="none" stroke="black" points="191.5,-108 108.75,-108 108.75,-72 191.5,-72 191.5,-108"/>
<text text-anchor="middle" x="150.12" y="-85.72" font-family="Times,serif" font-size="12.00">ql&#45;classes&#45;100</text>
</g>
<!-- c&#45;start&#45;150&#45;&gt;ql&#45;classes&#45;100 -->
<g id="edge2" class="edge">
<title>c&#45;start&#45;150&#45;&gt;ql&#45;classes&#45;100</title>
<path fill="none" stroke="#41ab5d" d="M150.12,-143.7C150.12,-136.24 150.12,-127.32 150.12,-118.97"/>
<polygon fill="#41ab5d" stroke="#41ab5d" points="153.63,-119.1 150.12,-109.1 146.63,-119.1 153.63,-119.1"/>
</g>
<!-- c&#45;ast&#45;100 -->
<g id="node4" class="node">
<title>c&#45;ast&#45;100</title>
<polygon fill="none" stroke="black" points="268.88,-108 209.38,-108 209.38,-72 268.88,-72 268.88,-108"/>
<text text-anchor="middle" x="239.12" y="-85.72" font-family="Times,serif" font-size="12.00">c&#45;ast&#45;100</text>
</g>
<!-- c&#45;start&#45;150&#45;&gt;c&#45;ast&#45;100 -->
<g id="edge3" class="edge">
<title>c&#45;start&#45;150&#45;&gt;c&#45;ast&#45;100</title>
<path fill="none" stroke="#41ab5d" d="M172.13,-143.7C183.14,-135.03 196.66,-124.4 208.66,-114.96"/>
<polygon fill="#41ab5d" stroke="#41ab5d" points="210.37,-117.28 216.07,-108.35 206.05,-111.78 210.37,-117.28"/>
</g>
<!-- c&#45;goal&#45;150 -->
<g id="node5" class="node">
<title>c&#45;goal&#45;150</title>
<polygon fill="none" stroke="black" points="183.62,-36 116.62,-36 116.62,0 183.62,0 183.62,-36"/>
<text text-anchor="middle" x="150.12" y="-13.72" font-family="Times,serif" font-size="12.00">c&#45;goal&#45;150</text>
</g>
<!-- ql&#45;modules&#45;100&#45;&gt;c&#45;goal&#45;150 -->
<g id="edge4" class="edge">
<title>ql&#45;modules&#45;100&#45;&gt;c&#45;goal&#45;150</title>
<path fill="none" stroke="#41ab5d" d="M71.35,-71.52C84.6,-62.68 100.87,-51.84 115.17,-42.3"/>
<polygon fill="#41ab5d" stroke="#41ab5d" points="116.86,-44.72 123.23,-36.26 112.97,-38.9 116.86,-44.72"/>
</g>
<!-- ql&#45;classes&#45;100&#45;&gt;c&#45;goal&#45;150 -->
<g id="edge5" class="edge">
<title>ql&#45;classes&#45;100&#45;&gt;c&#45;goal&#45;150</title>
<path fill="none" stroke="#41ab5d" d="M150.12,-71.7C150.12,-64.24 150.12,-55.32 150.12,-46.97"/>
<polygon fill="#41ab5d" stroke="#41ab5d" points="153.63,-47.1 150.12,-37.1 146.63,-47.1 153.63,-47.1"/>
</g>
<!-- c&#45;ast&#45;100&#45;&gt;c&#45;goal&#45;150 -->
<g id="edge6" class="edge">
<title>c&#45;ast&#45;100&#45;&gt;c&#45;goal&#45;150</title>
<path fill="none" stroke="#41ab5d" d="M217.12,-71.7C206.11,-63.03 192.59,-52.4 180.59,-42.96"/>
<polygon fill="#41ab5d" stroke="#41ab5d" points="183.2,-39.78 173.18,-36.35 178.88,-45.28 183.2,-39.78"/>
</g>
</g>
</svg>
