<?xml version="1.0" encoding="UTF-8" standalone="no"?>
<!DOCTYPE svg PUBLIC "-//W3C//DTD SVG 1.1//EN"
 "http://www.w3.org/Graphics/SVG/1.1/DTD/svg11.dtd">
<!-- Generated by graphviz version 8.0.5 (0)
 -->
<!-- Pages: 1 -->
<svg width="362pt" height="260pt"
 viewBox="0.00 0.00 361.50 260.00" xmlns="http://www.w3.org/2000/svg" xmlns:xlink="http://www.w3.org/1999/xlink">
<g id="graph0" class="graph" transform="scale(1 1) rotate(0) translate(4 256)">
<polygon fill="white" stroke="none" points="-4,4 -4,-256 357.5,-256 357.5,4 -4,4"/>
<!-- c&#45;df&#45;global&#45;100 -->
<g id="node1" class="node">
<title>c&#45;df&#45;global&#45;100</title>
<polygon fill="none" stroke="black" points="133.88,-252 44.38,-252 44.38,-216 133.88,-216 133.88,-252"/>
<text text-anchor="middle" x="89.12" y="-229.72" font-family="Times,serif" font-size="12.00">c&#45;df&#45;global&#45;100</text>
</g>
<!-- c&#45;start&#45;160 -->
<g id="node2" class="node">
<title>c&#45;start&#45;160</title>
<polygon fill="none" stroke="black" points="174.25,-180 108,-180 108,-144 174.25,-144 174.25,-180"/>
<text text-anchor="middle" x="141.12" y="-157.72" font-family="Times,serif" font-size="12.00">c&#45;start&#45;160</text>
</g>
<!-- c&#45;df&#45;global&#45;100&#45;&gt;c&#45;start&#45;160 -->
<g id="edge1" class="edge">
<title>c&#45;df&#45;global&#45;100&#45;&gt;c&#45;start&#45;160</title>
<path fill="none" stroke="#bdbdbd" d="M101.98,-215.7C108.02,-207.56 115.36,-197.69 122.03,-188.7"/>
<polygon fill="#bdbdbd" stroke="#bdbdbd" points="125.27,-191.22 128.42,-181.1 119.65,-187.04 125.27,-191.22"/>
</g>
<!-- c&#45;guards&#45;300 -->
<g id="node3" class="node">
<title>c&#45;guards&#45;300</title>
<polygon fill="none" stroke="black" points="78.25,-108 0,-108 0,-72 78.25,-72 78.25,-108"/>
<text text-anchor="middle" x="39.12" y="-85.72" font-family="Times,serif" font-size="12.00">c&#45;guards&#45;300</text>
</g>
<!-- c&#45;start&#45;160&#45;&gt;c&#45;guards&#45;300 -->
<g id="edge2" class="edge">
<title>c&#45;start&#45;160&#45;&gt;c&#45;guards&#45;300</title>
<path fill="none" stroke="#bdbdbd" d="M115.65,-143.52C102.77,-134.68 86.97,-123.84 73.08,-114.3"/>
<polygon fill="#bdbdbd" stroke="#bdbdbd" points="75.5,-111.03 65.28,-108.26 71.54,-116.8 75.5,-111.03"/>
</g>
<!-- ql&#45;modules&#45;100 -->
<g id="node4" class="node">
<title>ql&#45;modules&#45;100</title>
<polygon fill="none" stroke="black" points="186.25,-108 96,-108 96,-72 186.25,-72 186.25,-108"/>
<text text-anchor="middle" x="141.12" y="-85.72" font-family="Times,serif" font-size="12.00">ql&#45;modules&#45;100</text>
</g>
<!-- c&#45;start&#45;160&#45;&gt;ql&#45;modules&#45;100 -->
<g id="edge3" class="edge">
<title>c&#45;start&#45;160&#45;&gt;ql&#45;modules&#45;100</title>
<path fill="none" stroke="#bdbdbd" d="M141.12,-143.7C141.12,-136.24 141.12,-127.32 141.12,-118.97"/>
<polygon fill="#bdbdbd" stroke="#bdbdbd" points="144.63,-119.1 141.12,-109.1 137.63,-119.1 144.63,-119.1"/>
</g>
<!-- c&#45;df&#45;partial_path_graph&#45;300 -->
<g id="node5" class="node">
<title>c&#45;df&#45;partial_path_graph&#45;300</title>
<polygon fill="none" stroke="black" points="353.5,-108 204.75,-108 204.75,-72 353.5,-72 353.5,-108"/>
<text text-anchor="middle" x="279.12" y="-85.72" font-family="Times,serif" font-size="12.00">c&#45;df&#45;partial_path_graph&#45;300</text>
</g>
<!-- c&#45;start&#45;160&#45;&gt;c&#45;df&#45;partial_path_graph&#45;300 -->
<g id="edge4" class="edge">
<title>c&#45;start&#45;160&#45;&gt;c&#45;df&#45;partial_path_graph&#45;300</title>
<path fill="none" stroke="#bdbdbd" d="M174.53,-144.05C192.82,-134.78 215.7,-123.17 235.4,-113.18"/>
<polygon fill="#bdbdbd" stroke="#bdbdbd" points="236.73,-115.92 244.07,-108.28 233.57,-109.68 236.73,-115.92"/>
</g>
<!-- c&#45;goal&#45;160 -->
<g id="node7" class="node">
<title>c&#45;goal&#45;160</title>
<polygon fill="none" stroke="black" points="174.62,-36 107.62,-36 107.62,0 174.62,0 174.62,-36"/>
<text text-anchor="middle" x="141.12" y="-13.72" font-family="Times,serif" font-size="12.00">c&#45;goal&#45;160</text>
</g>
<!-- c&#45;guards&#45;300&#45;&gt;c&#45;goal&#45;160 -->
<g id="edge6" class="edge">
<title>c&#45;guards&#45;300&#45;&gt;c&#45;goal&#45;160</title>
<path fill="none" stroke="#bdbdbd" d="M64.6,-71.52C77.48,-62.68 93.28,-51.84 107.17,-42.3"/>
<polygon fill="#bdbdbd" stroke="#bdbdbd" points="108.71,-44.8 114.97,-36.26 104.75,-39.03 108.71,-44.8"/>
</g>
<!-- ql&#45;modules&#45;100&#45;&gt;c&#45;goal&#45;160 -->
<g id="edge7" class="edge">
<title>ql&#45;modules&#45;100&#45;&gt;c&#45;goal&#45;160</title>
<path fill="none" stroke="#bdbdbd" d="M141.12,-71.7C141.12,-64.24 141.12,-55.32 141.12,-46.97"/>
<polygon fill="#bdbdbd" stroke="#bdbdbd" points="144.63,-47.1 141.12,-37.1 137.63,-47.1 144.63,-47.1"/>
</g>
<!-- c&#45;df&#45;partial_path_graph&#45;300&#45;&gt;c&#45;goal&#45;160 -->
<g id="edge8" class="edge">
<title>c&#45;df&#45;partial_path_graph&#45;300&#45;&gt;c&#45;goal&#45;160</title>
<path fill="none" stroke="#bdbdbd" d="M244.66,-71.52C226.35,-62.23 203.68,-50.73 184.23,-40.86"/>
<polygon fill="#bdbdbd" stroke="#bdbdbd" points="186.18,-37.42 175.68,-36.02 183.01,-43.66 186.18,-37.42"/>
</g>
<!-- c&#45;df&#45;local&#45;100 -->
<g id="node6" class="node">
<title>c&#45;df&#45;local&#45;100</title>
<polygon fill="none" stroke="black" points="234.5,-252 151.75,-252 151.75,-216 234.5,-216 234.5,-252"/>
<text text-anchor="middle" x="193.12" y="-229.72" font-family="Times,serif" font-size="12.00">c&#45;df&#45;local&#45;100</text>
</g>
<!-- c&#45;df&#45;local&#45;100&#45;&gt;c&#45;start&#45;160 -->
<g id="edge5" class="edge">
<title>c&#45;df&#45;local&#45;100&#45;&gt;c&#45;start&#45;160</title>
<path fill="none" stroke="#bdbdbd" d="M180.27,-215.7C174.23,-207.56 166.89,-197.69 160.22,-188.7"/>
<polygon fill="#bdbdbd" stroke="#bdbdbd" points="162.6,-187.04 153.83,-181.1 156.98,-191.22 162.6,-187.04"/>
</g>
</g>
</svg>
