<?xml version="1.0" encoding="UTF-8" standalone="no"?>
<!DOCTYPE svg PUBLIC "-//W3C//DTD SVG 1.1//EN"
 "http://www.w3.org/Graphics/SVG/1.1/DTD/svg11.dtd">
<!-- Generated by graphviz version 8.0.5 (0)
 -->
<!-- Pages: 1 -->
<svg width="172pt" height="404pt"
 viewBox="0.00 0.00 172.12 404.00" xmlns="http://www.w3.org/2000/svg" xmlns:xlink="http://www.w3.org/1999/xlink">
<g id="graph0" class="graph" transform="scale(1 1) rotate(0) translate(4 400)">
<polygon fill="white" stroke="none" points="-4,4 -4,-400 168.12,-400 168.12,4 -4,4"/>
<!-- c&#45;df&#45;global&#45;100 -->
<g id="node1" class="node">
<title>c&#45;df&#45;global&#45;100</title>
<polygon fill="none" stroke="black" points="89.5,-396 0,-396 0,-360 89.5,-360 89.5,-396"/>
<text text-anchor="middle" x="44.75" y="-373.73" font-family="Times,serif" font-size="12.00">c&#45;df&#45;global&#45;100</text>
</g>
<!-- c&#45;start&#45;160 -->
<g id="node2" class="node">
<title>c&#45;start&#45;160</title>
<polygon fill="none" stroke="black" points="122.88,-324 56.62,-324 56.62,-288 122.88,-288 122.88,-324"/>
<text text-anchor="middle" x="89.75" y="-301.73" font-family="Times,serif" font-size="12.00">c&#45;start&#45;160</text>
</g>
<!-- c&#45;df&#45;global&#45;100&#45;&gt;c&#45;start&#45;160 -->
<g id="edge1" class="edge">
<title>c&#45;df&#45;global&#45;100&#45;&gt;c&#45;start&#45;160</title>
<path fill="none" stroke="#006d2c" d="M55.87,-359.7C61,-351.73 67.19,-342.1 72.87,-333.26"/>
<polygon fill="#006d2c" stroke="#006d2c" points="76.29,-335.41 78.75,-325.1 70.4,-331.62 76.29,-335.41"/>
</g>
<!-- c&#45;guards&#45;300 -->
<g id="node3" class="node">
<title>c&#45;guards&#45;300</title>
<polygon fill="none" stroke="black" points="128.88,-252 50.62,-252 50.62,-216 128.88,-216 128.88,-252"/>
<text text-anchor="middle" x="89.75" y="-229.72" font-family="Times,serif" font-size="12.00">c&#45;guards&#45;300</text>
</g>
<!-- c&#45;start&#45;160&#45;&gt;c&#45;guards&#45;300 -->
<g id="edge2" class="edge">
<title>c&#45;start&#45;160&#45;&gt;c&#45;guards&#45;300</title>
<path fill="none" stroke="#006d2c" d="M89.75,-287.7C89.75,-280.24 89.75,-271.32 89.75,-262.97"/>
<polygon fill="#006d2c" stroke="#006d2c" points="93.25,-263.1 89.75,-253.1 86.25,-263.1 93.25,-263.1"/>
</g>
<!-- ql&#45;modules&#45;100 -->
<g id="node5" class="node">
<title>ql&#45;modules&#45;100</title>
<polygon fill="none" stroke="black" points="134.88,-180 44.62,-180 44.62,-144 134.88,-144 134.88,-180"/>
<text text-anchor="middle" x="89.75" y="-157.72" font-family="Times,serif" font-size="12.00">ql&#45;modules&#45;100</text>
</g>
<!-- c&#45;guards&#45;300&#45;&gt;ql&#45;modules&#45;100 -->
<g id="edge4" class="edge">
<title>c&#45;guards&#45;300&#45;&gt;ql&#45;modules&#45;100</title>
<path fill="none" stroke="#006d2c" d="M89.75,-215.7C89.75,-208.24 89.75,-199.32 89.75,-190.97"/>
<polygon fill="#006d2c" stroke="#006d2c" points="93.25,-191.1 89.75,-181.1 86.25,-191.1 93.25,-191.1"/>
</g>
<!-- c&#45;df&#45;100 -->
<g id="node4" class="node">
<title>c&#45;df&#45;100</title>
<polygon fill="none" stroke="black" points="164,-396 107.5,-396 107.5,-360 164,-360 164,-396"/>
<text text-anchor="middle" x="135.75" y="-373.73" font-family="Times,serif" font-size="12.00">c&#45;df&#45;100</text>
</g>
<!-- c&#45;df&#45;100&#45;&gt;c&#45;start&#45;160 -->
<g id="edge3" class="edge">
<title>c&#45;df&#45;100&#45;&gt;c&#45;start&#45;160</title>
<path fill="none" stroke="#006d2c" d="M124.38,-359.7C119.14,-351.73 112.82,-342.1 107.01,-333.26"/>
<polygon fill="#006d2c" stroke="#006d2c" points="109.41,-331.54 100.99,-325.1 103.56,-335.38 109.41,-331.54"/>
</g>
<!-- c&#45;df&#45;partial_path_graph&#45;300 -->
<g id="node6" class="node">
<title>c&#45;df&#45;partial_path_graph&#45;300</title>
<polygon fill="none" stroke="black" points="164.12,-108 15.38,-108 15.38,-72 164.12,-72 164.12,-108"/>
<text text-anchor="middle" x="89.75" y="-85.72" font-family="Times,serif" font-size="12.00">c&#45;df&#45;partial_path_graph&#45;300</text>
</g>
<!-- ql&#45;modules&#45;100&#45;&gt;c&#45;df&#45;partial_path_graph&#45;300 -->
<g id="edge5" class="edge">
<title>ql&#45;modules&#45;100&#45;&gt;c&#45;df&#45;partial_path_graph&#45;300</title>
<path fill="none" stroke="#006d2c" d="M89.75,-143.7C89.75,-136.24 89.75,-127.32 89.75,-118.97"/>
<polygon fill="#006d2c" stroke="#006d2c" points="93.25,-119.1 89.75,-109.1 86.25,-119.1 93.25,-119.1"/>
</g>
<!-- c&#45;goal&#45;160 -->
<g id="node7" class="node">
<title>c&#45;goal&#45;160</title>
<polygon fill="none" stroke="black" points="123.25,-36 56.25,-36 56.25,0 123.25,0 123.25,-36"/>
<text text-anchor="middle" x="89.75" y="-13.72" font-family="Times,serif" font-size="12.00">c&#45;goal&#45;160</text>
</g>
<!-- c&#45;df&#45;partial_path_graph&#45;300&#45;&gt;c&#45;goal&#45;160 -->
<g id="edge6" class="edge">
<title>c&#45;df&#45;partial_path_graph&#45;300&#45;&gt;c&#45;goal&#45;160</title>
<path fill="none" stroke="#006d2c" d="M89.75,-71.7C89.75,-64.24 89.75,-55.32 89.75,-46.97"/>
<polygon fill="#006d2c" stroke="#006d2c" points="93.25,-47.1 89.75,-37.1 86.25,-47.1 93.25,-47.1"/>
</g>
</g>
</svg>
