<?xml version="1.0" encoding="UTF-8" standalone="no"?>
<!DOCTYPE svg PUBLIC "-//W3C//DTD SVG 1.1//EN"
 "http://www.w3.org/Graphics/SVG/1.1/DTD/svg11.dtd">
<!-- Generated by graphviz version 8.0.5 (0)
 -->
<!-- Pages: 1 -->
<svg width="992pt" height="260pt"
 viewBox="0.00 0.00 991.88 260.00" xmlns="http://www.w3.org/2000/svg" xmlns:xlink="http://www.w3.org/1999/xlink">
<g id="graph0" class="graph" transform="scale(1 1) rotate(0) translate(4 256)">
<polygon fill="white" stroke="none" points="-4,4 -4,-256 987.88,-256 987.88,4 -4,4"/>
<!-- ql&#45;modules&#45;100 -->
<g id="node1" class="node">
<title>ql&#45;modules&#45;100</title>
<polygon fill="none" stroke="black" points="90.25,-252 0,-252 0,-216 90.25,-216 90.25,-252"/>
<text text-anchor="middle" x="45.12" y="-229.72" font-family="Times,serif" font-size="12.00">ql&#45;modules&#45;100</text>
</g>
<!-- c&#45;start&#45;170 -->
<g id="node2" class="node">
<title>c&#45;start&#45;170</title>
<polygon fill="none" stroke="black" points="505.25,-180 439,-180 439,-144 505.25,-144 505.25,-180"/>
<text text-anchor="middle" x="472.12" y="-157.72" font-family="Times,serif" font-size="12.00">c&#45;start&#45;170</text>
</g>
<!-- ql&#45;modules&#45;100&#45;&gt;c&#45;start&#45;170 -->
<g id="edge1" class="edge">
<title>ql&#45;modules&#45;100&#45;&gt;c&#45;start&#45;170</title>
<path fill="none" stroke="#bdbdbd" d="M90.59,-218.34C93.8,-217.49 97,-216.7 100.12,-216 217.19,-189.74 358.05,-173.86 428.09,-166.99"/>
<polygon fill="#bdbdbd" stroke="#bdbdbd" points="428.09,-170.41 437.71,-165.97 427.42,-163.45 428.09,-170.41"/>
</g>
<!-- c&#45;guards&#45;300 -->
<g id="node3" class="node">
<title>c&#45;guards&#45;300</title>
<polygon fill="none" stroke="black" points="511.25,-108 433,-108 433,-72 511.25,-72 511.25,-108"/>
<text text-anchor="middle" x="472.12" y="-85.72" font-family="Times,serif" font-size="12.00">c&#45;guards&#45;300</text>
</g>
<!-- c&#45;start&#45;170&#45;&gt;c&#45;guards&#45;300 -->
<g id="edge2" class="edge">
<title>c&#45;start&#45;170&#45;&gt;c&#45;guards&#45;300</title>
<path fill="none" stroke="#bdbdbd" d="M472.12,-143.7C472.12,-136.24 472.12,-127.32 472.12,-118.97"/>
<polygon fill="#bdbdbd" stroke="#bdbdbd" points="475.63,-119.1 472.12,-109.1 468.63,-119.1 475.63,-119.1"/>
</g>
<!-- c&#45;goal&#45;170 -->
<g id="node13" class="node">
<title>c&#45;goal&#45;170</title>
<polygon fill="none" stroke="black" points="505.62,-36 438.62,-36 438.62,0 505.62,0 505.62,-36"/>
<text text-anchor="middle" x="472.12" y="-13.72" font-family="Times,serif" font-size="12.00">c&#45;goal&#45;170</text>
</g>
<!-- c&#45;guards&#45;300&#45;&gt;c&#45;goal&#45;170 -->
<g id="edge12" class="edge">
<title>c&#45;guards&#45;300&#45;&gt;c&#45;goal&#45;170</title>
<path fill="none" stroke="#bdbdbd" d="M472.12,-71.7C472.12,-64.24 472.12,-55.32 472.12,-46.97"/>
<polygon fill="#bdbdbd" stroke="#bdbdbd" points="475.63,-47.1 472.12,-37.1 468.63,-47.1 475.63,-47.1"/>
</g>
<!-- ql&#45;classes&#45;100 -->
<g id="node4" class="node">
<title>ql&#45;classes&#45;100</title>
<polygon fill="none" stroke="black" points="191.5,-252 108.75,-252 108.75,-216 191.5,-216 191.5,-252"/>
<text text-anchor="middle" x="150.12" y="-229.72" font-family="Times,serif" font-size="12.00">ql&#45;classes&#45;100</text>
</g>
<!-- ql&#45;classes&#45;100&#45;&gt;c&#45;start&#45;170 -->
<g id="edge3" class="edge">
<title>ql&#45;classes&#45;100&#45;&gt;c&#45;start&#45;170</title>
<path fill="none" stroke="#bdbdbd" d="M191.74,-218.38C194.56,-217.53 197.38,-216.73 200.12,-216 279.5,-194.88 373.99,-178.35 428.12,-169.69"/>
<polygon fill="#bdbdbd" stroke="#bdbdbd" points="428.39,-173.03 437.72,-168.01 427.29,-166.12 428.39,-173.03"/>
</g>
<!-- c&#45;ast&#45;100 -->
<g id="node5" class="node">
<title>c&#45;ast&#45;100</title>
<polygon fill="none" stroke="black" points="268.88,-252 209.38,-252 209.38,-216 268.88,-216 268.88,-252"/>
<text text-anchor="middle" x="239.12" y="-229.72" font-family="Times,serif" font-size="12.00">c&#45;ast&#45;100</text>
</g>
<!-- c&#45;ast&#45;100&#45;&gt;c&#45;start&#45;170 -->
<g id="edge4" class="edge">
<title>c&#45;ast&#45;100&#45;&gt;c&#45;start&#45;170</title>
<path fill="none" stroke="#bdbdbd" d="M269.19,-219.38C272.18,-218.18 275.2,-217.03 278.12,-216 328.69,-198.18 388.4,-182.67 428.09,-173.11"/>
<polygon fill="#bdbdbd" stroke="#bdbdbd" points="428.81,-176.29 437.72,-170.57 427.19,-169.48 428.81,-176.29"/>
</g>
<!-- c&#45;cfg&#45;100 -->
<g id="node6" class="node">
<title>c&#45;cfg&#45;100</title>
<polygon fill="none" stroke="black" points="349,-252 287.25,-252 287.25,-216 349,-216 349,-252"/>
<text text-anchor="middle" x="318.12" y="-229.72" font-family="Times,serif" font-size="12.00">c&#45;cfg&#45;100</text>
</g>
<!-- c&#45;cfg&#45;100&#45;&gt;c&#45;start&#45;170 -->
<g id="edge5" class="edge">
<title>c&#45;cfg&#45;100&#45;&gt;c&#45;start&#45;170</title>
<path fill="none" stroke="#bdbdbd" d="M349.29,-218.83C372.18,-208.43 403.56,-194.16 428.88,-182.66"/>
<polygon fill="#bdbdbd" stroke="#bdbdbd" points="429.95,-185.56 437.61,-178.24 427.05,-179.19 429.95,-185.56"/>
</g>
<!-- ql&#45;recursion&#45;100 -->
<g id="node7" class="node">
<title>ql&#45;recursion&#45;100</title>
<polygon fill="none" stroke="black" points="461.12,-252 367.12,-252 367.12,-216 461.12,-216 461.12,-252"/>
<text text-anchor="middle" x="414.12" y="-229.72" font-family="Times,serif" font-size="12.00">ql&#45;recursion&#45;100</text>
</g>
<!-- ql&#45;recursion&#45;100&#45;&gt;c&#45;start&#45;170 -->
<g id="edge6" class="edge">
<title>ql&#45;recursion&#45;100&#45;&gt;c&#45;start&#45;170</title>
<path fill="none" stroke="#bdbdbd" d="M428.46,-215.7C435.28,-207.47 443.55,-197.48 451.06,-188.42"/>
<polygon fill="#bdbdbd" stroke="#bdbdbd" points="454.27,-191.04 457.95,-181.1 448.88,-186.57 454.27,-191.04"/>
</g>
<!-- ql&#45;dominators&#45;100 -->
<g id="node8" class="node">
<title>ql&#45;dominators&#45;100</title>
<polygon fill="none" stroke="black" points="582.62,-252 479.62,-252 479.62,-216 582.62,-216 582.62,-252"/>
<text text-anchor="middle" x="531.12" y="-229.72" font-family="Times,serif" font-size="12.00">ql&#45;dominators&#45;100</text>
</g>
<!-- ql&#45;dominators&#45;100&#45;&gt;c&#45;start&#45;170 -->
<g id="edge7" class="edge">
<title>ql&#45;dominators&#45;100&#45;&gt;c&#45;start&#45;170</title>
<path fill="none" stroke="#bdbdbd" d="M516.54,-215.7C509.61,-207.47 501.19,-197.48 493.55,-188.42"/>
<polygon fill="#bdbdbd" stroke="#bdbdbd" points="495.66,-186.49 486.54,-181.1 490.31,-191.01 495.66,-186.49"/>
</g>
<!-- ql&#45;choices&#45;100 -->
<g id="node9" class="node">
<title>ql&#45;choices&#45;100</title>
<polygon fill="none" stroke="black" points="686,-252 600.25,-252 600.25,-216 686,-216 686,-252"/>
<text text-anchor="middle" x="643.12" y="-229.72" font-family="Times,serif" font-size="12.00">ql&#45;choices&#45;100</text>
</g>
<!-- ql&#45;choices&#45;100&#45;&gt;c&#45;start&#45;170 -->
<g id="edge8" class="edge">
<title>ql&#45;choices&#45;100&#45;&gt;c&#45;start&#45;170</title>
<path fill="none" stroke="#bdbdbd" d="M600.42,-215.52C574.57,-204.93 541.68,-191.47 515.68,-180.83"/>
<polygon fill="#bdbdbd" stroke="#bdbdbd" points="517.3,-177.3 506.72,-176.75 514.65,-183.78 517.3,-177.3"/>
</g>
<!-- ql&#45;predicates&#45;100 -->
<g id="node10" class="node">
<title>ql&#45;predicates&#45;100</title>
<polygon fill="none" stroke="black" points="802,-252 704.25,-252 704.25,-216 802,-216 802,-252"/>
<text text-anchor="middle" x="753.12" y="-229.72" font-family="Times,serif" font-size="12.00">ql&#45;predicates&#45;100</text>
</g>
<!-- ql&#45;predicates&#45;100&#45;&gt;c&#45;start&#45;170 -->
<g id="edge9" class="edge">
<title>ql&#45;predicates&#45;100&#45;&gt;c&#45;start&#45;170</title>
<path fill="none" stroke="#bdbdbd" d="M703.81,-218.36C700.88,-217.54 697.96,-216.75 695.12,-216 633.3,-199.6 561.19,-182.9 516.09,-172.74"/>
<polygon fill="#bdbdbd" stroke="#bdbdbd" points="517.03,-169.14 506.51,-170.37 515.5,-175.97 517.03,-169.14"/>
</g>
<!-- c&#45;df&#45;100 -->
<g id="node11" class="node">
<title>c&#45;df&#45;100</title>
<polygon fill="none" stroke="black" points="876.38,-252 819.88,-252 819.88,-216 876.38,-216 876.38,-252"/>
<text text-anchor="middle" x="848.12" y="-229.72" font-family="Times,serif" font-size="12.00">c&#45;df&#45;100</text>
</g>
<!-- c&#45;df&#45;100&#45;&gt;c&#45;start&#45;170 -->
<g id="edge10" class="edge">
<title>c&#45;df&#45;100&#45;&gt;c&#45;start&#45;170</title>
<path fill="none" stroke="#bdbdbd" d="M819.75,-219.02C816.87,-217.89 813.97,-216.86 811.12,-216 708.15,-184.95 581.8,-171.33 516.27,-166.01"/>
<polygon fill="#bdbdbd" stroke="#bdbdbd" points="516.77,-162.46 506.52,-165.16 516.22,-169.43 516.77,-162.46"/>
</g>
<!-- c&#45;df&#45;global&#45;100 -->
<g id="node12" class="node">
<title>c&#45;df&#45;global&#45;100</title>
<polygon fill="none" stroke="black" points="983.88,-252 894.38,-252 894.38,-216 983.88,-216 983.88,-252"/>
<text text-anchor="middle" x="939.12" y="-229.72" font-family="Times,serif" font-size="12.00">c&#45;df&#45;global&#45;100</text>
</g>
<!-- c&#45;df&#45;global&#45;100&#45;&gt;c&#45;start&#45;170 -->
<g id="edge11" class="edge">
<title>c&#45;df&#45;global&#45;100&#45;&gt;c&#45;start&#45;170</title>
<path fill="none" stroke="#bdbdbd" d="M893.91,-218.13C890.95,-217.35 888,-216.63 885.12,-216 752.55,-186.87 592.28,-171.96 516.25,-166.08"/>
<polygon fill="#bdbdbd" stroke="#bdbdbd" points="516.9,-162.54 506.66,-165.28 516.37,-169.52 516.9,-162.54"/>
</g>
</g>
</svg>
