<?xml version="1.0" encoding="UTF-8" standalone="no"?>
<!DOCTYPE svg PUBLIC "-//W3C//DTD SVG 1.1//EN"
 "http://www.w3.org/Graphics/SVG/1.1/DTD/svg11.dtd">
<!-- Generated by graphviz version 8.0.5 (0)
 -->
<!-- Pages: 1 -->
<svg width="446pt" height="332pt"
 viewBox="0.00 0.00 446.12 332.00" xmlns="http://www.w3.org/2000/svg" xmlns:xlink="http://www.w3.org/1999/xlink">
<g id="graph0" class="graph" transform="scale(1 1) rotate(0) translate(4 328)">
<polygon fill="white" stroke="none" points="-4,4 -4,-328 442.12,-328 442.12,4 -4,4"/>
<!-- c&#45;ast&#45;100 -->
<g id="node1" class="node">
<title>c&#45;ast&#45;100</title>
<polygon fill="none" stroke="black" points="59.5,-324 0,-324 0,-288 59.5,-288 59.5,-324"/>
<text text-anchor="middle" x="29.75" y="-301.73" font-family="Times,serif" font-size="12.00">c&#45;ast&#45;100</text>
</g>
<!-- c&#45;start&#45;210 -->
<g id="node2" class="node">
<title>c&#45;start&#45;210</title>
<polygon fill="none" stroke="black" points="263.88,-252 197.62,-252 197.62,-216 263.88,-216 263.88,-252"/>
<text text-anchor="middle" x="230.75" y="-229.72" font-family="Times,serif" font-size="12.00">c&#45;start&#45;210</text>
</g>
<!-- c&#45;ast&#45;100&#45;&gt;c&#45;start&#45;210 -->
<g id="edge1" class="edge">
<title>c&#45;ast&#45;100&#45;&gt;c&#45;start&#45;210</title>
<path fill="none" stroke="#f16913" d="M59.87,-291.54C62.85,-290.3 65.85,-289.1 68.75,-288 108.31,-272.95 154.23,-258.17 187.06,-248.06"/>
<polygon fill="#f16913" stroke="#f16913" points="187.69,-251.22 196.23,-244.95 185.64,-244.53 187.69,-251.22"/>
</g>
<!-- c&#45;types&#45;200 -->
<g id="node3" class="node">
<title>c&#45;types&#45;200</title>
<polygon fill="none" stroke="black" points="266.5,-180 195,-180 195,-144 266.5,-144 266.5,-180"/>
<text text-anchor="middle" x="230.75" y="-157.72" font-family="Times,serif" font-size="12.00">c&#45;types&#45;200</text>
</g>
<!-- c&#45;start&#45;210&#45;&gt;c&#45;types&#45;200 -->
<g id="edge2" class="edge">
<title>c&#45;start&#45;210&#45;&gt;c&#45;types&#45;200</title>
<path fill="none" stroke="#f16913" d="M230.75,-215.7C230.75,-208.24 230.75,-199.32 230.75,-190.97"/>
<polygon fill="#f16913" stroke="#f16913" points="234.25,-191.1 230.75,-181.1 227.25,-191.1 234.25,-191.1"/>
</g>
<!-- ql&#45;casts&#45;110 -->
<g id="node7" class="node">
<title>ql&#45;casts&#45;110</title>
<polygon fill="none" stroke="black" points="266.88,-108 194.62,-108 194.62,-72 266.88,-72 266.88,-108"/>
<text text-anchor="middle" x="230.75" y="-85.72" font-family="Times,serif" font-size="12.00">ql&#45;casts&#45;110</text>
</g>
<!-- c&#45;types&#45;200&#45;&gt;ql&#45;casts&#45;110 -->
<g id="edge6" class="edge">
<title>c&#45;types&#45;200&#45;&gt;ql&#45;casts&#45;110</title>
<path fill="none" stroke="#f16913" d="M230.75,-143.7C230.75,-136.24 230.75,-127.32 230.75,-118.97"/>
<polygon fill="#f16913" stroke="#f16913" points="234.25,-119.1 230.75,-109.1 227.25,-119.1 234.25,-119.1"/>
</g>
<!-- c&#45;df&#45;local&#45;100ql&#45;predicates&#45;100 -->
<g id="node4" class="node">
<title>c&#45;df&#45;local&#45;100ql&#45;predicates&#45;100</title>
<polygon fill="none" stroke="black" points="242,-324 77.5,-324 77.5,-288 242,-288 242,-324"/>
<text text-anchor="middle" x="159.75" y="-301.73" font-family="Times,serif" font-size="12.00">c&#45;df&#45;local&#45;100ql&#45;predicates&#45;100</text>
</g>
<!-- c&#45;df&#45;local&#45;100ql&#45;predicates&#45;100&#45;&gt;c&#45;start&#45;210 -->
<g id="edge3" class="edge">
<title>c&#45;df&#45;local&#45;100ql&#45;predicates&#45;100&#45;&gt;c&#45;start&#45;210</title>
<path fill="none" stroke="#f16913" d="M177.3,-287.7C185.9,-279.22 196.4,-268.86 205.82,-259.58"/>
<polygon fill="#f16913" stroke="#f16913" points="207.74,-262.62 212.4,-253.1 202.82,-257.63 207.74,-262.62"/>
</g>
<!-- ql&#45;classes&#45;100 -->
<g id="node5" class="node">
<title>ql&#45;classes&#45;100</title>
<polygon fill="none" stroke="black" points="343.12,-324 260.38,-324 260.38,-288 343.12,-288 343.12,-324"/>
<text text-anchor="middle" x="301.75" y="-301.73" font-family="Times,serif" font-size="12.00">ql&#45;classes&#45;100</text>
</g>
<!-- ql&#45;classes&#45;100&#45;&gt;c&#45;start&#45;210 -->
<g id="edge4" class="edge">
<title>ql&#45;classes&#45;100&#45;&gt;c&#45;start&#45;210</title>
<path fill="none" stroke="#f16913" d="M284.2,-287.7C275.6,-279.22 265.1,-268.86 255.68,-259.58"/>
<polygon fill="#f16913" stroke="#f16913" points="258.68,-257.63 249.1,-253.1 253.76,-262.62 258.68,-257.63"/>
</g>
<!-- ql&#45;select&#45;100 -->
<g id="node6" class="node">
<title>ql&#45;select&#45;100</title>
<polygon fill="none" stroke="black" points="438.12,-324 361.38,-324 361.38,-288 438.12,-288 438.12,-324"/>
<text text-anchor="middle" x="399.75" y="-301.73" font-family="Times,serif" font-size="12.00">ql&#45;select&#45;100</text>
</g>
<!-- ql&#45;select&#45;100&#45;&gt;c&#45;start&#45;210 -->
<g id="edge5" class="edge">
<title>ql&#45;select&#45;100&#45;&gt;c&#45;start&#45;210</title>
<path fill="none" stroke="#f16913" d="M360.98,-288.94C335.05,-278.2 300.91,-264.06 274.09,-252.95"/>
<polygon fill="#f16913" stroke="#f16913" points="275.78,-249.45 265.21,-248.86 273.1,-255.92 275.78,-249.45"/>
</g>
<!-- c&#45;goal&#45;210 -->
<g id="node8" class="node">
<title>c&#45;goal&#45;210</title>
<polygon fill="none" stroke="black" points="264.25,-36 197.25,-36 197.25,0 264.25,0 264.25,-36"/>
<text text-anchor="middle" x="230.75" y="-13.72" font-family="Times,serif" font-size="12.00">c&#45;goal&#45;210</text>
</g>
<!-- ql&#45;casts&#45;110&#45;&gt;c&#45;goal&#45;210 -->
<g id="edge7" class="edge">
<title>ql&#45;casts&#45;110&#45;&gt;c&#45;goal&#45;210</title>
<path fill="none" stroke="#f16913" d="M230.75,-71.7C230.75,-64.24 230.75,-55.32 230.75,-46.97"/>
<polygon fill="#f16913" stroke="#f16913" points="234.25,-47.1 230.75,-37.1 227.25,-47.1 234.25,-47.1"/>
</g>
</g>
</svg>
