<?xml version="1.0" encoding="UTF-8" standalone="no"?>
<!DOCTYPE svg PUBLIC "-//W3C//DTD SVG 1.1//EN"
 "http://www.w3.org/Graphics/SVG/1.1/DTD/svg11.dtd">
<!-- Generated by graphviz version 8.0.5 (0)
 -->
<!-- Pages: 1 -->
<svg width="479pt" height="260pt"
 viewBox="0.00 0.00 479.12 260.00" xmlns="http://www.w3.org/2000/svg" xmlns:xlink="http://www.w3.org/1999/xlink">
<g id="graph0" class="graph" transform="scale(1 1) rotate(0) translate(4 256)">
<polygon fill="white" stroke="none" points="-4,4 -4,-256 475.12,-256 475.12,4 -4,4"/>
<!-- c&#45;ast&#45;100 -->
<g id="node1" class="node">
<title>c&#45;ast&#45;100</title>
<polygon fill="none" stroke="black" points="59.5,-252 0,-252 0,-216 59.5,-216 59.5,-252"/>
<text text-anchor="middle" x="29.75" y="-229.72" font-family="Times,serif" font-size="12.00">c&#45;ast&#45;100</text>
</g>
<!-- c&#45;start&#45;210 -->
<g id="node2" class="node">
<title>c&#45;start&#45;210</title>
<polygon fill="none" stroke="black" points="259.88,-180 193.62,-180 193.62,-144 259.88,-144 259.88,-180"/>
<text text-anchor="middle" x="226.75" y="-157.72" font-family="Times,serif" font-size="12.00">c&#45;start&#45;210</text>
</g>
<!-- c&#45;ast&#45;100&#45;&gt;c&#45;start&#45;210 -->
<g id="edge1" class="edge">
<title>c&#45;ast&#45;100&#45;&gt;c&#45;start&#45;210</title>
<path fill="none" stroke="#a63603" d="M59.88,-219.56C62.86,-218.32 65.85,-217.11 68.75,-216 106.84,-201.34 150.92,-186.75 182.83,-176.6"/>
<polygon fill="#a63603" stroke="#a63603" points="183.68,-179.68 192.16,-173.33 181.57,-173.01 183.68,-179.68"/>
</g>
<!-- c&#45;types&#45;200 -->
<g id="node3" class="node">
<title>c&#45;types&#45;200</title>
<polygon fill="none" stroke="black" points="217.5,-108 146,-108 146,-72 217.5,-72 217.5,-108"/>
<text text-anchor="middle" x="181.75" y="-85.72" font-family="Times,serif" font-size="12.00">c&#45;types&#45;200</text>
</g>
<!-- c&#45;start&#45;210&#45;&gt;c&#45;types&#45;200 -->
<g id="edge2" class="edge">
<title>c&#45;start&#45;210&#45;&gt;c&#45;types&#45;200</title>
<path fill="none" stroke="#a63603" d="M215.63,-143.7C210.5,-135.73 204.31,-126.1 198.63,-117.26"/>
<polygon fill="#a63603" stroke="#a63603" points="201.1,-115.62 192.75,-109.1 195.21,-119.41 201.1,-115.62"/>
</g>
<!-- ql&#45;casts&#45;110 -->
<g id="node4" class="node">
<title>ql&#45;casts&#45;110</title>
<polygon fill="none" stroke="black" points="307.88,-108 235.62,-108 235.62,-72 307.88,-72 307.88,-108"/>
<text text-anchor="middle" x="271.75" y="-85.72" font-family="Times,serif" font-size="12.00">ql&#45;casts&#45;110</text>
</g>
<!-- c&#45;start&#45;210&#45;&gt;ql&#45;casts&#45;110 -->
<g id="edge3" class="edge">
<title>c&#45;start&#45;210&#45;&gt;ql&#45;casts&#45;110</title>
<path fill="none" stroke="#a63603" d="M237.87,-143.7C243,-135.73 249.19,-126.1 254.87,-117.26"/>
<polygon fill="#a63603" stroke="#a63603" points="258.29,-119.41 260.75,-109.1 252.4,-115.62 258.29,-119.41"/>
</g>
<!-- c&#45;goal&#45;210 -->
<g id="node9" class="node">
<title>c&#45;goal&#45;210</title>
<polygon fill="none" stroke="black" points="260.25,-36 193.25,-36 193.25,0 260.25,0 260.25,-36"/>
<text text-anchor="middle" x="226.75" y="-13.72" font-family="Times,serif" font-size="12.00">c&#45;goal&#45;210</text>
</g>
<!-- c&#45;types&#45;200&#45;&gt;c&#45;goal&#45;210 -->
<g id="edge8" class="edge">
<title>c&#45;types&#45;200&#45;&gt;c&#45;goal&#45;210</title>
<path fill="none" stroke="#a63603" d="M192.87,-71.7C198,-63.73 204.19,-54.1 209.87,-45.26"/>
<polygon fill="#a63603" stroke="#a63603" points="213.29,-47.41 215.75,-37.1 207.4,-43.62 213.29,-47.41"/>
</g>
<!-- ql&#45;casts&#45;110&#45;&gt;c&#45;goal&#45;210 -->
<g id="edge9" class="edge">
<title>ql&#45;casts&#45;110&#45;&gt;c&#45;goal&#45;210</title>
<path fill="none" stroke="#a63603" d="M260.63,-71.7C255.5,-63.73 249.31,-54.1 243.63,-45.26"/>
<polygon fill="#a63603" stroke="#a63603" points="246.1,-43.62 237.75,-37.1 240.21,-47.41 246.1,-43.62"/>
</g>
<!-- c&#45;df&#45;local&#45;100 -->
<g id="node5" class="node">
<title>c&#45;df&#45;local&#45;100</title>
<polygon fill="none" stroke="black" points="160.12,-252 77.38,-252 77.38,-216 160.12,-216 160.12,-252"/>
<text text-anchor="middle" x="118.75" y="-229.72" font-family="Times,serif" font-size="12.00">c&#45;df&#45;local&#45;100</text>
</g>
<!-- c&#45;df&#45;local&#45;100&#45;&gt;c&#45;start&#45;210 -->
<g id="edge4" class="edge">
<title>c&#45;df&#45;local&#45;100&#45;&gt;c&#45;start&#45;210</title>
<path fill="none" stroke="#a63603" d="M145.72,-215.52C159.49,-206.6 176.41,-195.63 191.22,-186.03"/>
<polygon fill="#a63603" stroke="#a63603" points="192.63,-188.64 199.12,-180.26 188.82,-182.76 192.63,-188.64"/>
</g>
<!-- ql&#45;predicates&#45;100 -->
<g id="node6" class="node">
<title>ql&#45;predicates&#45;100</title>
<polygon fill="none" stroke="black" points="275.62,-252 177.88,-252 177.88,-216 275.62,-216 275.62,-252"/>
<text text-anchor="middle" x="226.75" y="-229.72" font-family="Times,serif" font-size="12.00">ql&#45;predicates&#45;100</text>
</g>
<!-- ql&#45;predicates&#45;100&#45;&gt;c&#45;start&#45;210 -->
<g id="edge5" class="edge">
<title>ql&#45;predicates&#45;100&#45;&gt;c&#45;start&#45;210</title>
<path fill="none" stroke="#a63603" d="M226.75,-215.7C226.75,-208.24 226.75,-199.32 226.75,-190.97"/>
<polygon fill="#a63603" stroke="#a63603" points="230.25,-191.1 226.75,-181.1 223.25,-191.1 230.25,-191.1"/>
</g>
<!-- ql&#45;classes&#45;100 -->
<g id="node7" class="node">
<title>ql&#45;classes&#45;100</title>
<polygon fill="none" stroke="black" points="376.12,-252 293.38,-252 293.38,-216 376.12,-216 376.12,-252"/>
<text text-anchor="middle" x="334.75" y="-229.72" font-family="Times,serif" font-size="12.00">ql&#45;classes&#45;100</text>
</g>
<!-- ql&#45;classes&#45;100&#45;&gt;c&#45;start&#45;210 -->
<g id="edge6" class="edge">
<title>ql&#45;classes&#45;100&#45;&gt;c&#45;start&#45;210</title>
<path fill="none" stroke="#a63603" d="M307.78,-215.52C294.01,-206.6 277.09,-195.63 262.28,-186.03"/>
<polygon fill="#a63603" stroke="#a63603" points="264.68,-182.76 254.38,-180.26 260.87,-188.64 264.68,-182.76"/>
</g>
<!-- ql&#45;select&#45;100 -->
<g id="node8" class="node">
<title>ql&#45;select&#45;100</title>
<polygon fill="none" stroke="black" points="471.12,-252 394.38,-252 394.38,-216 471.12,-216 471.12,-252"/>
<text text-anchor="middle" x="432.75" y="-229.72" font-family="Times,serif" font-size="12.00">ql&#45;select&#45;100</text>
</g>
<!-- ql&#45;select&#45;100&#45;&gt;c&#45;start&#45;210 -->
<g id="edge7" class="edge">
<title>ql&#45;select&#45;100&#45;&gt;c&#45;start&#45;210</title>
<path fill="none" stroke="#a63603" d="M394,-219.21C390.87,-218.12 387.76,-217.04 384.75,-216 346.17,-202.7 302.13,-187.96 270.37,-177.41"/>
<polygon fill="#a63603" stroke="#a63603" points="271.69,-173.83 261.09,-174.01 269.48,-180.48 271.69,-173.83"/>
</g>
</g>
</svg>
