<?xml version="1.0" encoding="UTF-8" standalone="no"?>
<!DOCTYPE svg PUBLIC "-//W3C//DTD SVG 1.1//EN"
 "http://www.w3.org/Graphics/SVG/1.1/DTD/svg11.dtd">
<!-- Generated by graphviz version 8.0.5 (0)
 -->
<!-- Pages: 1 -->
<svg width="446pt" height="260pt"
 viewBox="0.00 0.00 446.12 260.00" xmlns="http://www.w3.org/2000/svg" xmlns:xlink="http://www.w3.org/1999/xlink">
<g id="graph0" class="graph" transform="scale(1 1) rotate(0) translate(4 256)">
<polygon fill="white" stroke="none" points="-4,4 -4,-256 442.12,-256 442.12,4 -4,4"/>
<!-- c&#45;ast&#45;100 -->
<g id="node1" class="node">
<title>c&#45;ast&#45;100</title>
<polygon fill="none" stroke="black" points="59.5,-252 0,-252 0,-216 59.5,-216 59.5,-252"/>
<text text-anchor="middle" x="29.75" y="-229.72" font-family="Times,serif" font-size="12.00">c&#45;ast&#45;100</text>
</g>
<!-- c&#45;start&#45;210 -->
<g id="node2" class="node">
<title>c&#45;start&#45;210</title>
<polygon fill="none" stroke="black" points="263.88,-180 197.62,-180 197.62,-144 263.88,-144 263.88,-180"/>
<text text-anchor="middle" x="230.75" y="-157.72" font-family="Times,serif" font-size="12.00">c&#45;start&#45;210</text>
</g>
<!-- c&#45;ast&#45;100&#45;&gt;c&#45;start&#45;210 -->
<g id="edge1" class="edge">
<title>c&#45;ast&#45;100&#45;&gt;c&#45;start&#45;210</title>
<path fill="none" stroke="#f16913" d="M59.87,-219.54C62.85,-218.3 65.85,-217.1 68.75,-216 108.31,-200.95 154.23,-186.17 187.06,-176.06"/>
<polygon fill="#f16913" stroke="#f16913" points="187.69,-179.22 196.23,-172.95 185.64,-172.53 187.69,-179.22"/>
</g>
<!-- c&#45;types&#45;200 -->
<g id="node3" class="node">
<title>c&#45;types&#45;200</title>
<polygon fill="none" stroke="black" points="221.5,-108 150,-108 150,-72 221.5,-72 221.5,-108"/>
<text text-anchor="middle" x="185.75" y="-85.72" font-family="Times,serif" font-size="12.00">c&#45;types&#45;200</text>
</g>
<!-- c&#45;start&#45;210&#45;&gt;c&#45;types&#45;200 -->
<g id="edge2" class="edge">
<title>c&#45;start&#45;210&#45;&gt;c&#45;types&#45;200</title>
<path fill="none" stroke="#f16913" d="M219.63,-143.7C214.5,-135.73 208.31,-126.1 202.63,-117.26"/>
<polygon fill="#f16913" stroke="#f16913" points="205.1,-115.62 196.75,-109.1 199.21,-119.41 205.1,-115.62"/>
</g>
<!-- ql&#45;casts&#45;110 -->
<g id="node4" class="node">
<title>ql&#45;casts&#45;110</title>
<polygon fill="none" stroke="black" points="311.88,-108 239.62,-108 239.62,-72 311.88,-72 311.88,-108"/>
<text text-anchor="middle" x="275.75" y="-85.72" font-family="Times,serif" font-size="12.00">ql&#45;casts&#45;110</text>
</g>
<!-- c&#45;start&#45;210&#45;&gt;ql&#45;casts&#45;110 -->
<g id="edge3" class="edge">
<title>c&#45;start&#45;210&#45;&gt;ql&#45;casts&#45;110</title>
<path fill="none" stroke="#f16913" d="M241.87,-143.7C247,-135.73 253.19,-126.1 258.87,-117.26"/>
<polygon fill="#f16913" stroke="#f16913" points="262.29,-119.41 264.75,-109.1 256.4,-115.62 262.29,-119.41"/>
</g>
<!-- c&#45;goal&#45;210 -->
<g id="node8" class="node">
<title>c&#45;goal&#45;210</title>
<polygon fill="none" stroke="black" points="264.25,-36 197.25,-36 197.25,0 264.25,0 264.25,-36"/>
<text text-anchor="middle" x="230.75" y="-13.72" font-family="Times,serif" font-size="12.00">c&#45;goal&#45;210</text>
</g>
<!-- c&#45;types&#45;200&#45;&gt;c&#45;goal&#45;210 -->
<g id="edge7" class="edge">
<title>c&#45;types&#45;200&#45;&gt;c&#45;goal&#45;210</title>
<path fill="none" stroke="#f16913" d="M196.87,-71.7C202,-63.73 208.19,-54.1 213.87,-45.26"/>
<polygon fill="#f16913" stroke="#f16913" points="217.29,-47.41 219.75,-37.1 211.4,-43.62 217.29,-47.41"/>
</g>
<!-- ql&#45;casts&#45;110&#45;&gt;c&#45;goal&#45;210 -->
<g id="edge8" class="edge">
<title>ql&#45;casts&#45;110&#45;&gt;c&#45;goal&#45;210</title>
<path fill="none" stroke="#f16913" d="M264.63,-71.7C259.5,-63.73 253.31,-54.1 247.63,-45.26"/>
<polygon fill="#f16913" stroke="#f16913" points="250.1,-43.62 241.75,-37.1 244.21,-47.41 250.1,-43.62"/>
</g>
<!-- c&#45;df&#45;local&#45;100ql&#45;predicates&#45;100 -->
<g id="node5" class="node">
<title>c&#45;df&#45;local&#45;100ql&#45;predicates&#45;100</title>
<polygon fill="none" stroke="black" points="242,-252 77.5,-252 77.5,-216 242,-216 242,-252"/>
<text text-anchor="middle" x="159.75" y="-229.72" font-family="Times,serif" font-size="12.00">c&#45;df&#45;local&#45;100ql&#45;predicates&#45;100</text>
</g>
<!-- c&#45;df&#45;local&#45;100ql&#45;predicates&#45;100&#45;&gt;c&#45;start&#45;210 -->
<g id="edge4" class="edge">
<title>c&#45;df&#45;local&#45;100ql&#45;predicates&#45;100&#45;&gt;c&#45;start&#45;210</title>
<path fill="none" stroke="#f16913" d="M177.3,-215.7C185.9,-207.22 196.4,-196.86 205.82,-187.58"/>
<polygon fill="#f16913" stroke="#f16913" points="207.74,-190.62 212.4,-181.1 202.82,-185.63 207.74,-190.62"/>
</g>
<!-- ql&#45;classes&#45;100 -->
<g id="node6" class="node">
<title>ql&#45;classes&#45;100</title>
<polygon fill="none" stroke="black" points="343.12,-252 260.38,-252 260.38,-216 343.12,-216 343.12,-252"/>
<text text-anchor="middle" x="301.75" y="-229.72" font-family="Times,serif" font-size="12.00">ql&#45;classes&#45;100</text>
</g>
<!-- ql&#45;classes&#45;100&#45;&gt;c&#45;start&#45;210 -->
<g id="edge5" class="edge">
<title>ql&#45;classes&#45;100&#45;&gt;c&#45;start&#45;210</title>
<path fill="none" stroke="#f16913" d="M284.2,-215.7C275.6,-207.22 265.1,-196.86 255.68,-187.58"/>
<polygon fill="#f16913" stroke="#f16913" points="258.68,-185.63 249.1,-181.1 253.76,-190.62 258.68,-185.63"/>
</g>
<!-- ql&#45;select&#45;100 -->
<g id="node7" class="node">
<title>ql&#45;select&#45;100</title>
<polygon fill="none" stroke="black" points="438.12,-252 361.38,-252 361.38,-216 438.12,-216 438.12,-252"/>
<text text-anchor="middle" x="399.75" y="-229.72" font-family="Times,serif" font-size="12.00">ql&#45;select&#45;100</text>
</g>
<!-- ql&#45;select&#45;100&#45;&gt;c&#45;start&#45;210 -->
<g id="edge6" class="edge">
<title>ql&#45;select&#45;100&#45;&gt;c&#45;start&#45;210</title>
<path fill="none" stroke="#f16913" d="M360.98,-216.94C335.05,-206.2 300.91,-192.06 274.09,-180.95"/>
<polygon fill="#f16913" stroke="#f16913" points="275.78,-177.45 265.21,-176.86 273.1,-183.92 275.78,-177.45"/>
</g>
</g>
</svg>
