<?xml version="1.0" encoding="UTF-8" standalone="no"?>
<!DOCTYPE svg PUBLIC "-//W3C//DTD SVG 1.1//EN"
 "http://www.w3.org/Graphics/SVG/1.1/DTD/svg11.dtd">
<!-- Generated by graphviz version 8.0.5 (0)
 -->
<!-- Pages: 1 -->
<svg width="641pt" height="692pt"
 viewBox="0.00 0.00 640.50 692.00" xmlns="http://www.w3.org/2000/svg" xmlns:xlink="http://www.w3.org/1999/xlink">
<g id="graph0" class="graph" transform="scale(1 1) rotate(0) translate(4 688)">
<polygon fill="white" stroke="none" points="-4,4 -4,-688 636.5,-688 636.5,4 -4,4"/>
<!-- c&#45;ast&#45;100 -->
<g id="node1" class="node">
<title>c&#45;ast&#45;100</title>
<polygon fill="none" stroke="black" points="59.5,-684 0,-684 0,-648 59.5,-648 59.5,-684"/>
<text text-anchor="middle" x="29.75" y="-661.73" font-family="Times,serif" font-size="12.00">c&#45;ast&#45;100</text>
</g>
<!-- c&#45;start&#45;380 -->
<g id="node2" class="node">
<title>c&#45;start&#45;380</title>
<polygon fill="none" stroke="black" points="328.88,-612 262.62,-612 262.62,-576 328.88,-576 328.88,-612"/>
<text text-anchor="middle" x="295.75" y="-589.73" font-family="Times,serif" font-size="12.00">c&#45;start&#45;380</text>
</g>
<!-- c&#45;ast&#45;100&#45;&gt;c&#45;start&#45;380 -->
<g id="edge1" class="edge">
<title>c&#45;ast&#45;100&#45;&gt;c&#45;start&#45;380</title>
<path fill="none" stroke="#252525" d="M59.77,-651.27C62.78,-650.09 65.81,-648.98 68.75,-648 130.98,-627.36 205.36,-611.62 251.59,-602.84"/>
<polygon fill="#252525" stroke="#252525" points="251.96,-606.15 261.14,-600.86 250.67,-599.26 251.96,-606.15"/>
</g>
<!-- ql&#45;casts&#45;100 -->
<g id="node3" class="node">
<title>ql&#45;casts&#45;100</title>
<polygon fill="none" stroke="black" points="332.25,-540 259.25,-540 259.25,-504 332.25,-504 332.25,-540"/>
<text text-anchor="middle" x="295.75" y="-517.73" font-family="Times,serif" font-size="12.00">ql&#45;casts&#45;100</text>
</g>
<!-- c&#45;start&#45;380&#45;&gt;ql&#45;casts&#45;100 -->
<g id="edge2" class="edge">
<title>c&#45;start&#45;380&#45;&gt;ql&#45;casts&#45;100</title>
<path fill="none" stroke="#252525" d="M295.75,-575.7C295.75,-568.24 295.75,-559.32 295.75,-550.97"/>
<polygon fill="#252525" stroke="#252525" points="299.25,-551.1 295.75,-541.1 292.25,-551.1 299.25,-551.1"/>
</g>
<!-- ql&#45;named_select&#45;100 -->
<g id="node10" class="node">
<title>ql&#45;named_select&#45;100</title>
<polygon fill="none" stroke="black" points="352.88,-468 238.62,-468 238.62,-432 352.88,-432 352.88,-468"/>
<text text-anchor="middle" x="295.75" y="-445.73" font-family="Times,serif" font-size="12.00">ql&#45;named_select&#45;100</text>
</g>
<!-- ql&#45;casts&#45;100&#45;&gt;ql&#45;named_select&#45;100 -->
<g id="edge9" class="edge">
<title>ql&#45;casts&#45;100&#45;&gt;ql&#45;named_select&#45;100</title>
<path fill="none" stroke="#252525" d="M295.75,-503.7C295.75,-496.24 295.75,-487.32 295.75,-478.97"/>
<polygon fill="#252525" stroke="#252525" points="299.25,-479.1 295.75,-469.1 292.25,-479.1 299.25,-479.1"/>
</g>
<!-- c&#45;df&#45;100 -->
<g id="node4" class="node">
<title>c&#45;df&#45;100</title>
<polygon fill="none" stroke="black" points="134,-684 77.5,-684 77.5,-648 134,-648 134,-684"/>
<text text-anchor="middle" x="105.75" y="-661.73" font-family="Times,serif" font-size="12.00">c&#45;df&#45;100</text>
</g>
<!-- c&#45;df&#45;100&#45;&gt;c&#45;start&#45;380 -->
<g id="edge3" class="edge">
<title>c&#45;df&#45;100&#45;&gt;c&#45;start&#45;380</title>
<path fill="none" stroke="#252525" d="M134.27,-651.93C137.45,-650.56 140.66,-649.23 143.75,-648 179.76,-633.7 221.35,-619.34 251.92,-609.18"/>
<polygon fill="#252525" stroke="#252525" points="252.84,-612.23 261.24,-605.77 250.65,-605.59 252.84,-612.23"/>
</g>
<!-- ql&#45;exists&#45;100 -->
<g id="node5" class="node">
<title>ql&#45;exists&#45;100</title>
<polygon fill="none" stroke="black" points="229.12,-684 152.38,-684 152.38,-648 229.12,-648 229.12,-684"/>
<text text-anchor="middle" x="190.75" y="-661.73" font-family="Times,serif" font-size="12.00">ql&#45;exists&#45;100</text>
</g>
<!-- ql&#45;exists&#45;100&#45;&gt;c&#45;start&#45;380 -->
<g id="edge4" class="edge">
<title>ql&#45;exists&#45;100&#45;&gt;c&#45;start&#45;380</title>
<path fill="none" stroke="#252525" d="M216.98,-647.52C230.23,-638.68 246.49,-627.84 260.8,-618.3"/>
<polygon fill="#252525" stroke="#252525" points="262.48,-620.72 268.86,-612.26 258.6,-614.9 262.48,-620.72"/>
</g>
<!-- ql&#45;predicates&#45;100 -->
<g id="node6" class="node">
<title>ql&#45;predicates&#45;100</title>
<polygon fill="none" stroke="black" points="344.62,-684 246.88,-684 246.88,-648 344.62,-648 344.62,-684"/>
<text text-anchor="middle" x="295.75" y="-661.73" font-family="Times,serif" font-size="12.00">ql&#45;predicates&#45;100</text>
</g>
<!-- ql&#45;predicates&#45;100&#45;&gt;c&#45;start&#45;380 -->
<g id="edge5" class="edge">
<title>ql&#45;predicates&#45;100&#45;&gt;c&#45;start&#45;380</title>
<path fill="none" stroke="#252525" d="M295.75,-647.7C295.75,-640.24 295.75,-631.32 295.75,-622.97"/>
<polygon fill="#252525" stroke="#252525" points="299.25,-623.1 295.75,-613.1 292.25,-623.1 299.25,-623.1"/>
</g>
<!-- ql&#45;classes&#45;100 -->
<g id="node7" class="node">
<title>ql&#45;classes&#45;100</title>
<polygon fill="none" stroke="black" points="445.12,-684 362.38,-684 362.38,-648 445.12,-648 445.12,-684"/>
<text text-anchor="middle" x="403.75" y="-661.73" font-family="Times,serif" font-size="12.00">ql&#45;classes&#45;100</text>
</g>
<!-- ql&#45;classes&#45;100&#45;&gt;c&#45;start&#45;380 -->
<g id="edge6" class="edge">
<title>ql&#45;classes&#45;100&#45;&gt;c&#45;start&#45;380</title>
<path fill="none" stroke="#252525" d="M376.78,-647.52C363.01,-638.6 346.09,-627.63 331.28,-618.03"/>
<polygon fill="#252525" stroke="#252525" points="333.68,-614.76 323.38,-612.26 329.87,-620.64 333.68,-614.76"/>
</g>
<!-- c&#45;cfg&#45;100 -->
<g id="node8" class="node">
<title>c&#45;cfg&#45;100</title>
<polygon fill="none" stroke="black" points="524.62,-684 462.88,-684 462.88,-648 524.62,-648 524.62,-684"/>
<text text-anchor="middle" x="493.75" y="-661.73" font-family="Times,serif" font-size="12.00">c&#45;cfg&#45;100</text>
</g>
<!-- c&#45;cfg&#45;100&#45;&gt;c&#45;start&#45;380 -->
<g id="edge7" class="edge">
<title>c&#45;cfg&#45;100&#45;&gt;c&#45;start&#45;380</title>
<path fill="none" stroke="#252525" d="M462.4,-651.4C459.49,-650.22 456.57,-649.07 453.75,-648 415.6,-633.52 371.52,-618.9 339.63,-608.7"/>
<polygon fill="#252525" stroke="#252525" points="340.9,-605.11 330.31,-605.42 338.78,-611.78 340.9,-605.11"/>
</g>
<!-- c&#45;df&#45;global&#45;100 -->
<g id="node9" class="node">
<title>c&#45;df&#45;global&#45;100</title>
<polygon fill="none" stroke="black" points="632.5,-684 543,-684 543,-648 632.5,-648 632.5,-684"/>
<text text-anchor="middle" x="587.75" y="-661.73" font-family="Times,serif" font-size="12.00">c&#45;df&#45;global&#45;100</text>
</g>
<!-- c&#45;df&#45;global&#45;100&#45;&gt;c&#45;start&#45;380 -->
<g id="edge8" class="edge">
<title>c&#45;df&#45;global&#45;100&#45;&gt;c&#45;start&#45;380</title>
<path fill="none" stroke="#252525" d="M542.75,-650.52C539.71,-649.64 536.69,-648.79 533.75,-648 466.61,-629.99 387.68,-613.28 339.71,-603.61"/>
<polygon fill="#252525" stroke="#252525" points="340.57,-600.01 330.08,-601.48 339.2,-606.88 340.57,-600.01"/>
</g>
<!-- c&#45;guards&#45;300 -->
<g id="node11" class="node">
<title>c&#45;guards&#45;300</title>
<polygon fill="none" stroke="black" points="334.88,-396 256.62,-396 256.62,-360 334.88,-360 334.88,-396"/>
<text text-anchor="middle" x="295.75" y="-373.73" font-family="Times,serif" font-size="12.00">c&#45;guards&#45;300</text>
</g>
<!-- ql&#45;named_select&#45;100&#45;&gt;c&#45;guards&#45;300 -->
<g id="edge10" class="edge">
<title>ql&#45;named_select&#45;100&#45;&gt;c&#45;guards&#45;300</title>
<path fill="none" stroke="#252525" d="M295.75,-431.7C295.75,-424.24 295.75,-415.32 295.75,-406.97"/>
<polygon fill="#252525" stroke="#252525" points="299.25,-407.1 295.75,-397.1 292.25,-407.1 299.25,-407.1"/>
</g>
<!-- c&#45;lib&#45;SimpleRangeAnalysis&#45;300 -->
<g id="node12" class="node">
<title>c&#45;lib&#45;SimpleRangeAnalysis&#45;300</title>
<polygon fill="none" stroke="black" points="379.5,-324 212,-324 212,-288 379.5,-288 379.5,-324"/>
<text text-anchor="middle" x="295.75" y="-301.73" font-family="Times,serif" font-size="12.00">c&#45;lib&#45;SimpleRangeAnalysis&#45;300</text>
</g>
<!-- c&#45;guards&#45;300&#45;&gt;c&#45;lib&#45;SimpleRangeAnalysis&#45;300 -->
<g id="edge11" class="edge">
<title>c&#45;guards&#45;300&#45;&gt;c&#45;lib&#45;SimpleRangeAnalysis&#45;300</title>
<path fill="none" stroke="#252525" d="M295.75,-359.7C295.75,-352.24 295.75,-343.32 295.75,-334.97"/>
<polygon fill="#252525" stroke="#252525" points="299.25,-335.1 295.75,-325.1 292.25,-335.1 299.25,-335.1"/>
</g>
<!-- c&#45;lib&#45;GlobalValueNumbering&#45;300 -->
<g id="node13" class="node">
<title>c&#45;lib&#45;GlobalValueNumbering&#45;300</title>
<polygon fill="none" stroke="black" points="383.62,-252 207.88,-252 207.88,-216 383.62,-216 383.62,-252"/>
<text text-anchor="middle" x="295.75" y="-229.72" font-family="Times,serif" font-size="12.00">c&#45;lib&#45;GlobalValueNumbering&#45;300</text>
</g>
<!-- c&#45;lib&#45;SimpleRangeAnalysis&#45;300&#45;&gt;c&#45;lib&#45;GlobalValueNumbering&#45;300 -->
<g id="edge12" class="edge">
<title>c&#45;lib&#45;SimpleRangeAnalysis&#45;300&#45;&gt;c&#45;lib&#45;GlobalValueNumbering&#45;300</title>
<path fill="none" stroke="#252525" d="M295.75,-287.7C295.75,-280.24 295.75,-271.32 295.75,-262.97"/>
<polygon fill="#252525" stroke="#252525" points="299.25,-263.1 295.75,-253.1 292.25,-263.1 299.25,-263.1"/>
</g>
<!-- c&#45;lib&#45;HashCons&#45;300 -->
<g id="node14" class="node">
<title>c&#45;lib&#45;HashCons&#45;300</title>
<polygon fill="none" stroke="black" points="351.75,-180 239.75,-180 239.75,-144 351.75,-144 351.75,-180"/>
<text text-anchor="middle" x="295.75" y="-157.72" font-family="Times,serif" font-size="12.00">c&#45;lib&#45;HashCons&#45;300</text>
</g>
<!-- c&#45;lib&#45;GlobalValueNumbering&#45;300&#45;&gt;c&#45;lib&#45;HashCons&#45;300 -->
<g id="edge13" class="edge">
<title>c&#45;lib&#45;GlobalValueNumbering&#45;300&#45;&gt;c&#45;lib&#45;HashCons&#45;300</title>
<path fill="none" stroke="#252525" d="M295.75,-215.7C295.75,-208.24 295.75,-199.32 295.75,-190.97"/>
<polygon fill="#252525" stroke="#252525" points="299.25,-191.1 295.75,-181.1 292.25,-191.1 299.25,-191.1"/>
</g>
<!-- c&#45;types&#45;300 -->
<g id="node15" class="node">
<title>c&#45;types&#45;300</title>
<polygon fill="none" stroke="black" points="331.5,-108 260,-108 260,-72 331.5,-72 331.5,-108"/>
<text text-anchor="middle" x="295.75" y="-85.72" font-family="Times,serif" font-size="12.00">c&#45;types&#45;300</text>
</g>
<!-- c&#45;lib&#45;HashCons&#45;300&#45;&gt;c&#45;types&#45;300 -->
<g id="edge14" class="edge">
<title>c&#45;lib&#45;HashCons&#45;300&#45;&gt;c&#45;types&#45;300</title>
<path fill="none" stroke="#252525" d="M295.75,-143.7C295.75,-136.24 295.75,-127.32 295.75,-118.97"/>
<polygon fill="#252525" stroke="#252525" points="299.25,-119.1 295.75,-109.1 292.25,-119.1 299.25,-119.1"/>
</g>
<!-- c&#45;goal&#45;380 -->
<g id="node16" class="node">
<title>c&#45;goal&#45;380</title>
<polygon fill="none" stroke="black" points="329.25,-36 262.25,-36 262.25,0 329.25,0 329.25,-36"/>
<text text-anchor="middle" x="295.75" y="-13.72" font-family="Times,serif" font-size="12.00">c&#45;goal&#45;380</text>
</g>
<!-- c&#45;types&#45;300&#45;&gt;c&#45;goal&#45;380 -->
<g id="edge15" class="edge">
<title>c&#45;types&#45;300&#45;&gt;c&#45;goal&#45;380</title>
<path fill="none" stroke="#252525" d="M295.75,-71.7C295.75,-64.24 295.75,-55.32 295.75,-46.97"/>
<polygon fill="#252525" stroke="#252525" points="299.25,-47.1 295.75,-37.1 292.25,-47.1 299.25,-47.1"/>
</g>
</g>
</svg>
