<?xml version="1.0" encoding="UTF-8" standalone="no"?>
<!DOCTYPE svg PUBLIC "-//W3C//DTD SVG 1.1//EN"
 "http://www.w3.org/Graphics/SVG/1.1/DTD/svg11.dtd">
<!-- Generated by graphviz version 8.0.5 (0)
 -->
<!-- Pages: 1 -->
<svg width="909pt" height="260pt"
 viewBox="0.00 0.00 909.25 260.00" xmlns="http://www.w3.org/2000/svg" xmlns:xlink="http://www.w3.org/1999/xlink">
<g id="graph0" class="graph" transform="scale(1 1) rotate(0) translate(4 256)">
<polygon fill="white" stroke="none" points="-4,4 -4,-256 905.25,-256 905.25,4 -4,4"/>
<!-- c&#45;ast&#45;100 -->
<g id="node1" class="node">
<title>c&#45;ast&#45;100</title>
<polygon fill="none" stroke="black" points="141.25,-252 81.75,-252 81.75,-216 141.25,-216 141.25,-252"/>
<text text-anchor="middle" x="111.5" y="-229.72" font-family="Times,serif" font-size="12.00">c&#45;ast&#45;100</text>
</g>
<!-- c&#45;start&#45;380 -->
<g id="node2" class="node">
<title>c&#45;start&#45;380</title>
<polygon fill="none" stroke="black" points="436.62,-180 370.38,-180 370.38,-144 436.62,-144 436.62,-180"/>
<text text-anchor="middle" x="403.5" y="-157.72" font-family="Times,serif" font-size="12.00">c&#45;start&#45;380</text>
</g>
<!-- c&#45;ast&#45;100&#45;&gt;c&#45;start&#45;380 -->
<g id="edge1" class="edge">
<title>c&#45;ast&#45;100&#45;&gt;c&#45;start&#45;380</title>
<path fill="none" stroke="#737373" d="M141.5,-219.2C144.51,-218.03 147.54,-216.94 150.5,-216 222.2,-193.13 308.53,-177.48 359.55,-169.4"/>
<polygon fill="#737373" stroke="#737373" points="359.85,-172.74 369.19,-167.75 358.77,-165.83 359.85,-172.74"/>
</g>
<!-- ql&#45;casts&#45;100 -->
<g id="node3" class="node">
<title>ql&#45;casts&#45;100</title>
<polygon fill="none" stroke="black" points="73,-108 0,-108 0,-72 73,-72 73,-108"/>
<text text-anchor="middle" x="36.5" y="-85.72" font-family="Times,serif" font-size="12.00">ql&#45;casts&#45;100</text>
</g>
<!-- c&#45;start&#45;380&#45;&gt;ql&#45;casts&#45;100 -->
<g id="edge2" class="edge">
<title>c&#45;start&#45;380&#45;&gt;ql&#45;casts&#45;100</title>
<path fill="none" stroke="#737373" d="M370.25,-157.62C313.32,-151.39 193.49,-136.3 84.02,-108.12"/>
<polygon fill="#737373" stroke="#737373" points="85.02,-104.5 74.46,-105.35 83.25,-111.27 85.02,-104.5"/>
</g>
<!-- ql&#45;named_select&#45;100 -->
<g id="node4" class="node">
<title>ql&#45;named_select&#45;100</title>
<polygon fill="none" stroke="black" points="205.62,-108 91.38,-108 91.38,-72 205.62,-72 205.62,-108"/>
<text text-anchor="middle" x="148.5" y="-85.72" font-family="Times,serif" font-size="12.00">ql&#45;named_select&#45;100</text>
</g>
<!-- c&#45;start&#45;380&#45;&gt;ql&#45;named_select&#45;100 -->
<g id="edge3" class="edge">
<title>c&#45;start&#45;380&#45;&gt;ql&#45;named_select&#45;100</title>
<path fill="none" stroke="#737373" d="M369.9,-151.78C331.01,-141.1 265.97,-123.25 216.42,-109.64"/>
<polygon fill="#737373" stroke="#737373" points="217.67,-106.08 207.1,-106.81 215.81,-112.83 217.67,-106.08"/>
</g>
<!-- c&#45;guards&#45;300 -->
<g id="node5" class="node">
<title>c&#45;guards&#45;300</title>
<polygon fill="none" stroke="black" points="301.62,-108 223.38,-108 223.38,-72 301.62,-72 301.62,-108"/>
<text text-anchor="middle" x="262.5" y="-85.72" font-family="Times,serif" font-size="12.00">c&#45;guards&#45;300</text>
</g>
<!-- c&#45;start&#45;380&#45;&gt;c&#45;guards&#45;300 -->
<g id="edge4" class="edge">
<title>c&#45;start&#45;380&#45;&gt;c&#45;guards&#45;300</title>
<path fill="none" stroke="#737373" d="M370.08,-144.41C351.33,-135.1 327.68,-123.36 307.33,-113.26"/>
<polygon fill="#737373" stroke="#737373" points="309.16,-109.76 298.64,-108.45 306.04,-116.03 309.16,-109.76"/>
</g>
<!-- c&#45;lib&#45;SimpleRangeAnalysis&#45;300 -->
<g id="node6" class="node">
<title>c&#45;lib&#45;SimpleRangeAnalysis&#45;300</title>
<polygon fill="none" stroke="black" points="487.25,-108 319.75,-108 319.75,-72 487.25,-72 487.25,-108"/>
<text text-anchor="middle" x="403.5" y="-85.72" font-family="Times,serif" font-size="12.00">c&#45;lib&#45;SimpleRangeAnalysis&#45;300</text>
</g>
<!-- c&#45;start&#45;380&#45;&gt;c&#45;lib&#45;SimpleRangeAnalysis&#45;300 -->
<g id="edge5" class="edge">
<title>c&#45;start&#45;380&#45;&gt;c&#45;lib&#45;SimpleRangeAnalysis&#45;300</title>
<path fill="none" stroke="#737373" d="M403.5,-143.7C403.5,-136.24 403.5,-127.32 403.5,-118.97"/>
<polygon fill="#737373" stroke="#737373" points="407,-119.1 403.5,-109.1 400,-119.1 407,-119.1"/>
</g>
<!-- c&#45;lib&#45;GlobalValueNumbering&#45;300 -->
<g id="node7" class="node">
<title>c&#45;lib&#45;GlobalValueNumbering&#45;300</title>
<polygon fill="none" stroke="black" points="681.38,-108 505.62,-108 505.62,-72 681.38,-72 681.38,-108"/>
<text text-anchor="middle" x="593.5" y="-85.72" font-family="Times,serif" font-size="12.00">c&#45;lib&#45;GlobalValueNumbering&#45;300</text>
</g>
<!-- c&#45;start&#45;380&#45;&gt;c&#45;lib&#45;GlobalValueNumbering&#45;300 -->
<g id="edge6" class="edge">
<title>c&#45;start&#45;380&#45;&gt;c&#45;lib&#45;GlobalValueNumbering&#45;300</title>
<path fill="none" stroke="#737373" d="M437.03,-148.65C464.33,-138.59 503.5,-124.16 535.82,-112.25"/>
<polygon fill="#737373" stroke="#737373" points="536.88,-115.22 545.05,-108.48 534.46,-108.65 536.88,-115.22"/>
</g>
<!-- c&#45;lib&#45;HashCons&#45;300 -->
<g id="node8" class="node">
<title>c&#45;lib&#45;HashCons&#45;300</title>
<polygon fill="none" stroke="black" points="811.5,-108 699.5,-108 699.5,-72 811.5,-72 811.5,-108"/>
<text text-anchor="middle" x="755.5" y="-85.72" font-family="Times,serif" font-size="12.00">c&#45;lib&#45;HashCons&#45;300</text>
</g>
<!-- c&#45;start&#45;380&#45;&gt;c&#45;lib&#45;HashCons&#45;300 -->
<g id="edge7" class="edge">
<title>c&#45;start&#45;380&#45;&gt;c&#45;lib&#45;HashCons&#45;300</title>
<path fill="none" stroke="#737373" d="M436.8,-155.66C488.57,-147.19 591.67,-129.62 688.62,-108.34"/>
<polygon fill="#737373" stroke="#737373" points="689.18,-111.58 698.19,-106 687.67,-104.74 689.18,-111.58"/>
</g>
<!-- c&#45;types&#45;300 -->
<g id="node9" class="node">
<title>c&#45;types&#45;300</title>
<polygon fill="none" stroke="black" points="901.25,-108 829.75,-108 829.75,-72 901.25,-72 901.25,-108"/>
<text text-anchor="middle" x="865.5" y="-85.72" font-family="Times,serif" font-size="12.00">c&#45;types&#45;300</text>
</g>
<!-- c&#45;start&#45;380&#45;&gt;c&#45;types&#45;300 -->
<g id="edge8" class="edge">
<title>c&#45;start&#45;380&#45;&gt;c&#45;types&#45;300</title>
<path fill="none" stroke="#737373" d="M436.96,-159.41C506.71,-155.54 672.61,-143.38 818.89,-108.06"/>
<polygon fill="#737373" stroke="#737373" points="819.51,-111.27 828.38,-105.48 817.84,-104.47 819.51,-111.27"/>
</g>
<!-- c&#45;goal&#45;380 -->
<g id="node16" class="node">
<title>c&#45;goal&#45;380</title>
<polygon fill="none" stroke="black" points="437,-36 370,-36 370,0 437,0 437,-36"/>
<text text-anchor="middle" x="403.5" y="-13.72" font-family="Times,serif" font-size="12.00">c&#45;goal&#45;380</text>
</g>
<!-- ql&#45;casts&#45;100&#45;&gt;c&#45;goal&#45;380 -->
<g id="edge15" class="edge">
<title>ql&#45;casts&#45;100&#45;&gt;c&#45;goal&#45;380</title>
<path fill="none" stroke="#737373" d="M73.46,-74.65C76.5,-73.68 79.54,-72.78 82.5,-72 179.6,-46.29 296.68,-30.73 359.14,-23.62"/>
<polygon fill="#737373" stroke="#737373" points="359.24,-27.02 368.79,-22.43 358.46,-20.06 359.24,-27.02"/>
</g>
<!-- ql&#45;named_select&#45;100&#45;&gt;c&#45;goal&#45;380 -->
<g id="edge16" class="edge">
<title>ql&#45;named_select&#45;100&#45;&gt;c&#45;goal&#45;380</title>
<path fill="none" stroke="#737373" d="M206.04,-73.2C252.39,-60.48 316.61,-42.85 359.06,-31.2"/>
<polygon fill="#737373" stroke="#737373" points="359.91,-34.32 368.63,-28.3 358.06,-27.57 359.91,-34.32"/>
</g>
<!-- c&#45;guards&#45;300&#45;&gt;c&#45;goal&#45;380 -->
<g id="edge17" class="edge">
<title>c&#45;guards&#45;300&#45;&gt;c&#45;goal&#45;380</title>
<path fill="none" stroke="#737373" d="M297.72,-71.52C316.56,-62.16 339.93,-50.56 359.91,-40.64"/>
<polygon fill="#737373" stroke="#737373" points="361.3,-43.36 368.7,-35.78 358.19,-37.09 361.3,-43.36"/>
</g>
<!-- c&#45;lib&#45;SimpleRangeAnalysis&#45;300&#45;&gt;c&#45;goal&#45;380 -->
<g id="edge18" class="edge">
<title>c&#45;lib&#45;SimpleRangeAnalysis&#45;300&#45;&gt;c&#45;goal&#45;380</title>
<path fill="none" stroke="#737373" d="M403.5,-71.7C403.5,-64.24 403.5,-55.32 403.5,-46.97"/>
<polygon fill="#737373" stroke="#737373" points="407,-47.1 403.5,-37.1 400,-47.1 407,-47.1"/>
</g>
<!-- c&#45;lib&#45;GlobalValueNumbering&#45;300&#45;&gt;c&#45;goal&#45;380 -->
<g id="edge19" class="edge">
<title>c&#45;lib&#45;GlobalValueNumbering&#45;300&#45;&gt;c&#45;goal&#45;380</title>
<path fill="none" stroke="#737373" d="M546.05,-71.52C515.76,-60.36 476.79,-46 447.26,-35.12"/>
<polygon fill="#737373" stroke="#737373" points="448.83,-31.6 438.23,-31.43 446.41,-38.17 448.83,-31.6"/>
</g>
<!-- c&#45;lib&#45;HashCons&#45;300&#45;&gt;c&#45;goal&#45;380 -->
<g id="edge20" class="edge">
<title>c&#45;lib&#45;HashCons&#45;300&#45;&gt;c&#45;goal&#45;380</title>
<path fill="none" stroke="#737373" d="M699.19,-74C696.26,-73.31 693.35,-72.63 690.5,-72 605.19,-52.99 504.54,-35.54 447.95,-26.17"/>
<polygon fill="#737373" stroke="#737373" points="448.68,-22.58 438.24,-24.41 447.54,-29.49 448.68,-22.58"/>
</g>
<!-- c&#45;types&#45;300&#45;&gt;c&#45;goal&#45;380 -->
<g id="edge21" class="edge">
<title>c&#45;types&#45;300&#45;&gt;c&#45;goal&#45;380</title>
<path fill="none" stroke="#737373" d="M829.38,-74.52C826.4,-73.58 823.42,-72.73 820.5,-72 687.36,-38.88 524.87,-25.82 447.95,-21.22"/>
<polygon fill="#737373" stroke="#737373" points="448.42,-17.68 438.23,-20.6 448.02,-24.67 448.42,-17.68"/>
</g>
<!-- c&#45;df&#45;local&#45;100 -->
<g id="node10" class="node">
<title>c&#45;df&#45;local&#45;100</title>
<polygon fill="none" stroke="black" points="241.88,-252 159.12,-252 159.12,-216 241.88,-216 241.88,-252"/>
<text text-anchor="middle" x="200.5" y="-229.72" font-family="Times,serif" font-size="12.00">c&#45;df&#45;local&#45;100</text>
</g>
<!-- c&#45;df&#45;local&#45;100&#45;&gt;c&#45;start&#45;380 -->
<g id="edge9" class="edge">
<title>c&#45;df&#45;local&#45;100&#45;&gt;c&#45;start&#45;380</title>
<path fill="none" stroke="#737373" d="M242.07,-218.67C276.34,-206.85 324.81,-190.13 359.68,-178.11"/>
<polygon fill="#737373" stroke="#737373" points="360.72,-181.11 369.04,-174.54 358.44,-174.49 360.72,-181.11"/>
</g>
<!-- ql&#45;exists&#45;100 -->
<g id="node11" class="node">
<title>ql&#45;exists&#45;100</title>
<polygon fill="none" stroke="black" points="336.88,-252 260.12,-252 260.12,-216 336.88,-216 336.88,-252"/>
<text text-anchor="middle" x="298.5" y="-229.72" font-family="Times,serif" font-size="12.00">ql&#45;exists&#45;100</text>
</g>
<!-- ql&#45;exists&#45;100&#45;&gt;c&#45;start&#45;380 -->
<g id="edge10" class="edge">
<title>ql&#45;exists&#45;100&#45;&gt;c&#45;start&#45;380</title>
<path fill="none" stroke="#737373" d="M324.73,-215.52C337.98,-206.68 354.24,-195.84 368.55,-186.3"/>
<polygon fill="#737373" stroke="#737373" points="370.23,-188.72 376.61,-180.26 366.35,-182.9 370.23,-188.72"/>
</g>
<!-- ql&#45;predicates&#45;100 -->
<g id="node12" class="node">
<title>ql&#45;predicates&#45;100</title>
<polygon fill="none" stroke="black" points="452.38,-252 354.62,-252 354.62,-216 452.38,-216 452.38,-252"/>
<text text-anchor="middle" x="403.5" y="-229.72" font-family="Times,serif" font-size="12.00">ql&#45;predicates&#45;100</text>
</g>
<!-- ql&#45;predicates&#45;100&#45;&gt;c&#45;start&#45;380 -->
<g id="edge11" class="edge">
<title>ql&#45;predicates&#45;100&#45;&gt;c&#45;start&#45;380</title>
<path fill="none" stroke="#737373" d="M403.5,-215.7C403.5,-208.24 403.5,-199.32 403.5,-190.97"/>
<polygon fill="#737373" stroke="#737373" points="407,-191.1 403.5,-181.1 400,-191.1 407,-191.1"/>
</g>
<!-- ql&#45;classes&#45;100 -->
<g id="node13" class="node">
<title>ql&#45;classes&#45;100</title>
<polygon fill="none" stroke="black" points="552.88,-252 470.12,-252 470.12,-216 552.88,-216 552.88,-252"/>
<text text-anchor="middle" x="511.5" y="-229.72" font-family="Times,serif" font-size="12.00">ql&#45;classes&#45;100</text>
</g>
<!-- ql&#45;classes&#45;100&#45;&gt;c&#45;start&#45;380 -->
<g id="edge12" class="edge">
<title>ql&#45;classes&#45;100&#45;&gt;c&#45;start&#45;380</title>
<path fill="none" stroke="#737373" d="M484.53,-215.52C470.76,-206.6 453.84,-195.63 439.03,-186.03"/>
<polygon fill="#737373" stroke="#737373" points="441.43,-182.76 431.13,-180.26 437.62,-188.64 441.43,-182.76"/>
</g>
<!-- c&#45;cfg&#45;100 -->
<g id="node14" class="node">
<title>c&#45;cfg&#45;100</title>
<polygon fill="none" stroke="black" points="632.38,-252 570.62,-252 570.62,-216 632.38,-216 632.38,-252"/>
<text text-anchor="middle" x="601.5" y="-229.72" font-family="Times,serif" font-size="12.00">c&#45;cfg&#45;100</text>
</g>
<!-- c&#45;cfg&#45;100&#45;&gt;c&#45;start&#45;380 -->
<g id="edge13" class="edge">
<title>c&#45;cfg&#45;100&#45;&gt;c&#45;start&#45;380</title>
<path fill="none" stroke="#737373" d="M570.15,-219.4C567.24,-218.22 564.32,-217.07 561.5,-216 523.35,-201.52 479.27,-186.9 447.38,-176.7"/>
<polygon fill="#737373" stroke="#737373" points="448.65,-173.11 438.06,-173.42 446.53,-179.78 448.65,-173.11"/>
</g>
<!-- c&#45;df&#45;global&#45;100 -->
<g id="node15" class="node">
<title>c&#45;df&#45;global&#45;100</title>
<polygon fill="none" stroke="black" points="740.25,-252 650.75,-252 650.75,-216 740.25,-216 740.25,-252"/>
<text text-anchor="middle" x="695.5" y="-229.72" font-family="Times,serif" font-size="12.00">c&#45;df&#45;global&#45;100</text>
</g>
<!-- c&#45;df&#45;global&#45;100&#45;&gt;c&#45;start&#45;380 -->
<g id="edge14" class="edge">
<title>c&#45;df&#45;global&#45;100&#45;&gt;c&#45;start&#45;380</title>
<path fill="none" stroke="#737373" d="M650.5,-218.52C647.46,-217.64 644.44,-216.79 641.5,-216 574.36,-197.99 495.43,-181.28 447.46,-171.61"/>
<polygon fill="#737373" stroke="#737373" points="448.32,-168.01 437.83,-169.48 446.95,-174.88 448.32,-168.01"/>
</g>
</g>
</svg>
