<?xml version="1.0" encoding="UTF-8" standalone="no"?>
<!DOCTYPE svg PUBLIC "-//W3C//DTD SVG 1.1//EN"
 "http://www.w3.org/Graphics/SVG/1.1/DTD/svg11.dtd">
<!-- Generated by graphviz version 8.0.5 (0)
 -->
<!-- Pages: 1 -->
<svg width="379pt" height="476pt"
 viewBox="0.00 0.00 379.12 476.00" xmlns="http://www.w3.org/2000/svg" xmlns:xlink="http://www.w3.org/1999/xlink">
<g id="graph0" class="graph" transform="scale(1 1) rotate(0) translate(4 472)">
<polygon fill="white" stroke="none" points="-4,4 -4,-472 375.12,-472 375.12,4 -4,4"/>
<!-- c&#45;ast&#45;100 -->
<g id="node1" class="node">
<title>c&#45;ast&#45;100</title>
<polygon fill="none" stroke="black" points="59.5,-468 0,-468 0,-432 59.5,-432 59.5,-468"/>
<text text-anchor="middle" x="29.75" y="-445.73" font-family="Times,serif" font-size="12.00">c&#45;ast&#45;100</text>
</g>
<!-- c&#45;start&#45;390 -->
<g id="node2" class="node">
<title>c&#45;start&#45;390</title>
<polygon fill="none" stroke="black" points="213.88,-396 147.62,-396 147.62,-360 213.88,-360 213.88,-396"/>
<text text-anchor="middle" x="180.75" y="-373.73" font-family="Times,serif" font-size="12.00">c&#45;start&#45;390</text>
</g>
<!-- c&#45;ast&#45;100&#45;&gt;c&#45;start&#45;390 -->
<g id="edge1" class="edge">
<title>c&#45;ast&#45;100&#45;&gt;c&#45;start&#45;390</title>
<path fill="none" stroke="#252525" d="M59.94,-435C82.11,-424.73 112.54,-410.62 137.31,-399.14"/>
<polygon fill="#252525" stroke="#252525" points="138.59,-401.94 146.19,-394.56 135.65,-395.59 138.59,-401.94"/>
</g>
<!-- ql&#45;adts&#45;300 -->
<g id="node3" class="node">
<title>ql&#45;adts&#45;300</title>
<polygon fill="none" stroke="black" points="215.38,-324 146.12,-324 146.12,-288 215.38,-288 215.38,-324"/>
<text text-anchor="middle" x="180.75" y="-301.73" font-family="Times,serif" font-size="12.00">ql&#45;adts&#45;300</text>
</g>
<!-- c&#45;start&#45;390&#45;&gt;ql&#45;adts&#45;300 -->
<g id="edge2" class="edge">
<title>c&#45;start&#45;390&#45;&gt;ql&#45;adts&#45;300</title>
<path fill="none" stroke="#252525" d="M180.75,-359.7C180.75,-352.24 180.75,-343.32 180.75,-334.97"/>
<polygon fill="#252525" stroke="#252525" points="184.25,-335.1 180.75,-325.1 177.25,-335.1 184.25,-335.1"/>
</g>
<!-- c&#45;ast&#45;200 -->
<g id="node7" class="node">
<title>c&#45;ast&#45;200</title>
<polygon fill="none" stroke="black" points="210.5,-252 151,-252 151,-216 210.5,-216 210.5,-252"/>
<text text-anchor="middle" x="180.75" y="-229.72" font-family="Times,serif" font-size="12.00">c&#45;ast&#45;200</text>
</g>
<!-- ql&#45;adts&#45;300&#45;&gt;c&#45;ast&#45;200 -->
<g id="edge6" class="edge">
<title>ql&#45;adts&#45;300&#45;&gt;c&#45;ast&#45;200</title>
<path fill="none" stroke="#252525" d="M180.75,-287.7C180.75,-280.24 180.75,-271.32 180.75,-262.97"/>
<polygon fill="#252525" stroke="#252525" points="184.25,-263.1 180.75,-253.1 177.25,-263.1 184.25,-263.1"/>
</g>
<!-- ql&#45;predicates&#45;100 -->
<g id="node4" class="node">
<title>ql&#45;predicates&#45;100</title>
<polygon fill="none" stroke="black" points="175.62,-468 77.88,-468 77.88,-432 175.62,-432 175.62,-468"/>
<text text-anchor="middle" x="126.75" y="-445.73" font-family="Times,serif" font-size="12.00">ql&#45;predicates&#45;100</text>
</g>
<!-- ql&#45;predicates&#45;100&#45;&gt;c&#45;start&#45;390 -->
<g id="edge3" class="edge">
<title>ql&#45;predicates&#45;100&#45;&gt;c&#45;start&#45;390</title>
<path fill="none" stroke="#252525" d="M140.1,-431.7C146.38,-423.56 153.99,-413.69 160.92,-404.7"/>
<polygon fill="#252525" stroke="#252525" points="164.22,-407.16 167.56,-397.1 158.68,-402.88 164.22,-407.16"/>
</g>
<!-- ql&#45;classes&#45;100 -->
<g id="node5" class="node">
<title>ql&#45;classes&#45;100</title>
<polygon fill="none" stroke="black" points="276.12,-468 193.38,-468 193.38,-432 276.12,-432 276.12,-468"/>
<text text-anchor="middle" x="234.75" y="-445.73" font-family="Times,serif" font-size="12.00">ql&#45;classes&#45;100</text>
</g>
<!-- ql&#45;classes&#45;100&#45;&gt;c&#45;start&#45;390 -->
<g id="edge4" class="edge">
<title>ql&#45;classes&#45;100&#45;&gt;c&#45;start&#45;390</title>
<path fill="none" stroke="#252525" d="M221.4,-431.7C215.12,-423.56 207.51,-413.69 200.58,-404.7"/>
<polygon fill="#252525" stroke="#252525" points="202.82,-402.88 193.94,-397.1 197.28,-407.16 202.82,-402.88"/>
</g>
<!-- ql&#45;exists&#45;100 -->
<g id="node6" class="node">
<title>ql&#45;exists&#45;100</title>
<polygon fill="none" stroke="black" points="371.12,-468 294.38,-468 294.38,-432 371.12,-432 371.12,-468"/>
<text text-anchor="middle" x="332.75" y="-445.73" font-family="Times,serif" font-size="12.00">ql&#45;exists&#45;100</text>
</g>
<!-- ql&#45;exists&#45;100&#45;&gt;c&#45;start&#45;390 -->
<g id="edge5" class="edge">
<title>ql&#45;exists&#45;100&#45;&gt;c&#45;start&#45;390</title>
<path fill="none" stroke="#252525" d="M294.79,-431.52C273.36,-421.65 246.5,-409.28 224.23,-399.02"/>
<polygon fill="#252525" stroke="#252525" points="225.9,-395.48 215.35,-394.48 222.97,-401.84 225.9,-395.48"/>
</g>
<!-- ql&#45;adt_subclasses&#45;300 -->
<g id="node8" class="node">
<title>ql&#45;adt_subclasses&#45;300</title>
<polygon fill="none" stroke="black" points="240.5,-180 121,-180 121,-144 240.5,-144 240.5,-180"/>
<text text-anchor="middle" x="180.75" y="-157.72" font-family="Times,serif" font-size="12.00">ql&#45;adt_subclasses&#45;300</text>
</g>
<!-- c&#45;ast&#45;200&#45;&gt;ql&#45;adt_subclasses&#45;300 -->
<g id="edge7" class="edge">
<title>c&#45;ast&#45;200&#45;&gt;ql&#45;adt_subclasses&#45;300</title>
<path fill="none" stroke="#252525" d="M180.75,-215.7C180.75,-208.24 180.75,-199.32 180.75,-190.97"/>
<polygon fill="#252525" stroke="#252525" points="184.25,-191.1 180.75,-181.1 177.25,-191.1 184.25,-191.1"/>
</g>
<!-- ql&#45;predicates&#45;300 -->
<g id="node9" class="node">
<title>ql&#45;predicates&#45;300</title>
<polygon fill="none" stroke="black" points="229.62,-108 131.88,-108 131.88,-72 229.62,-72 229.62,-108"/>
<text text-anchor="middle" x="180.75" y="-85.72" font-family="Times,serif" font-size="12.00">ql&#45;predicates&#45;300</text>
</g>
<!-- ql&#45;adt_subclasses&#45;300&#45;&gt;ql&#45;predicates&#45;300 -->
<g id="edge8" class="edge">
<title>ql&#45;adt_subclasses&#45;300&#45;&gt;ql&#45;predicates&#45;300</title>
<path fill="none" stroke="#252525" d="M180.75,-143.7C180.75,-136.24 180.75,-127.32 180.75,-118.97"/>
<polygon fill="#252525" stroke="#252525" points="184.25,-119.1 180.75,-109.1 177.25,-119.1 184.25,-119.1"/>
</g>
<!-- c&#45;goal&#45;390 -->
<g id="node10" class="node">
<title>c&#45;goal&#45;390</title>
<polygon fill="none" stroke="black" points="214.25,-36 147.25,-36 147.25,0 214.25,0 214.25,-36"/>
<text text-anchor="middle" x="180.75" y="-13.72" font-family="Times,serif" font-size="12.00">c&#45;goal&#45;390</text>
</g>
<!-- ql&#45;predicates&#45;300&#45;&gt;c&#45;goal&#45;390 -->
<g id="edge9" class="edge">
<title>ql&#45;predicates&#45;300&#45;&gt;c&#45;goal&#45;390</title>
<path fill="none" stroke="#252525" d="M180.75,-71.7C180.75,-64.24 180.75,-55.32 180.75,-46.97"/>
<polygon fill="#252525" stroke="#252525" points="184.25,-47.1 180.75,-37.1 177.25,-47.1 184.25,-47.1"/>
</g>
</g>
</svg>
