<?xml version="1.0" encoding="UTF-8" standalone="no"?>
<!DOCTYPE svg PUBLIC "-//W3C//DTD SVG 1.1//EN"
 "http://www.w3.org/Graphics/SVG/1.1/DTD/svg11.dtd">
<!-- Generated by graphviz version 8.0.5 (0)
 -->
<!-- Pages: 1 -->
<svg width="419pt" height="260pt"
 viewBox="0.00 0.00 418.62 260.00" xmlns="http://www.w3.org/2000/svg" xmlns:xlink="http://www.w3.org/1999/xlink">
<g id="graph0" class="graph" transform="scale(1 1) rotate(0) translate(4 256)">
<polygon fill="white" stroke="none" points="-4,4 -4,-256 414.62,-256 414.62,4 -4,4"/>
<!-- c&#45;ast&#45;100 -->
<g id="node1" class="node">
<title>c&#45;ast&#45;100</title>
<polygon fill="none" stroke="black" points="59.5,-252 0,-252 0,-216 59.5,-216 59.5,-252"/>
<text text-anchor="middle" x="29.75" y="-229.72" font-family="Times,serif" font-size="12.00">c&#45;ast&#45;100</text>
</g>
<!-- c&#45;start&#45;390 -->
<g id="node2" class="node">
<title>c&#45;start&#45;390</title>
<polygon fill="none" stroke="black" points="213.88,-180 147.62,-180 147.62,-144 213.88,-144 213.88,-180"/>
<text text-anchor="middle" x="180.75" y="-157.72" font-family="Times,serif" font-size="12.00">c&#45;start&#45;390</text>
</g>
<!-- c&#45;ast&#45;100&#45;&gt;c&#45;start&#45;390 -->
<g id="edge1" class="edge">
<title>c&#45;ast&#45;100&#45;&gt;c&#45;start&#45;390</title>
<path fill="none" stroke="#fdae6b" d="M59.94,-219C82.11,-208.73 112.54,-194.62 137.31,-183.14"/>
<polygon fill="#fdae6b" stroke="#fdae6b" points="138.59,-185.94 146.19,-178.56 135.65,-179.59 138.59,-185.94"/>
</g>
<!-- ql&#45;adts&#45;300 -->
<g id="node3" class="node">
<title>ql&#45;adts&#45;300</title>
<polygon fill="none" stroke="black" points="79.38,-108 10.12,-108 10.12,-72 79.38,-72 79.38,-108"/>
<text text-anchor="middle" x="44.75" y="-85.72" font-family="Times,serif" font-size="12.00">ql&#45;adts&#45;300</text>
</g>
<!-- c&#45;start&#45;390&#45;&gt;ql&#45;adts&#45;300 -->
<g id="edge2" class="edge">
<title>c&#45;start&#45;390&#45;&gt;ql&#45;adts&#45;300</title>
<path fill="none" stroke="#fdae6b" d="M147.13,-143.7C129.31,-134.53 107.22,-123.16 88.13,-113.33"/>
<polygon fill="#fdae6b" stroke="#fdae6b" points="89.95,-109.81 79.45,-108.35 86.74,-116.04 89.95,-109.81"/>
</g>
<!-- c&#45;ast&#45;200 -->
<g id="node4" class="node">
<title>c&#45;ast&#45;200</title>
<polygon fill="none" stroke="black" points="156.5,-108 97,-108 97,-72 156.5,-72 156.5,-108"/>
<text text-anchor="middle" x="126.75" y="-85.72" font-family="Times,serif" font-size="12.00">c&#45;ast&#45;200</text>
</g>
<!-- c&#45;start&#45;390&#45;&gt;c&#45;ast&#45;200 -->
<g id="edge3" class="edge">
<title>c&#45;start&#45;390&#45;&gt;c&#45;ast&#45;200</title>
<path fill="none" stroke="#fdae6b" d="M167.4,-143.7C161.12,-135.56 153.51,-125.69 146.58,-116.7"/>
<polygon fill="#fdae6b" stroke="#fdae6b" points="148.82,-114.88 139.94,-109.1 143.28,-119.16 148.82,-114.88"/>
</g>
<!-- ql&#45;adt_subclasses&#45;300 -->
<g id="node5" class="node">
<title>ql&#45;adt_subclasses&#45;300</title>
<polygon fill="none" stroke="black" points="294.5,-108 175,-108 175,-72 294.5,-72 294.5,-108"/>
<text text-anchor="middle" x="234.75" y="-85.72" font-family="Times,serif" font-size="12.00">ql&#45;adt_subclasses&#45;300</text>
</g>
<!-- c&#45;start&#45;390&#45;&gt;ql&#45;adt_subclasses&#45;300 -->
<g id="edge4" class="edge">
<title>c&#45;start&#45;390&#45;&gt;ql&#45;adt_subclasses&#45;300</title>
<path fill="none" stroke="#fdae6b" d="M194.1,-143.7C200.38,-135.56 207.99,-125.69 214.92,-116.7"/>
<polygon fill="#fdae6b" stroke="#fdae6b" points="218.22,-119.16 221.56,-109.1 212.68,-114.88 218.22,-119.16"/>
</g>
<!-- ql&#45;predicates&#45;300 -->
<g id="node6" class="node">
<title>ql&#45;predicates&#45;300</title>
<polygon fill="none" stroke="black" points="410.62,-108 312.88,-108 312.88,-72 410.62,-72 410.62,-108"/>
<text text-anchor="middle" x="361.75" y="-85.72" font-family="Times,serif" font-size="12.00">ql&#45;predicates&#45;300</text>
</g>
<!-- c&#45;start&#45;390&#45;&gt;ql&#45;predicates&#45;300 -->
<g id="edge5" class="edge">
<title>c&#45;start&#45;390&#45;&gt;ql&#45;predicates&#45;300</title>
<path fill="none" stroke="#fdae6b" d="M214.37,-148C240.27,-137.98 276.63,-123.92 306.75,-112.27"/>
<polygon fill="#fdae6b" stroke="#fdae6b" points="307.64,-115.29 315.7,-108.42 305.11,-108.76 307.64,-115.29"/>
</g>
<!-- c&#45;goal&#45;390 -->
<g id="node10" class="node">
<title>c&#45;goal&#45;390</title>
<polygon fill="none" stroke="black" points="214.25,-36 147.25,-36 147.25,0 214.25,0 214.25,-36"/>
<text text-anchor="middle" x="180.75" y="-13.72" font-family="Times,serif" font-size="12.00">c&#45;goal&#45;390</text>
</g>
<!-- ql&#45;adts&#45;300&#45;&gt;c&#45;goal&#45;390 -->
<g id="edge9" class="edge">
<title>ql&#45;adts&#45;300&#45;&gt;c&#45;goal&#45;390</title>
<path fill="none" stroke="#fdae6b" d="M78.72,-71.52C96.54,-62.34 118.56,-51.01 137.58,-41.22"/>
<polygon fill="#fdae6b" stroke="#fdae6b" points="138.93,-43.95 146.22,-36.26 135.72,-37.73 138.93,-43.95"/>
</g>
<!-- c&#45;ast&#45;200&#45;&gt;c&#45;goal&#45;390 -->
<g id="edge10" class="edge">
<title>c&#45;ast&#45;200&#45;&gt;c&#45;goal&#45;390</title>
<path fill="none" stroke="#fdae6b" d="M140.1,-71.7C146.38,-63.56 153.99,-53.69 160.92,-44.7"/>
<polygon fill="#fdae6b" stroke="#fdae6b" points="164.22,-47.16 167.56,-37.1 158.68,-42.88 164.22,-47.16"/>
</g>
<!-- ql&#45;adt_subclasses&#45;300&#45;&gt;c&#45;goal&#45;390 -->
<g id="edge11" class="edge">
<title>ql&#45;adt_subclasses&#45;300&#45;&gt;c&#45;goal&#45;390</title>
<path fill="none" stroke="#fdae6b" d="M221.4,-71.7C215.12,-63.56 207.51,-53.69 200.58,-44.7"/>
<polygon fill="#fdae6b" stroke="#fdae6b" points="202.82,-42.88 193.94,-37.1 197.28,-47.16 202.82,-42.88"/>
</g>
<!-- ql&#45;predicates&#45;300&#45;&gt;c&#45;goal&#45;390 -->
<g id="edge12" class="edge">
<title>ql&#45;predicates&#45;300&#45;&gt;c&#45;goal&#45;390</title>
<path fill="none" stroke="#fdae6b" d="M316.54,-71.52C288.5,-60.67 252.65,-46.81 224.82,-36.04"/>
<polygon fill="#fdae6b" stroke="#fdae6b" points="226.17,-32.43 215.58,-32.08 223.65,-38.96 226.17,-32.43"/>
</g>
<!-- ql&#45;predicates&#45;100 -->
<g id="node7" class="node">
<title>ql&#45;predicates&#45;100</title>
<polygon fill="none" stroke="black" points="175.62,-252 77.88,-252 77.88,-216 175.62,-216 175.62,-252"/>
<text text-anchor="middle" x="126.75" y="-229.72" font-family="Times,serif" font-size="12.00">ql&#45;predicates&#45;100</text>
</g>
<!-- ql&#45;predicates&#45;100&#45;&gt;c&#45;start&#45;390 -->
<g id="edge6" class="edge">
<title>ql&#45;predicates&#45;100&#45;&gt;c&#45;start&#45;390</title>
<path fill="none" stroke="#fdae6b" d="M140.1,-215.7C146.38,-207.56 153.99,-197.69 160.92,-188.7"/>
<polygon fill="#fdae6b" stroke="#fdae6b" points="164.22,-191.16 167.56,-181.1 158.68,-186.88 164.22,-191.16"/>
</g>
<!-- ql&#45;classes&#45;100 -->
<g id="node8" class="node">
<title>ql&#45;classes&#45;100</title>
<polygon fill="none" stroke="black" points="276.12,-252 193.38,-252 193.38,-216 276.12,-216 276.12,-252"/>
<text text-anchor="middle" x="234.75" y="-229.72" font-family="Times,serif" font-size="12.00">ql&#45;classes&#45;100</text>
</g>
<!-- ql&#45;classes&#45;100&#45;&gt;c&#45;start&#45;390 -->
<g id="edge7" class="edge">
<title>ql&#45;classes&#45;100&#45;&gt;c&#45;start&#45;390</title>
<path fill="none" stroke="#fdae6b" d="M221.4,-215.7C215.12,-207.56 207.51,-197.69 200.58,-188.7"/>
<polygon fill="#fdae6b" stroke="#fdae6b" points="202.82,-186.88 193.94,-181.1 197.28,-191.16 202.82,-186.88"/>
</g>
<!-- ql&#45;exists&#45;100 -->
<g id="node9" class="node">
<title>ql&#45;exists&#45;100</title>
<polygon fill="none" stroke="black" points="371.12,-252 294.38,-252 294.38,-216 371.12,-216 371.12,-252"/>
<text text-anchor="middle" x="332.75" y="-229.72" font-family="Times,serif" font-size="12.00">ql&#45;exists&#45;100</text>
</g>
<!-- ql&#45;exists&#45;100&#45;&gt;c&#45;start&#45;390 -->
<g id="edge8" class="edge">
<title>ql&#45;exists&#45;100&#45;&gt;c&#45;start&#45;390</title>
<path fill="none" stroke="#fdae6b" d="M294.79,-215.52C273.36,-205.65 246.5,-193.28 224.23,-183.02"/>
<polygon fill="#fdae6b" stroke="#fdae6b" points="225.9,-179.48 215.35,-178.48 222.97,-185.84 225.9,-179.48"/>
</g>
</g>
</svg>
