<?xml version="1.0" encoding="UTF-8" standalone="no"?>
<!DOCTYPE svg PUBLIC "-//W3C//DTD SVG 1.1//EN"
 "http://www.w3.org/Graphics/SVG/1.1/DTD/svg11.dtd">
<!-- Generated by graphviz version 8.0.5 (0)
 -->
<!-- Pages: 1 -->
<svg width="787pt" height="548pt"
 viewBox="0.00 0.00 787.12 548.00" xmlns="http://www.w3.org/2000/svg" xmlns:xlink="http://www.w3.org/1999/xlink">
<g id="graph0" class="graph" transform="scale(1 1) rotate(0) translate(4 544)">
<polygon fill="white" stroke="none" points="-4,4 -4,-544 783.12,-544 783.12,4 -4,4"/>
<!-- c&#45;ast&#45;100 -->
<g id="node1" class="node">
<title>c&#45;ast&#45;100</title>
<polygon fill="none" stroke="black" points="59.5,-540 0,-540 0,-504 59.5,-504 59.5,-540"/>
<text text-anchor="middle" x="29.75" y="-517.73" font-family="Times,serif" font-size="12.00">c&#45;ast&#45;100</text>
</g>
<!-- c&#45;start&#45;400 -->
<g id="node2" class="node">
<title>c&#45;start&#45;400</title>
<polygon fill="none" stroke="black" points="405.88,-468 339.62,-468 339.62,-432 405.88,-432 405.88,-468"/>
<text text-anchor="middle" x="372.75" y="-445.73" font-family="Times,serif" font-size="12.00">c&#45;start&#45;400</text>
</g>
<!-- c&#45;ast&#45;100&#45;&gt;c&#45;start&#45;400 -->
<g id="edge1" class="edge">
<title>c&#45;ast&#45;100&#45;&gt;c&#45;start&#45;400</title>
<path fill="none" stroke="#f16913" d="M59.72,-507.09C62.73,-505.95 65.78,-504.89 68.75,-504 159.08,-476.87 268.93,-461.99 328.74,-455.34"/>
<polygon fill="#f16913" stroke="#f16913" points="328.75,-458.75 338.31,-454.19 327.99,-451.79 328.75,-458.75"/>
</g>
<!-- c&#45;df&#45;global&#45;200 -->
<g id="node3" class="node">
<title>c&#45;df&#45;global&#45;200</title>
<polygon fill="none" stroke="black" points="417.5,-396 328,-396 328,-360 417.5,-360 417.5,-396"/>
<text text-anchor="middle" x="372.75" y="-373.73" font-family="Times,serif" font-size="12.00">c&#45;df&#45;global&#45;200</text>
</g>
<!-- c&#45;start&#45;400&#45;&gt;c&#45;df&#45;global&#45;200 -->
<g id="edge2" class="edge">
<title>c&#45;start&#45;400&#45;&gt;c&#45;df&#45;global&#45;200</title>
<path fill="none" stroke="#f16913" d="M372.75,-431.7C372.75,-424.24 372.75,-415.32 372.75,-406.97"/>
<polygon fill="#f16913" stroke="#f16913" points="376.25,-407.1 372.75,-397.1 369.25,-407.1 376.25,-407.1"/>
</g>
<!-- ql&#45;modules&#45;200 -->
<g id="node11" class="node">
<title>ql&#45;modules&#45;200</title>
<polygon fill="none" stroke="black" points="417.88,-324 327.62,-324 327.62,-288 417.88,-288 417.88,-324"/>
<text text-anchor="middle" x="372.75" y="-301.73" font-family="Times,serif" font-size="12.00">ql&#45;modules&#45;200</text>
</g>
<!-- c&#45;df&#45;global&#45;200&#45;&gt;ql&#45;modules&#45;200 -->
<g id="edge10" class="edge">
<title>c&#45;df&#45;global&#45;200&#45;&gt;ql&#45;modules&#45;200</title>
<path fill="none" stroke="#f16913" d="M372.75,-359.7C372.75,-352.24 372.75,-343.32 372.75,-334.97"/>
<polygon fill="#f16913" stroke="#f16913" points="376.25,-335.1 372.75,-325.1 369.25,-335.1 376.25,-335.1"/>
</g>
<!-- c&#45;df&#45;global&#45;100 -->
<g id="node4" class="node">
<title>c&#45;df&#45;global&#45;100</title>
<polygon fill="none" stroke="black" points="167.5,-540 78,-540 78,-504 167.5,-504 167.5,-540"/>
<text text-anchor="middle" x="122.75" y="-517.73" font-family="Times,serif" font-size="12.00">c&#45;df&#45;global&#45;100</text>
</g>
<!-- c&#45;df&#45;global&#45;100&#45;&gt;c&#45;start&#45;400 -->
<g id="edge3" class="edge">
<title>c&#45;df&#45;global&#45;100&#45;&gt;c&#45;start&#45;400</title>
<path fill="none" stroke="#f16913" d="M167.79,-506.67C170.82,-505.75 173.83,-504.86 176.75,-504 228.82,-488.77 289.11,-472.7 328.93,-462.3"/>
<polygon fill="#f16913" stroke="#f16913" points="329.55,-465.5 338.34,-459.59 327.78,-458.72 329.55,-465.5"/>
</g>
<!-- c&#45;df&#45;local&#45;100 -->
<g id="node5" class="node">
<title>c&#45;df&#45;local&#45;100</title>
<polygon fill="none" stroke="black" points="268.12,-540 185.38,-540 185.38,-504 268.12,-504 268.12,-540"/>
<text text-anchor="middle" x="226.75" y="-517.73" font-family="Times,serif" font-size="12.00">c&#45;df&#45;local&#45;100</text>
</g>
<!-- c&#45;df&#45;local&#45;100&#45;&gt;c&#45;start&#45;400 -->
<g id="edge4" class="edge">
<title>c&#45;df&#45;local&#45;100&#45;&gt;c&#45;start&#45;400</title>
<path fill="none" stroke="#f16913" d="M263.22,-503.52C283.34,-493.87 308.45,-481.83 329.56,-471.71"/>
<polygon fill="#f16913" stroke="#f16913" points="330.74,-474.54 338.25,-467.06 327.72,-468.23 330.74,-474.54"/>
</g>
<!-- ql&#45;casts&#45;100 -->
<g id="node6" class="node">
<title>ql&#45;casts&#45;100</title>
<polygon fill="none" stroke="black" points="359.25,-540 286.25,-540 286.25,-504 359.25,-504 359.25,-540"/>
<text text-anchor="middle" x="322.75" y="-517.73" font-family="Times,serif" font-size="12.00">ql&#45;casts&#45;100</text>
</g>
<!-- ql&#45;casts&#45;100&#45;&gt;c&#45;start&#45;400 -->
<g id="edge5" class="edge">
<title>ql&#45;casts&#45;100&#45;&gt;c&#45;start&#45;400</title>
<path fill="none" stroke="#f16913" d="M335.11,-503.7C340.86,-495.64 347.83,-485.89 354.19,-476.98"/>
<polygon fill="#f16913" stroke="#f16913" points="357.57,-479.28 360.53,-469.1 351.87,-475.21 357.57,-479.28"/>
</g>
<!-- ql&#45;modules&#45;100 -->
<g id="node7" class="node">
<title>ql&#45;modules&#45;100</title>
<polygon fill="none" stroke="black" points="467.88,-540 377.62,-540 377.62,-504 467.88,-504 467.88,-540"/>
<text text-anchor="middle" x="422.75" y="-517.73" font-family="Times,serif" font-size="12.00">ql&#45;modules&#45;100</text>
</g>
<!-- ql&#45;modules&#45;100&#45;&gt;c&#45;start&#45;400 -->
<g id="edge6" class="edge">
<title>ql&#45;modules&#45;100&#45;&gt;c&#45;start&#45;400</title>
<path fill="none" stroke="#f16913" d="M410.39,-503.7C404.64,-495.64 397.67,-485.89 391.31,-476.98"/>
<polygon fill="#f16913" stroke="#f16913" points="393.63,-475.21 384.97,-469.1 387.93,-479.28 393.63,-475.21"/>
</g>
<!-- ql&#45;predicates&#45;100 -->
<g id="node8" class="node">
<title>ql&#45;predicates&#45;100</title>
<polygon fill="none" stroke="black" points="583.62,-540 485.88,-540 485.88,-504 583.62,-504 583.62,-540"/>
<text text-anchor="middle" x="534.75" y="-517.73" font-family="Times,serif" font-size="12.00">ql&#45;predicates&#45;100</text>
</g>
<!-- ql&#45;predicates&#45;100&#45;&gt;c&#45;start&#45;400 -->
<g id="edge7" class="edge">
<title>ql&#45;predicates&#45;100&#45;&gt;c&#45;start&#45;400</title>
<path fill="none" stroke="#f16913" d="M494.29,-503.52C470.51,-493.24 440.45,-480.25 416.17,-469.76"/>
<polygon fill="#f16913" stroke="#f16913" points="417.72,-466.19 407.16,-465.43 414.95,-472.61 417.72,-466.19"/>
</g>
<!-- ql&#45;classes&#45;100 -->
<g id="node9" class="node">
<title>ql&#45;classes&#45;100</title>
<polygon fill="none" stroke="black" points="684.12,-540 601.38,-540 601.38,-504 684.12,-504 684.12,-540"/>
<text text-anchor="middle" x="642.75" y="-517.73" font-family="Times,serif" font-size="12.00">ql&#45;classes&#45;100</text>
</g>
<!-- ql&#45;classes&#45;100&#45;&gt;c&#45;start&#45;400 -->
<g id="edge8" class="edge">
<title>ql&#45;classes&#45;100&#45;&gt;c&#45;start&#45;400</title>
<path fill="none" stroke="#f16913" d="M601.1,-506.52C598.28,-505.64 595.48,-504.79 592.75,-504 532.27,-486.47 461.28,-470.12 416.65,-460.34"/>
<polygon fill="#f16913" stroke="#f16913" points="417.69,-456.76 407.17,-458.05 416.2,-463.6 417.69,-456.76"/>
</g>
<!-- ql&#45;exists&#45;100 -->
<g id="node10" class="node">
<title>ql&#45;exists&#45;100</title>
<polygon fill="none" stroke="black" points="779.12,-540 702.38,-540 702.38,-504 779.12,-504 779.12,-540"/>
<text text-anchor="middle" x="740.75" y="-517.73" font-family="Times,serif" font-size="12.00">ql&#45;exists&#45;100</text>
</g>
<!-- ql&#45;exists&#45;100&#45;&gt;c&#45;start&#45;400 -->
<g id="edge9" class="edge">
<title>ql&#45;exists&#45;100&#45;&gt;c&#45;start&#45;400</title>
<path fill="none" stroke="#f16913" d="M701.9,-506.59C698.82,-505.65 695.75,-504.77 692.75,-504 595.78,-479.01 479.13,-463.16 416.92,-455.82"/>
<polygon fill="#f16913" stroke="#f16913" points="417.66,-452.26 407.32,-454.59 416.85,-459.22 417.66,-452.26"/>
</g>
<!-- ql&#45;star&#45;200 -->
<g id="node12" class="node">
<title>ql&#45;star&#45;200</title>
<polygon fill="none" stroke="black" points="406.25,-252 339.25,-252 339.25,-216 406.25,-216 406.25,-252"/>
<text text-anchor="middle" x="372.75" y="-229.72" font-family="Times,serif" font-size="12.00">ql&#45;star&#45;200</text>
</g>
<!-- ql&#45;modules&#45;200&#45;&gt;ql&#45;star&#45;200 -->
<g id="edge11" class="edge">
<title>ql&#45;modules&#45;200&#45;&gt;ql&#45;star&#45;200</title>
<path fill="none" stroke="#f16913" d="M372.75,-287.7C372.75,-280.24 372.75,-271.32 372.75,-262.97"/>
<polygon fill="#f16913" stroke="#f16913" points="376.25,-263.1 372.75,-253.1 369.25,-263.1 376.25,-263.1"/>
</g>
<!-- ql&#45;plus&#45;200 -->
<g id="node13" class="node">
<title>ql&#45;plus&#45;200</title>
<polygon fill="none" stroke="black" points="407.75,-180 337.75,-180 337.75,-144 407.75,-144 407.75,-180"/>
<text text-anchor="middle" x="372.75" y="-157.72" font-family="Times,serif" font-size="12.00">ql&#45;plus&#45;200</text>
</g>
<!-- ql&#45;star&#45;200&#45;&gt;ql&#45;plus&#45;200 -->
<g id="edge12" class="edge">
<title>ql&#45;star&#45;200&#45;&gt;ql&#45;plus&#45;200</title>
<path fill="none" stroke="#f16913" d="M372.75,-215.7C372.75,-208.24 372.75,-199.32 372.75,-190.97"/>
<polygon fill="#f16913" stroke="#f16913" points="376.25,-191.1 372.75,-181.1 369.25,-191.1 376.25,-191.1"/>
</g>
<!-- c&#45;guards&#45;290 -->
<g id="node14" class="node">
<title>c&#45;guards&#45;290</title>
<polygon fill="none" stroke="black" points="411.88,-108 333.62,-108 333.62,-72 411.88,-72 411.88,-108"/>
<text text-anchor="middle" x="372.75" y="-85.72" font-family="Times,serif" font-size="12.00">c&#45;guards&#45;290</text>
</g>
<!-- ql&#45;plus&#45;200&#45;&gt;c&#45;guards&#45;290 -->
<g id="edge13" class="edge">
<title>ql&#45;plus&#45;200&#45;&gt;c&#45;guards&#45;290</title>
<path fill="none" stroke="#f16913" d="M372.75,-143.7C372.75,-136.24 372.75,-127.32 372.75,-118.97"/>
<polygon fill="#f16913" stroke="#f16913" points="376.25,-119.1 372.75,-109.1 369.25,-119.1 376.25,-119.1"/>
</g>
<!-- c&#45;goal&#45;400 -->
<g id="node15" class="node">
<title>c&#45;goal&#45;400</title>
<polygon fill="none" stroke="black" points="406.25,-36 339.25,-36 339.25,0 406.25,0 406.25,-36"/>
<text text-anchor="middle" x="372.75" y="-13.72" font-family="Times,serif" font-size="12.00">c&#45;goal&#45;400</text>
</g>
<!-- c&#45;guards&#45;290&#45;&gt;c&#45;goal&#45;400 -->
<g id="edge14" class="edge">
<title>c&#45;guards&#45;290&#45;&gt;c&#45;goal&#45;400</title>
<path fill="none" stroke="#f16913" d="M372.75,-71.7C372.75,-64.24 372.75,-55.32 372.75,-46.97"/>
<polygon fill="#f16913" stroke="#f16913" points="376.25,-47.1 372.75,-37.1 369.25,-47.1 376.25,-47.1"/>
</g>
</g>
</svg>
