<?xml version="1.0" encoding="UTF-8" standalone="no"?>
<!DOCTYPE svg PUBLIC "-//W3C//DTD SVG 1.1//EN"
 "http://www.w3.org/Graphics/SVG/1.1/DTD/svg11.dtd">
<!-- Generated by graphviz version 8.0.5 (0)
 -->
<!-- Pages: 1 -->
<svg width="787pt" height="260pt"
 viewBox="0.00 0.00 787.12 260.00" xmlns="http://www.w3.org/2000/svg" xmlns:xlink="http://www.w3.org/1999/xlink">
<g id="graph0" class="graph" transform="scale(1 1) rotate(0) translate(4 256)">
<polygon fill="white" stroke="none" points="-4,4 -4,-256 783.12,-256 783.12,4 -4,4"/>
<!-- c&#45;ast&#45;100 -->
<g id="node1" class="node">
<title>c&#45;ast&#45;100</title>
<polygon fill="none" stroke="black" points="59.5,-252 0,-252 0,-216 59.5,-216 59.5,-252"/>
<text text-anchor="middle" x="29.75" y="-229.72" font-family="Times,serif" font-size="12.00">c&#45;ast&#45;100</text>
</g>
<!-- c&#45;start&#45;400 -->
<g id="node2" class="node">
<title>c&#45;start&#45;400</title>
<polygon fill="none" stroke="black" points="405.88,-180 339.62,-180 339.62,-144 405.88,-144 405.88,-180"/>
<text text-anchor="middle" x="372.75" y="-157.72" font-family="Times,serif" font-size="12.00">c&#45;start&#45;400</text>
</g>
<!-- c&#45;ast&#45;100&#45;&gt;c&#45;start&#45;400 -->
<g id="edge1" class="edge">
<title>c&#45;ast&#45;100&#45;&gt;c&#45;start&#45;400</title>
<path fill="none" stroke="#fdae6b" d="M59.72,-219.09C62.73,-217.95 65.78,-216.89 68.75,-216 159.08,-188.87 268.93,-173.99 328.74,-167.34"/>
<polygon fill="#fdae6b" stroke="#fdae6b" points="328.75,-170.75 338.31,-166.19 327.99,-163.79 328.75,-170.75"/>
</g>
<!-- c&#45;df&#45;global&#45;200 -->
<g id="node3" class="node">
<title>c&#45;df&#45;global&#45;200</title>
<polygon fill="none" stroke="black" points="212.5,-108 123,-108 123,-72 212.5,-72 212.5,-108"/>
<text text-anchor="middle" x="167.75" y="-85.72" font-family="Times,serif" font-size="12.00">c&#45;df&#45;global&#45;200</text>
</g>
<!-- c&#45;start&#45;400&#45;&gt;c&#45;df&#45;global&#45;200 -->
<g id="edge2" class="edge">
<title>c&#45;start&#45;400&#45;&gt;c&#45;df&#45;global&#45;200</title>
<path fill="none" stroke="#fdae6b" d="M339.36,-149.6C307.83,-138.83 259.98,-122.49 222.81,-109.8"/>
<polygon fill="#fdae6b" stroke="#fdae6b" points="224.22,-106.24 213.63,-106.32 221.96,-112.87 224.22,-106.24"/>
</g>
<!-- ql&#45;modules&#45;200 -->
<g id="node4" class="node">
<title>ql&#45;modules&#45;200</title>
<polygon fill="none" stroke="black" points="320.88,-108 230.62,-108 230.62,-72 320.88,-72 320.88,-108"/>
<text text-anchor="middle" x="275.75" y="-85.72" font-family="Times,serif" font-size="12.00">ql&#45;modules&#45;200</text>
</g>
<!-- c&#45;start&#45;400&#45;&gt;ql&#45;modules&#45;200 -->
<g id="edge3" class="edge">
<title>c&#45;start&#45;400&#45;&gt;ql&#45;modules&#45;200</title>
<path fill="none" stroke="#fdae6b" d="M348.77,-143.7C336.65,-134.95 321.75,-124.19 308.58,-114.69"/>
<polygon fill="#fdae6b" stroke="#fdae6b" points="310.95,-111.36 300.79,-108.35 306.85,-117.04 310.95,-111.36"/>
</g>
<!-- ql&#45;star&#45;200 -->
<g id="node5" class="node">
<title>ql&#45;star&#45;200</title>
<polygon fill="none" stroke="black" points="406.25,-108 339.25,-108 339.25,-72 406.25,-72 406.25,-108"/>
<text text-anchor="middle" x="372.75" y="-85.72" font-family="Times,serif" font-size="12.00">ql&#45;star&#45;200</text>
</g>
<!-- c&#45;start&#45;400&#45;&gt;ql&#45;star&#45;200 -->
<g id="edge4" class="edge">
<title>c&#45;start&#45;400&#45;&gt;ql&#45;star&#45;200</title>
<path fill="none" stroke="#fdae6b" d="M372.75,-143.7C372.75,-136.24 372.75,-127.32 372.75,-118.97"/>
<polygon fill="#fdae6b" stroke="#fdae6b" points="376.25,-119.1 372.75,-109.1 369.25,-119.1 376.25,-119.1"/>
</g>
<!-- ql&#45;plus&#45;200 -->
<g id="node6" class="node">
<title>ql&#45;plus&#45;200</title>
<polygon fill="none" stroke="black" points="494.75,-108 424.75,-108 424.75,-72 494.75,-72 494.75,-108"/>
<text text-anchor="middle" x="459.75" y="-85.72" font-family="Times,serif" font-size="12.00">ql&#45;plus&#45;200</text>
</g>
<!-- c&#45;start&#45;400&#45;&gt;ql&#45;plus&#45;200 -->
<g id="edge5" class="edge">
<title>c&#45;start&#45;400&#45;&gt;ql&#45;plus&#45;200</title>
<path fill="none" stroke="#fdae6b" d="M394.26,-143.7C404.92,-135.11 417.98,-124.61 429.63,-115.24"/>
<polygon fill="#fdae6b" stroke="#fdae6b" points="431.59,-117.34 437.19,-108.35 427.2,-111.89 431.59,-117.34"/>
</g>
<!-- c&#45;guards&#45;290 -->
<g id="node7" class="node">
<title>c&#45;guards&#45;290</title>
<polygon fill="none" stroke="black" points="590.88,-108 512.62,-108 512.62,-72 590.88,-72 590.88,-108"/>
<text text-anchor="middle" x="551.75" y="-85.72" font-family="Times,serif" font-size="12.00">c&#45;guards&#45;290</text>
</g>
<!-- c&#45;start&#45;400&#45;&gt;c&#45;guards&#45;290 -->
<g id="edge6" class="edge">
<title>c&#45;start&#45;400&#45;&gt;c&#45;guards&#45;290</title>
<path fill="none" stroke="#fdae6b" d="M406,-148C433.07,-137.41 471.68,-122.31 502.36,-110.31"/>
<polygon fill="#fdae6b" stroke="#fdae6b" points="503.4,-113.28 511.44,-106.37 500.85,-106.76 503.4,-113.28"/>
</g>
<!-- c&#45;goal&#45;400 -->
<g id="node15" class="node">
<title>c&#45;goal&#45;400</title>
<polygon fill="none" stroke="black" points="406.25,-36 339.25,-36 339.25,0 406.25,0 406.25,-36"/>
<text text-anchor="middle" x="372.75" y="-13.72" font-family="Times,serif" font-size="12.00">c&#45;goal&#45;400</text>
</g>
<!-- c&#45;df&#45;global&#45;200&#45;&gt;c&#45;goal&#45;400 -->
<g id="edge14" class="edge">
<title>c&#45;df&#45;global&#45;200&#45;&gt;c&#45;goal&#45;400</title>
<path fill="none" stroke="#fdae6b" d="M212.99,-73.55C247.4,-61.8 294.48,-45.73 328.61,-34.07"/>
<polygon fill="#fdae6b" stroke="#fdae6b" points="329.43,-37.15 337.76,-30.61 327.17,-30.52 329.43,-37.15"/>
</g>
<!-- ql&#45;modules&#45;200&#45;&gt;c&#45;goal&#45;400 -->
<g id="edge15" class="edge">
<title>ql&#45;modules&#45;200&#45;&gt;c&#45;goal&#45;400</title>
<path fill="none" stroke="#fdae6b" d="M299.73,-71.7C311.85,-62.95 326.75,-52.19 339.92,-42.69"/>
<polygon fill="#fdae6b" stroke="#fdae6b" points="341.65,-45.04 347.71,-36.35 337.55,-39.36 341.65,-45.04"/>
</g>
<!-- ql&#45;star&#45;200&#45;&gt;c&#45;goal&#45;400 -->
<g id="edge16" class="edge">
<title>ql&#45;star&#45;200&#45;&gt;c&#45;goal&#45;400</title>
<path fill="none" stroke="#fdae6b" d="M372.75,-71.7C372.75,-64.24 372.75,-55.32 372.75,-46.97"/>
<polygon fill="#fdae6b" stroke="#fdae6b" points="376.25,-47.1 372.75,-37.1 369.25,-47.1 376.25,-47.1"/>
</g>
<!-- ql&#45;plus&#45;200&#45;&gt;c&#45;goal&#45;400 -->
<g id="edge17" class="edge">
<title>ql&#45;plus&#45;200&#45;&gt;c&#45;goal&#45;400</title>
<path fill="none" stroke="#fdae6b" d="M438.24,-71.7C427.58,-63.11 414.52,-52.61 402.87,-43.24"/>
<polygon fill="#fdae6b" stroke="#fdae6b" points="405.3,-39.89 395.31,-36.35 400.91,-45.34 405.3,-39.89"/>
</g>
<!-- c&#45;guards&#45;290&#45;&gt;c&#45;goal&#45;400 -->
<g id="edge18" class="edge">
<title>c&#45;guards&#45;290&#45;&gt;c&#45;goal&#45;400</title>
<path fill="none" stroke="#fdae6b" d="M512.47,-73.64C484.11,-62.55 445.82,-47.57 416.49,-36.1"/>
<polygon fill="#fdae6b" stroke="#fdae6b" points="418.11,-32.59 407.52,-32.21 415.56,-39.11 418.11,-32.59"/>
</g>
<!-- c&#45;df&#45;global&#45;100 -->
<g id="node8" class="node">
<title>c&#45;df&#45;global&#45;100</title>
<polygon fill="none" stroke="black" points="167.5,-252 78,-252 78,-216 167.5,-216 167.5,-252"/>
<text text-anchor="middle" x="122.75" y="-229.72" font-family="Times,serif" font-size="12.00">c&#45;df&#45;global&#45;100</text>
</g>
<!-- c&#45;df&#45;global&#45;100&#45;&gt;c&#45;start&#45;400 -->
<g id="edge7" class="edge">
<title>c&#45;df&#45;global&#45;100&#45;&gt;c&#45;start&#45;400</title>
<path fill="none" stroke="#fdae6b" d="M167.79,-218.67C170.82,-217.75 173.83,-216.86 176.75,-216 228.82,-200.77 289.11,-184.7 328.93,-174.3"/>
<polygon fill="#fdae6b" stroke="#fdae6b" points="329.55,-177.5 338.34,-171.59 327.78,-170.72 329.55,-177.5"/>
</g>
<!-- c&#45;df&#45;local&#45;100 -->
<g id="node9" class="node">
<title>c&#45;df&#45;local&#45;100</title>
<polygon fill="none" stroke="black" points="268.12,-252 185.38,-252 185.38,-216 268.12,-216 268.12,-252"/>
<text text-anchor="middle" x="226.75" y="-229.72" font-family="Times,serif" font-size="12.00">c&#45;df&#45;local&#45;100</text>
</g>
<!-- c&#45;df&#45;local&#45;100&#45;&gt;c&#45;start&#45;400 -->
<g id="edge8" class="edge">
<title>c&#45;df&#45;local&#45;100&#45;&gt;c&#45;start&#45;400</title>
<path fill="none" stroke="#fdae6b" d="M263.22,-215.52C283.34,-205.87 308.45,-193.83 329.56,-183.71"/>
<polygon fill="#fdae6b" stroke="#fdae6b" points="330.74,-186.54 338.25,-179.06 327.72,-180.23 330.74,-186.54"/>
</g>
<!-- ql&#45;casts&#45;100 -->
<g id="node10" class="node">
<title>ql&#45;casts&#45;100</title>
<polygon fill="none" stroke="black" points="359.25,-252 286.25,-252 286.25,-216 359.25,-216 359.25,-252"/>
<text text-anchor="middle" x="322.75" y="-229.72" font-family="Times,serif" font-size="12.00">ql&#45;casts&#45;100</text>
</g>
<!-- ql&#45;casts&#45;100&#45;&gt;c&#45;start&#45;400 -->
<g id="edge9" class="edge">
<title>ql&#45;casts&#45;100&#45;&gt;c&#45;start&#45;400</title>
<path fill="none" stroke="#fdae6b" d="M335.11,-215.7C340.86,-207.64 347.83,-197.89 354.19,-188.98"/>
<polygon fill="#fdae6b" stroke="#fdae6b" points="357.57,-191.28 360.53,-181.1 351.87,-187.21 357.57,-191.28"/>
</g>
<!-- ql&#45;modules&#45;100 -->
<g id="node11" class="node">
<title>ql&#45;modules&#45;100</title>
<polygon fill="none" stroke="black" points="467.88,-252 377.62,-252 377.62,-216 467.88,-216 467.88,-252"/>
<text text-anchor="middle" x="422.75" y="-229.72" font-family="Times,serif" font-size="12.00">ql&#45;modules&#45;100</text>
</g>
<!-- ql&#45;modules&#45;100&#45;&gt;c&#45;start&#45;400 -->
<g id="edge10" class="edge">
<title>ql&#45;modules&#45;100&#45;&gt;c&#45;start&#45;400</title>
<path fill="none" stroke="#fdae6b" d="M410.39,-215.7C404.64,-207.64 397.67,-197.89 391.31,-188.98"/>
<polygon fill="#fdae6b" stroke="#fdae6b" points="393.63,-187.21 384.97,-181.1 387.93,-191.28 393.63,-187.21"/>
</g>
<!-- ql&#45;predicates&#45;100 -->
<g id="node12" class="node">
<title>ql&#45;predicates&#45;100</title>
<polygon fill="none" stroke="black" points="583.62,-252 485.88,-252 485.88,-216 583.62,-216 583.62,-252"/>
<text text-anchor="middle" x="534.75" y="-229.72" font-family="Times,serif" font-size="12.00">ql&#45;predicates&#45;100</text>
</g>
<!-- ql&#45;predicates&#45;100&#45;&gt;c&#45;start&#45;400 -->
<g id="edge11" class="edge">
<title>ql&#45;predicates&#45;100&#45;&gt;c&#45;start&#45;400</title>
<path fill="none" stroke="#fdae6b" d="M494.29,-215.52C470.51,-205.24 440.45,-192.25 416.17,-181.76"/>
<polygon fill="#fdae6b" stroke="#fdae6b" points="417.72,-178.19 407.16,-177.43 414.95,-184.61 417.72,-178.19"/>
</g>
<!-- ql&#45;classes&#45;100 -->
<g id="node13" class="node">
<title>ql&#45;classes&#45;100</title>
<polygon fill="none" stroke="black" points="684.12,-252 601.38,-252 601.38,-216 684.12,-216 684.12,-252"/>
<text text-anchor="middle" x="642.75" y="-229.72" font-family="Times,serif" font-size="12.00">ql&#45;classes&#45;100</text>
</g>
<!-- ql&#45;classes&#45;100&#45;&gt;c&#45;start&#45;400 -->
<g id="edge12" class="edge">
<title>ql&#45;classes&#45;100&#45;&gt;c&#45;start&#45;400</title>
<path fill="none" stroke="#fdae6b" d="M601.1,-218.52C598.28,-217.64 595.48,-216.79 592.75,-216 532.27,-198.47 461.28,-182.12 416.65,-172.34"/>
<polygon fill="#fdae6b" stroke="#fdae6b" points="417.69,-168.76 407.17,-170.05 416.2,-175.6 417.69,-168.76"/>
</g>
<!-- ql&#45;exists&#45;100 -->
<g id="node14" class="node">
<title>ql&#45;exists&#45;100</title>
<polygon fill="none" stroke="black" points="779.12,-252 702.38,-252 702.38,-216 779.12,-216 779.12,-252"/>
<text text-anchor="middle" x="740.75" y="-229.72" font-family="Times,serif" font-size="12.00">ql&#45;exists&#45;100</text>
</g>
<!-- ql&#45;exists&#45;100&#45;&gt;c&#45;start&#45;400 -->
<g id="edge13" class="edge">
<title>ql&#45;exists&#45;100&#45;&gt;c&#45;start&#45;400</title>
<path fill="none" stroke="#fdae6b" d="M701.9,-218.59C698.82,-217.65 695.75,-216.77 692.75,-216 595.78,-191.01 479.13,-175.16 416.92,-167.82"/>
<polygon fill="#fdae6b" stroke="#fdae6b" points="417.66,-164.26 407.32,-166.59 416.85,-171.22 417.66,-164.26"/>
</g>
</g>
</svg>
