<?xml version="1.0" encoding="UTF-8" standalone="no"?>
<!DOCTYPE svg PUBLIC "-//W3C//DTD SVG 1.1//EN"
 "http://www.w3.org/Graphics/SVG/1.1/DTD/svg11.dtd">
<!-- Generated by graphviz version 8.0.5 (0)
 -->
<!-- Pages: 1 -->
<svg width="1209pt" height="188pt"
 viewBox="0.00 0.00 1209.12 188.00" xmlns="http://www.w3.org/2000/svg" xmlns:xlink="http://www.w3.org/1999/xlink">
<g id="graph0" class="graph" transform="scale(1 1) rotate(0) translate(4 184)">
<polygon fill="white" stroke="none" points="-4,4 -4,-184 1205.12,-184 1205.12,4 -4,4"/>
<!-- cp&#45;beginner -->
<g id="node1" class="node">
<title>cp&#45;beginner</title>
<ellipse fill="lightblue" stroke="black" cx="75.12" cy="-162" rx="45.95" ry="18"/>
<text text-anchor="middle" x="75.12" y="-157.72" font-family="Times,serif" font-size="12.00">cp&#45;beginner</text>
</g>
<!-- c&#45;start&#45;100 -->
<g id="node2" class="node">
<title>c&#45;start&#45;100</title>
<polygon fill="none" stroke="black" points="66.25,-108 0,-108 0,-72 66.25,-72 66.25,-108"/>
<text text-anchor="middle" x="33.12" y="-85.72" font-family="Times,serif" font-size="12.00">c&#45;start&#45;100</text>
</g>
<!-- cp&#45;beginner&#45;&gt;c&#45;start&#45;100 -->
<g id="edge1" class="edge">
<title>cp&#45;beginner&#45;&gt;c&#45;start&#45;100</title>
<path fill="none" stroke="black" stroke-width="3" d="M64.96,-144.05C60.64,-136.85 55.47,-128.25 50.58,-120.09"/>
<polygon fill="black" stroke="black" stroke-width="3" points="53.64,-118.05 45.49,-111.28 47.63,-121.65 53.64,-118.05"/>
</g>
<!-- c&#45;start&#45;150 -->
<g id="node3" class="node">
<title>c&#45;start&#45;150</title>
<polygon fill="none" stroke="black" points="150.25,-108 84,-108 84,-72 150.25,-72 150.25,-108"/>
<text text-anchor="middle" x="117.12" y="-85.72" font-family="Times,serif" font-size="12.00">c&#45;start&#45;150</text>
</g>
<!-- cp&#45;beginner&#45;&gt;c&#45;start&#45;150 -->
<g id="edge2" class="edge">
<title>cp&#45;beginner&#45;&gt;c&#45;start&#45;150</title>
<path fill="none" stroke="black" stroke-width="3" d="M85.29,-144.05C89.61,-136.85 94.78,-128.25 99.67,-120.09"/>
<polygon fill="black" stroke="black" stroke-width="3" points="102.62,-121.65 104.76,-111.28 96.61,-118.05 102.62,-121.65"/>
</g>
<!-- cp&#45;ql&#45;customizer -->
<g id="node4" class="node">
<title>cp&#45;ql&#45;customizer</title>
<ellipse fill="lightblue" stroke="black" cx="945.12" cy="-90" rx="60.26" ry="18"/>
<text text-anchor="middle" x="945.12" y="-85.72" font-family="Times,serif" font-size="12.00">cp&#45;ql&#45;customizer</text>
</g>
<!-- cp&#45;ql&#45;writer -->
<g id="node5" class="node">
<title>cp&#45;ql&#45;writer</title>
<ellipse fill="lightblue" stroke="black" cx="581.12" cy="-18" rx="45.48" ry="18"/>
<text text-anchor="middle" x="581.12" y="-13.72" font-family="Times,serif" font-size="12.00">cp&#45;ql&#45;writer</text>
</g>
<!-- cp&#45;ql&#45;customizer&#45;&gt;cp&#45;ql&#45;writer -->
<g id="edge3" class="edge">
<title>cp&#45;ql&#45;customizer&#45;&gt;cp&#45;ql&#45;writer</title>
<path fill="none" stroke="black" stroke-width="3" d="M900.03,-77.63C891.76,-75.66 883.2,-73.71 875.12,-72 792.21,-54.47 695.36,-37.73 636.15,-27.91"/>
<polygon fill="black" stroke="black" stroke-width="3" points="637.1,-23.86 626.66,-25.68 635.96,-30.76 637.1,-23.86"/>
</g>
<!-- c&#45;taint&#45;local&#45;100 -->
<g id="node6" class="node">
<title>c&#45;taint&#45;local&#45;100</title>
<polygon fill="none" stroke="black" points="796.75,-180 703.5,-180 703.5,-144 796.75,-144 796.75,-180"/>
<text text-anchor="middle" x="750.12" y="-157.72" font-family="Times,serif" font-size="12.00">c&#45;taint&#45;local&#45;100</text>
</g>
<!-- c&#45;taint&#45;local&#45;100&#45;&gt;cp&#45;ql&#45;customizer -->
<g id="edge4" class="edge">
<title>c&#45;taint&#45;local&#45;100&#45;&gt;cp&#45;ql&#45;customizer</title>
<path fill="none" stroke="black" stroke-width="3" d="M796.83,-144.23C826.38,-133.63 864.55,-119.92 894.77,-109.08"/>
<polygon fill="black" stroke="black" stroke-width="3" points="895.38,-112.14 903.61,-105.47 893.01,-105.55 895.38,-112.14"/>
</g>
<!-- c&#45;df&#45;local&#45;100 -->
<g id="node7" class="node">
<title>c&#45;df&#45;local&#45;100</title>
<polygon fill="none" stroke="black" points="897.5,-180 814.75,-180 814.75,-144 897.5,-144 897.5,-180"/>
<text text-anchor="middle" x="856.12" y="-157.72" font-family="Times,serif" font-size="12.00">c&#45;df&#45;local&#45;100</text>
</g>
<!-- c&#45;df&#45;local&#45;100&#45;&gt;cp&#45;ql&#45;customizer -->
<g id="edge5" class="edge">
<title>c&#45;df&#45;local&#45;100&#45;&gt;cp&#45;ql&#45;customizer</title>
<path fill="none" stroke="black" stroke-width="3" d="M878.13,-143.7C888.89,-135.23 902.04,-124.89 913.83,-115.61"/>
<polygon fill="black" stroke="black" stroke-width="3" points="915.9,-118.08 921.6,-109.14 911.57,-112.58 915.9,-118.08"/>
</g>
<!-- c&#45;ast&#45;100 -->
<g id="node8" class="node">
<title>c&#45;ast&#45;100</title>
<polygon fill="none" stroke="black" points="974.88,-180 915.38,-180 915.38,-144 974.88,-144 974.88,-180"/>
<text text-anchor="middle" x="945.12" y="-157.72" font-family="Times,serif" font-size="12.00">c&#45;ast&#45;100</text>
</g>
<!-- c&#45;ast&#45;100&#45;&gt;cp&#45;ql&#45;customizer -->
<g id="edge6" class="edge">
<title>c&#45;ast&#45;100&#45;&gt;cp&#45;ql&#45;customizer</title>
<path fill="none" stroke="black" stroke-width="3" d="M945.12,-143.7C945.12,-137.08 945.12,-129.33 945.12,-121.83"/>
<polygon fill="black" stroke="black" stroke-width="3" points="948.63,-122.1 945.12,-112.1 941.63,-122.1 948.63,-122.1"/>
</g>
<!-- c&#45;df&#45;global&#45;100 -->
<g id="node9" class="node">
<title>c&#45;df&#45;global&#45;100</title>
<polygon fill="none" stroke="black" points="1082.88,-180 993.38,-180 993.38,-144 1082.88,-144 1082.88,-180"/>
<text text-anchor="middle" x="1038.12" y="-157.72" font-family="Times,serif" font-size="12.00">c&#45;df&#45;global&#45;100</text>
</g>
<!-- c&#45;df&#45;global&#45;100&#45;&gt;cp&#45;ql&#45;customizer -->
<g id="edge7" class="edge">
<title>c&#45;df&#45;global&#45;100&#45;&gt;cp&#45;ql&#45;customizer</title>
<path fill="none" stroke="black" stroke-width="3" d="M1015.14,-143.7C1003.77,-135.14 989.86,-124.67 977.44,-115.33"/>
<polygon fill="black" stroke="black" stroke-width="3" points="979.67,-112.36 969.57,-109.14 975.46,-117.95 979.67,-112.36"/>
</g>
<!-- c&#45;taint&#45;global&#45;100 -->
<g id="node10" class="node">
<title>c&#45;taint&#45;global&#45;100</title>
<polygon fill="none" stroke="black" points="1201.12,-180 1101.12,-180 1101.12,-144 1201.12,-144 1201.12,-180"/>
<text text-anchor="middle" x="1151.12" y="-157.72" font-family="Times,serif" font-size="12.00">c&#45;taint&#45;global&#45;100</text>
</g>
<!-- c&#45;taint&#45;global&#45;100&#45;&gt;cp&#45;ql&#45;customizer -->
<g id="edge8" class="edge">
<title>c&#45;taint&#45;global&#45;100&#45;&gt;cp&#45;ql&#45;customizer</title>
<path fill="none" stroke="black" stroke-width="3" d="M1100.73,-143.88C1069.15,-133.15 1028.55,-119.35 996.74,-108.54"/>
<polygon fill="black" stroke="black" stroke-width="3" points="998.3,-105.01 987.7,-105.11 996.04,-111.64 998.3,-105.01"/>
</g>
<!-- c&#45;lib&#45;security&#45;100 -->
<g id="node11" class="node">
<title>c&#45;lib&#45;security&#45;100</title>
<polygon fill="none" stroke="black" points="267.75,-108 168.5,-108 168.5,-72 267.75,-72 267.75,-108"/>
<text text-anchor="middle" x="218.12" y="-85.72" font-family="Times,serif" font-size="12.00">c&#45;lib&#45;security&#45;100</text>
</g>
<!-- c&#45;lib&#45;security&#45;100&#45;&gt;cp&#45;ql&#45;writer -->
<g id="edge9" class="edge">
<title>c&#45;lib&#45;security&#45;100&#45;&gt;cp&#45;ql&#45;writer</title>
<path fill="none" stroke="black" stroke-width="3" d="M268.24,-74.16C271.24,-73.4 274.22,-72.67 277.12,-72 362.85,-52.24 463.68,-36.02 524.97,-26.93"/>
<polygon fill="black" stroke="black" stroke-width="3" points="525.16,-29.86 534.54,-24.94 524.14,-22.93 525.16,-29.86"/>
</g>
<!-- c&#45;cfg&#45;100 -->
<g id="node12" class="node">
<title>c&#45;cfg&#45;100</title>
<polygon fill="none" stroke="black" points="348,-108 286.25,-108 286.25,-72 348,-72 348,-108"/>
<text text-anchor="middle" x="317.12" y="-85.72" font-family="Times,serif" font-size="12.00">c&#45;cfg&#45;100</text>
</g>
<!-- c&#45;cfg&#45;100&#45;&gt;cp&#45;ql&#45;writer -->
<g id="edge10" class="edge">
<title>c&#45;cfg&#45;100&#45;&gt;cp&#45;ql&#45;writer</title>
<path fill="none" stroke="black" stroke-width="3" d="M348.38,-75.13C351.31,-74 354.26,-72.94 357.12,-72 414.07,-53.31 481.18,-38.33 527,-29.12"/>
<polygon fill="black" stroke="black" stroke-width="3" points="527.36,-31.83 536.5,-26.46 526.01,-24.96 527.36,-31.83"/>
</g>
<!-- ql&#45;recursion&#45;100 -->
<g id="node13" class="node">
<title>ql&#45;recursion&#45;100</title>
<polygon fill="none" stroke="black" points="460.12,-108 366.12,-108 366.12,-72 460.12,-72 460.12,-108"/>
<text text-anchor="middle" x="413.12" y="-85.72" font-family="Times,serif" font-size="12.00">ql&#45;recursion&#45;100</text>
</g>
<!-- ql&#45;recursion&#45;100&#45;&gt;cp&#45;ql&#45;writer -->
<g id="edge11" class="edge">
<title>ql&#45;recursion&#45;100&#45;&gt;cp&#45;ql&#45;writer</title>
<path fill="none" stroke="black" stroke-width="3" d="M455.09,-71.52C480.33,-61 512.39,-47.64 537.87,-37.02"/>
<polygon fill="black" stroke="black" stroke-width="3" points="538.63,-39.83 546.51,-32.75 535.94,-33.37 538.63,-39.83"/>
</g>
<!-- ql&#45;predicates&#45;100 -->
<g id="node14" class="node">
<title>ql&#45;predicates&#45;100</title>
<polygon fill="none" stroke="black" points="576,-108 478.25,-108 478.25,-72 576,-72 576,-108"/>
<text text-anchor="middle" x="527.12" y="-85.72" font-family="Times,serif" font-size="12.00">ql&#45;predicates&#45;100</text>
</g>
<!-- ql&#45;predicates&#45;100&#45;&gt;cp&#45;ql&#45;writer -->
<g id="edge12" class="edge">
<title>ql&#45;predicates&#45;100&#45;&gt;cp&#45;ql&#45;writer</title>
<path fill="none" stroke="black" stroke-width="3" d="M540.47,-71.7C546.31,-64.13 553.31,-55.06 559.84,-46.59"/>
<polygon fill="black" stroke="black" stroke-width="3" points="562.97,-48.68 566.3,-38.62 557.42,-44.4 562.97,-48.68"/>
</g>
<!-- ql&#45;classes&#45;100 -->
<g id="node15" class="node">
<title>ql&#45;classes&#45;100</title>
<polygon fill="none" stroke="black" points="676.5,-108 593.75,-108 593.75,-72 676.5,-72 676.5,-108"/>
<text text-anchor="middle" x="635.12" y="-85.72" font-family="Times,serif" font-size="12.00">ql&#45;classes&#45;100</text>
</g>
<!-- ql&#45;classes&#45;100&#45;&gt;cp&#45;ql&#45;writer -->
<g id="edge13" class="edge">
<title>ql&#45;classes&#45;100&#45;&gt;cp&#45;ql&#45;writer</title>
<path fill="none" stroke="black" stroke-width="3" d="M621.78,-71.7C615.94,-64.13 608.94,-55.06 602.41,-46.59"/>
<polygon fill="black" stroke="black" stroke-width="3" points="604.83,-44.4 595.95,-38.62 599.28,-48.68 604.83,-44.4"/>
</g>
<!-- ql&#45;exists&#45;100 -->
<g id="node16" class="node">
<title>ql&#45;exists&#45;100</title>
<polygon fill="none" stroke="black" points="771.5,-108 694.75,-108 694.75,-72 771.5,-72 771.5,-108"/>
<text text-anchor="middle" x="733.12" y="-85.72" font-family="Times,serif" font-size="12.00">ql&#45;exists&#45;100</text>
</g>
<!-- ql&#45;exists&#45;100&#45;&gt;cp&#45;ql&#45;writer -->
<g id="edge14" class="edge">
<title>ql&#45;exists&#45;100&#45;&gt;cp&#45;ql&#45;writer</title>
<path fill="none" stroke="black" stroke-width="3" d="M695.16,-71.52C673.11,-61.36 645.3,-48.55 622.67,-38.13"/>
<polygon fill="black" stroke="black" stroke-width="3" points="624.57,-34.31 614.02,-33.31 621.64,-40.67 624.57,-34.31"/>
</g>
<!-- ql&#45;select&#45;100 -->
<g id="node17" class="node">
<title>ql&#45;select&#45;100</title>
<polygon fill="none" stroke="black" points="866.5,-108 789.75,-108 789.75,-72 866.5,-72 866.5,-108"/>
<text text-anchor="middle" x="828.12" y="-85.72" font-family="Times,serif" font-size="12.00">ql&#45;select&#45;100</text>
</g>
<!-- ql&#45;select&#45;100&#45;&gt;cp&#45;ql&#45;writer -->
<g id="edge15" class="edge">
<title>ql&#45;select&#45;100&#45;&gt;cp&#45;ql&#45;writer</title>
<path fill="none" stroke="black" stroke-width="3" d="M789.44,-75C786.3,-73.95 783.17,-72.94 780.12,-72 730.48,-56.62 673.05,-41.62 632.69,-31.53"/>
<polygon fill="black" stroke="black" stroke-width="3" points="633.71,-28.18 623.16,-29.17 632.02,-34.97 633.71,-28.18"/>
</g>
</g>
</svg>
