<?xml version="1.0" encoding="UTF-8" standalone="no"?>
<!DOCTYPE svg PUBLIC "-//W3C//DTD SVG 1.1//EN"
 "http://www.w3.org/Graphics/SVG/1.1/DTD/svg11.dtd">
<!-- Generated by graphviz version 8.0.5 (0)
 -->
<!-- Pages: 1 -->
<svg width="210pt" height="116pt"
 viewBox="0.00 0.00 209.91 116.00" xmlns="http://www.w3.org/2000/svg" xmlns:xlink="http://www.w3.org/1999/xlink">
<g id="graph0" class="graph" transform="scale(1 1) rotate(0) translate(4 112)">
<polygon fill="white" stroke="none" points="-4,4 -4,-112 205.91,-112 205.91,4 -4,4"/>
<!-- all&#45;beginner -->
<g id="node1" class="node">
<title>all&#45;beginner</title>
<ellipse fill="none" stroke="lightblue" cx="45.95" cy="-90" rx="45.95" ry="18"/>
<text text-anchor="middle" x="45.95" y="-85.72" font-family="Times,serif" font-size="12.00">all&#45;beginner</text>
</g>
<!-- c&#45;start&#45;100 -->
<g id="node2" class="node">
<title>c&#45;start&#45;100</title>
<polygon fill="none" stroke="black" points="92.08,-36 25.83,-36 25.83,0 92.08,0 92.08,-36"/>
<text text-anchor="middle" x="58.95" y="-13.72" font-family="Times,serif" font-size="12.00">c&#45;start&#45;100</text>
</g>
<!-- all&#45;beginner&#45;&gt;c&#45;start&#45;100 -->
<g id="edge1" class="edge">
<title>all&#45;beginner&#45;&gt;c&#45;start&#45;100</title>
<path fill="none" stroke="black" stroke-width="3" d="M49.17,-71.7C50.39,-65.08 51.83,-57.33 53.23,-49.83"/>
<polygon fill="black" stroke="black" stroke-width="3" points="57.39,-50.58 55.78,-40.1 50.51,-49.3 57.39,-50.58"/>
</g>
<!-- c&#45;start&#45;150 -->
<g id="node3" class="node">
<title>c&#45;start&#45;150</title>
<polygon fill="none" stroke="black" points="182.08,-36 115.83,-36 115.83,0 182.08,0 182.08,-36"/>
<text text-anchor="middle" x="148.95" y="-13.72" font-family="Times,serif" font-size="12.00">c&#45;start&#45;150</text>
</g>
<!-- all&#45;beginner&#45;&gt;c&#45;start&#45;150 -->
<g id="edge2" class="edge">
<title>all&#45;beginner&#45;&gt;c&#45;start&#45;150</title>
<path fill="none" stroke="black" stroke-width="3" d="M68.3,-73.81C81.09,-65.12 97.46,-53.99 112.11,-44.04"/>
<polygon fill="black" stroke="black" stroke-width="3" points="114.08,-46.89 120.38,-38.38 110.14,-41.1 114.08,-46.89"/>
</g>
<!-- cp&#45;beginner -->
<g id="node4" class="node">
<title>cp&#45;beginner</title>
<ellipse fill="none" stroke="lightblue" cx="155.95" cy="-90" rx="45.95" ry="18"/>
<text text-anchor="middle" x="155.95" y="-85.72" font-family="Times,serif" font-size="12.00">cp&#45;beginner</text>
</g>
<!-- cp&#45;beginner&#45;&gt;c&#45;start&#45;100 -->
<g id="edge3" class="edge">
<title>cp&#45;beginner&#45;&gt;c&#45;start&#45;100</title>
<path fill="none" stroke="black" stroke-width="3" d="M134.91,-73.81C122.98,-65.2 107.75,-54.21 94.06,-44.34"/>
<polygon fill="black" stroke="black" stroke-width="3" points="96.19,-41.39 86.03,-38.38 92.09,-47.07 96.19,-41.39"/>
</g>
<!-- cp&#45;beginner&#45;&gt;c&#45;start&#45;150 -->
<g id="edge4" class="edge">
<title>cp&#45;beginner&#45;&gt;c&#45;start&#45;150</title>
<path fill="none" stroke="black" stroke-width="3" d="M154.22,-71.7C153.56,-65.08 152.79,-57.33 152.04,-49.83"/>
<polygon fill="black" stroke="black" stroke-width="3" points="155.14,-49.71 150.66,-40.1 148.18,-50.4 155.14,-49.71"/>
</g>
</g>
</svg>
