<?xml version="1.0" encoding="UTF-8" standalone="no"?>
<!DOCTYPE svg PUBLIC "-//W3C//DTD SVG 1.1//EN"
 "http://www.w3.org/Graphics/SVG/1.1/DTD/svg11.dtd">
<!-- Generated by graphviz version 8.0.5 (0)
 -->
<!-- Pages: 1 -->
<svg width="1224pt" height="260pt"
 viewBox="0.00 0.00 1223.75 260.00" xmlns="http://www.w3.org/2000/svg" xmlns:xlink="http://www.w3.org/1999/xlink">
<g id="graph0" class="graph" transform="scale(1 1) rotate(0) translate(4 256)">
<polygon fill="white" stroke="none" points="-4,4 -4,-256 1219.75,-256 1219.75,4 -4,4"/>
<!-- cp&#45;beginner -->
<g id="node1" class="node">
<title>cp&#45;beginner</title>
<ellipse fill="lightblue" stroke="black" cx="75.12" cy="-234" rx="45.95" ry="18"/>
<text text-anchor="middle" x="75.12" y="-229.72" font-family="Times,serif" font-size="12.00">cp&#45;beginner</text>
</g>
<!-- c&#45;start&#45;100 -->
<g id="node2" class="node">
<title>c&#45;start&#45;100</title>
<polygon fill="none" stroke="black" points="66.25,-180 0,-180 0,-144 66.25,-144 66.25,-180"/>
<text text-anchor="middle" x="33.12" y="-157.72" font-family="Times,serif" font-size="12.00">c&#45;start&#45;100</text>
</g>
<!-- cp&#45;beginner&#45;&gt;c&#45;start&#45;100 -->
<g id="edge1" class="edge">
<title>cp&#45;beginner&#45;&gt;c&#45;start&#45;100</title>
<path fill="none" stroke="black" stroke-width="3" d="M64.96,-216.05C60.64,-208.85 55.47,-200.25 50.58,-192.09"/>
<polygon fill="black" stroke="black" stroke-width="3" points="53.64,-190.05 45.49,-183.28 47.63,-193.65 53.64,-190.05"/>
</g>
<!-- c&#45;start&#45;150 -->
<g id="node3" class="node">
<title>c&#45;start&#45;150</title>
<polygon fill="none" stroke="black" points="150.25,-180 84,-180 84,-144 150.25,-144 150.25,-180"/>
<text text-anchor="middle" x="117.12" y="-157.72" font-family="Times,serif" font-size="12.00">c&#45;start&#45;150</text>
</g>
<!-- cp&#45;beginner&#45;&gt;c&#45;start&#45;150 -->
<g id="edge2" class="edge">
<title>cp&#45;beginner&#45;&gt;c&#45;start&#45;150</title>
<path fill="none" stroke="black" stroke-width="3" d="M85.29,-216.05C89.61,-208.85 94.78,-200.25 99.67,-192.09"/>
<polygon fill="black" stroke="black" stroke-width="3" points="102.62,-193.65 104.76,-183.28 96.61,-190.05 102.62,-193.65"/>
</g>
<!-- cp&#45;ql&#45;customizer -->
<g id="node4" class="node">
<title>cp&#45;ql&#45;customizer</title>
<ellipse fill="lightblue" stroke="black" cx="827.12" cy="-162" rx="60.26" ry="18"/>
<text text-anchor="middle" x="827.12" y="-157.72" font-family="Times,serif" font-size="12.00">cp&#45;ql&#45;customizer</text>
</g>
<!-- cp&#45;ql&#45;writer&#45;100 -->
<g id="node5" class="node">
<title>cp&#45;ql&#45;writer&#45;100</title>
<ellipse fill="lightblue" stroke="black" cx="517.12" cy="-90" rx="59.31" ry="18"/>
<text text-anchor="middle" x="517.12" y="-85.72" font-family="Times,serif" font-size="12.00">cp&#45;ql&#45;writer&#45;100</text>
</g>
<!-- cp&#45;ql&#45;customizer&#45;&gt;cp&#45;ql&#45;writer&#45;100 -->
<g id="edge3" class="edge">
<title>cp&#45;ql&#45;customizer&#45;&gt;cp&#45;ql&#45;writer&#45;100</title>
<path fill="none" stroke="#807dba" stroke-width="3" d="M781.6,-149.8C773.45,-147.84 765.04,-145.84 757.12,-144 696.27,-129.89 626.53,-114.59 577.97,-104.07"/>
<polygon fill="#807dba" stroke="#807dba" stroke-width="3" points="579.06,-99.86 568.55,-101.17 577.58,-106.7 579.06,-99.86"/>
</g>
<!-- cp&#45;ql&#45;writer&#45;200 -->
<g id="node13" class="node">
<title>cp&#45;ql&#45;writer&#45;200</title>
<ellipse fill="lightblue" stroke="black" cx="354.12" cy="-18" rx="59.31" ry="18"/>
<text text-anchor="middle" x="354.12" y="-13.72" font-family="Times,serif" font-size="12.00">cp&#45;ql&#45;writer&#45;200</text>
</g>
<!-- cp&#45;ql&#45;writer&#45;100&#45;&gt;cp&#45;ql&#45;writer&#45;200 -->
<g id="edge11" class="edge">
<title>cp&#45;ql&#45;writer&#45;100&#45;&gt;cp&#45;ql&#45;writer&#45;200</title>
<path fill="none" stroke="#54278f" stroke-width="3" d="M483.75,-74.67C459.57,-64.28 426.6,-50.12 399.96,-38.68"/>
<polygon fill="#54278f" stroke="#54278f" stroke-width="3" points="402.03,-35.05 391.46,-34.32 399.27,-41.48 402.03,-35.05"/>
</g>
<!-- c&#45;taint&#45;local&#45;100 -->
<g id="node6" class="node">
<title>c&#45;taint&#45;local&#45;100</title>
<polygon fill="none" stroke="black" points="585.75,-252 492.5,-252 492.5,-216 585.75,-216 585.75,-252"/>
<text text-anchor="middle" x="539.12" y="-229.72" font-family="Times,serif" font-size="12.00">c&#45;taint&#45;local&#45;100</text>
</g>
<!-- c&#45;taint&#45;local&#45;100&#45;&gt;cp&#45;ql&#45;customizer -->
<g id="edge4" class="edge">
<title>c&#45;taint&#45;local&#45;100&#45;&gt;cp&#45;ql&#45;customizer</title>
<path fill="none" stroke="#bcbddc" stroke-width="3" d="M586.1,-218.46C589.15,-217.6 592.18,-216.77 595.12,-216 666.46,-197.27 685.29,-196.7 757.12,-180 760.71,-179.17 764.4,-178.3 768.12,-177.42"/>
<polygon fill="#bcbddc" stroke="#bcbddc" stroke-width="3" points="768.68,-180.92 777.59,-175.19 767.05,-174.12 768.68,-180.92"/>
</g>
<!-- c&#45;df&#45;local&#45;100 -->
<g id="node7" class="node">
<title>c&#45;df&#45;local&#45;100</title>
<polygon fill="none" stroke="black" points="686.5,-252 603.75,-252 603.75,-216 686.5,-216 686.5,-252"/>
<text text-anchor="middle" x="645.12" y="-229.72" font-family="Times,serif" font-size="12.00">c&#45;df&#45;local&#45;100</text>
</g>
<!-- c&#45;df&#45;local&#45;100&#45;&gt;cp&#45;ql&#45;customizer -->
<g id="edge5" class="edge">
<title>c&#45;df&#45;local&#45;100&#45;&gt;cp&#45;ql&#45;customizer</title>
<path fill="none" stroke="#bcbddc" stroke-width="3" d="M686.88,-216.94C714.06,-206.49 749.63,-192.81 778.14,-181.84"/>
<polygon fill="#bcbddc" stroke="#bcbddc" stroke-width="3" points="779.02,-184.71 787.1,-177.86 776.51,-178.18 779.02,-184.71"/>
</g>
<!-- c&#45;ast&#45;100 -->
<g id="node8" class="node">
<title>c&#45;ast&#45;100</title>
<polygon fill="none" stroke="black" points="763.88,-252 704.38,-252 704.38,-216 763.88,-216 763.88,-252"/>
<text text-anchor="middle" x="734.12" y="-229.72" font-family="Times,serif" font-size="12.00">c&#45;ast&#45;100</text>
</g>
<!-- c&#45;ast&#45;100&#45;&gt;cp&#45;ql&#45;customizer -->
<g id="edge6" class="edge">
<title>c&#45;ast&#45;100&#45;&gt;cp&#45;ql&#45;customizer</title>
<path fill="none" stroke="#bcbddc" stroke-width="3" d="M757.11,-215.7C768.48,-207.14 782.39,-196.67 794.81,-187.33"/>
<polygon fill="#bcbddc" stroke="#bcbddc" stroke-width="3" points="796.79,-189.95 802.68,-181.14 792.58,-184.36 796.79,-189.95"/>
</g>
<!-- c&#45;df&#45;global&#45;100 -->
<g id="node9" class="node">
<title>c&#45;df&#45;global&#45;100</title>
<polygon fill="none" stroke="black" points="871.88,-252 782.38,-252 782.38,-216 871.88,-216 871.88,-252"/>
<text text-anchor="middle" x="827.12" y="-229.72" font-family="Times,serif" font-size="12.00">c&#45;df&#45;global&#45;100</text>
</g>
<!-- c&#45;df&#45;global&#45;100&#45;&gt;cp&#45;ql&#45;customizer -->
<g id="edge7" class="edge">
<title>c&#45;df&#45;global&#45;100&#45;&gt;cp&#45;ql&#45;customizer</title>
<path fill="none" stroke="#bcbddc" stroke-width="3" d="M827.12,-215.7C827.12,-209.08 827.12,-201.33 827.12,-193.83"/>
<polygon fill="#bcbddc" stroke="#bcbddc" stroke-width="3" points="830.63,-194.1 827.12,-184.1 823.63,-194.1 830.63,-194.1"/>
</g>
<!-- c&#45;taint&#45;global&#45;100 -->
<g id="node10" class="node">
<title>c&#45;taint&#45;global&#45;100</title>
<polygon fill="none" stroke="black" points="990.12,-252 890.12,-252 890.12,-216 990.12,-216 990.12,-252"/>
<text text-anchor="middle" x="940.12" y="-229.72" font-family="Times,serif" font-size="12.00">c&#45;taint&#45;global&#45;100</text>
</g>
<!-- c&#45;taint&#45;global&#45;100&#45;&gt;cp&#45;ql&#45;customizer -->
<g id="edge8" class="edge">
<title>c&#45;taint&#45;global&#45;100&#45;&gt;cp&#45;ql&#45;customizer</title>
<path fill="none" stroke="#bcbddc" stroke-width="3" d="M911.9,-215.52C897.46,-206.57 879.69,-195.57 864.16,-185.95"/>
<polygon fill="#bcbddc" stroke="#bcbddc" stroke-width="3" points="865.64,-182.88 855.3,-180.59 861.95,-188.83 865.64,-182.88"/>
</g>
<!-- ql&#45;modules&#45;100 -->
<g id="node11" class="node">
<title>ql&#45;modules&#45;100</title>
<polygon fill="none" stroke="black" points="1098.25,-252 1008,-252 1008,-216 1098.25,-216 1098.25,-252"/>
<text text-anchor="middle" x="1053.12" y="-229.72" font-family="Times,serif" font-size="12.00">ql&#45;modules&#45;100</text>
</g>
<!-- ql&#45;modules&#45;100&#45;&gt;cp&#45;ql&#45;customizer -->
<g id="edge9" class="edge">
<title>ql&#45;modules&#45;100&#45;&gt;cp&#45;ql&#45;customizer</title>
<path fill="none" stroke="#bcbddc" stroke-width="3" d="M1007.76,-218.7C1004.84,-217.78 1001.94,-216.88 999.12,-216 959.79,-203.75 915.36,-190.06 881.5,-179.66"/>
<polygon fill="#bcbddc" stroke="#bcbddc" stroke-width="3" points="882.74,-176.15 872.15,-176.57 880.69,-182.85 882.74,-176.15"/>
</g>
<!-- c&#45;lib&#45;security&#45;100 -->
<g id="node12" class="node">
<title>c&#45;lib&#45;security&#45;100</title>
<polygon fill="none" stroke="black" points="1215.75,-252 1116.5,-252 1116.5,-216 1215.75,-216 1215.75,-252"/>
<text text-anchor="middle" x="1166.12" y="-229.72" font-family="Times,serif" font-size="12.00">c&#45;lib&#45;security&#45;100</text>
</g>
<!-- c&#45;lib&#45;security&#45;100&#45;&gt;cp&#45;ql&#45;customizer -->
<g id="edge10" class="edge">
<title>c&#45;lib&#45;security&#45;100&#45;&gt;cp&#45;ql&#45;customizer</title>
<path fill="none" stroke="#bcbddc" stroke-width="3" d="M1116.32,-218.29C1113.22,-217.49 1110.13,-216.72 1107.12,-216 1034.32,-198.66 949.78,-183.31 892.81,-173.65"/>
<polygon fill="#bcbddc" stroke="#bcbddc" stroke-width="3" points="893.74,-169.58 883.3,-171.37 892.58,-176.48 893.74,-169.58"/>
</g>
<!-- c&#45;cfg&#45;100 -->
<g id="node14" class="node">
<title>c&#45;cfg&#45;100</title>
<polygon fill="none" stroke="black" points="230,-180 168.25,-180 168.25,-144 230,-144 230,-180"/>
<text text-anchor="middle" x="199.12" y="-157.72" font-family="Times,serif" font-size="12.00">c&#45;cfg&#45;100</text>
</g>
<!-- c&#45;cfg&#45;100&#45;&gt;cp&#45;ql&#45;writer&#45;100 -->
<g id="edge12" class="edge">
<title>c&#45;cfg&#45;100&#45;&gt;cp&#45;ql&#45;writer&#45;100</title>
<path fill="none" stroke="#807dba" stroke-width="3" d="M230.32,-146.94C233.26,-145.85 236.23,-144.85 239.12,-144 329.55,-117.39 355.86,-127.29 448.12,-108 451.92,-107.21 455.82,-106.35 459.74,-105.46"/>
<polygon fill="#807dba" stroke="#807dba" stroke-width="3" points="460.12,-109.04 469.06,-103.35 458.53,-102.22 460.12,-109.04"/>
</g>
<!-- ql&#45;recursion&#45;100 -->
<g id="node15" class="node">
<title>ql&#45;recursion&#45;100</title>
<polygon fill="none" stroke="black" points="342.12,-180 248.12,-180 248.12,-144 342.12,-144 342.12,-180"/>
<text text-anchor="middle" x="295.12" y="-157.72" font-family="Times,serif" font-size="12.00">ql&#45;recursion&#45;100</text>
</g>
<!-- ql&#45;recursion&#45;100&#45;&gt;cp&#45;ql&#45;writer&#45;100 -->
<g id="edge13" class="edge">
<title>ql&#45;recursion&#45;100&#45;&gt;cp&#45;ql&#45;writer&#45;100</title>
<path fill="none" stroke="#807dba" stroke-width="3" d="M342.48,-146.07C378.09,-134.84 426.9,-119.45 463.87,-107.79"/>
<polygon fill="#807dba" stroke="#807dba" stroke-width="3" points="464.42,-111.03 472.91,-104.68 462.32,-104.35 464.42,-111.03"/>
</g>
<!-- ql&#45;predicates&#45;100 -->
<g id="node16" class="node">
<title>ql&#45;predicates&#45;100</title>
<polygon fill="none" stroke="black" points="458,-180 360.25,-180 360.25,-144 458,-144 458,-180"/>
<text text-anchor="middle" x="409.12" y="-157.72" font-family="Times,serif" font-size="12.00">ql&#45;predicates&#45;100</text>
</g>
<!-- ql&#45;predicates&#45;100&#45;&gt;cp&#45;ql&#45;writer&#45;100 -->
<g id="edge14" class="edge">
<title>ql&#45;predicates&#45;100&#45;&gt;cp&#45;ql&#45;writer&#45;100</title>
<path fill="none" stroke="#807dba" stroke-width="3" d="M436.1,-143.52C449.67,-134.72 466.31,-123.94 480.97,-114.44"/>
<polygon fill="#807dba" stroke="#807dba" stroke-width="3" points="483.22,-117.2 489.71,-108.83 479.41,-111.33 483.22,-117.2"/>
</g>
<!-- ql&#45;classes&#45;100 -->
<g id="node17" class="node">
<title>ql&#45;classes&#45;100</title>
<polygon fill="none" stroke="black" points="558.5,-180 475.75,-180 475.75,-144 558.5,-144 558.5,-180"/>
<text text-anchor="middle" x="517.12" y="-157.72" font-family="Times,serif" font-size="12.00">ql&#45;classes&#45;100</text>
</g>
<!-- ql&#45;classes&#45;100&#45;&gt;cp&#45;ql&#45;writer&#45;100 -->
<g id="edge15" class="edge">
<title>ql&#45;classes&#45;100&#45;&gt;cp&#45;ql&#45;writer&#45;100</title>
<path fill="none" stroke="#807dba" stroke-width="3" d="M517.12,-143.7C517.12,-137.08 517.12,-129.33 517.12,-121.83"/>
<polygon fill="#807dba" stroke="#807dba" stroke-width="3" points="520.63,-122.1 517.12,-112.1 513.63,-122.1 520.63,-122.1"/>
</g>
<!-- ql&#45;exists&#45;100 -->
<g id="node18" class="node">
<title>ql&#45;exists&#45;100</title>
<polygon fill="none" stroke="black" points="653.5,-180 576.75,-180 576.75,-144 653.5,-144 653.5,-180"/>
<text text-anchor="middle" x="615.12" y="-157.72" font-family="Times,serif" font-size="12.00">ql&#45;exists&#45;100</text>
</g>
<!-- ql&#45;exists&#45;100&#45;&gt;cp&#45;ql&#45;writer&#45;100 -->
<g id="edge16" class="edge">
<title>ql&#45;exists&#45;100&#45;&gt;cp&#45;ql&#45;writer&#45;100</title>
<path fill="none" stroke="#807dba" stroke-width="3" d="M590.65,-143.52C578.55,-134.87 563.75,-124.31 550.62,-114.93"/>
<polygon fill="#807dba" stroke="#807dba" stroke-width="3" points="552.79,-112.03 542.61,-109.06 548.72,-117.72 552.79,-112.03"/>
</g>
<!-- ql&#45;select&#45;100 -->
<g id="node19" class="node">
<title>ql&#45;select&#45;100</title>
<polygon fill="none" stroke="black" points="748.5,-180 671.75,-180 671.75,-144 748.5,-144 748.5,-180"/>
<text text-anchor="middle" x="710.12" y="-157.72" font-family="Times,serif" font-size="12.00">ql&#45;select&#45;100</text>
</g>
<!-- ql&#45;select&#45;100&#45;&gt;cp&#45;ql&#45;writer&#45;100 -->
<g id="edge17" class="edge">
<title>ql&#45;select&#45;100&#45;&gt;cp&#45;ql&#45;writer&#45;100</title>
<path fill="none" stroke="#807dba" stroke-width="3" d="M671.53,-147C641.46,-136.1 599.49,-120.87 566.9,-109.05"/>
<polygon fill="#807dba" stroke="#807dba" stroke-width="3" points="568.61,-105.5 558.01,-105.38 566.22,-112.08 568.61,-105.5"/>
</g>
<!-- ql&#45;choices&#45;100 -->
<g id="node20" class="node">
<title>ql&#45;choices&#45;100</title>
<polygon fill="none" stroke="black" points="234,-108 148.25,-108 148.25,-72 234,-72 234,-108"/>
<text text-anchor="middle" x="191.12" y="-85.72" font-family="Times,serif" font-size="12.00">ql&#45;choices&#45;100</text>
</g>
<!-- ql&#45;choices&#45;100&#45;&gt;cp&#45;ql&#45;writer&#45;200 -->
<g id="edge18" class="edge">
<title>ql&#45;choices&#45;100&#45;&gt;cp&#45;ql&#45;writer&#45;200</title>
<path fill="none" stroke="#54278f" stroke-width="3" d="M231.84,-71.52C254.99,-61.57 284.06,-49.09 308.05,-38.79"/>
<polygon fill="#54278f" stroke="#54278f" stroke-width="3" points="308.97,-41.48 316.78,-34.32 306.21,-35.05 308.97,-41.48"/>
</g>
<!-- ql&#45;dominators&#45;100 -->
<g id="node21" class="node">
<title>ql&#45;dominators&#45;100</title>
<polygon fill="none" stroke="black" points="354.62,-108 251.62,-108 251.62,-72 354.62,-72 354.62,-108"/>
<text text-anchor="middle" x="303.12" y="-85.72" font-family="Times,serif" font-size="12.00">ql&#45;dominators&#45;100</text>
</g>
<!-- ql&#45;dominators&#45;100&#45;&gt;cp&#45;ql&#45;writer&#45;200 -->
<g id="edge19" class="edge">
<title>ql&#45;dominators&#45;100&#45;&gt;cp&#45;ql&#45;writer&#45;200</title>
<path fill="none" stroke="#54278f" stroke-width="3" d="M315.73,-71.7C321.19,-64.21 327.71,-55.26 333.81,-46.88"/>
<polygon fill="#54278f" stroke="#54278f" stroke-width="3" points="336.95,-48.77 340.01,-38.62 331.3,-44.64 336.95,-48.77"/>
</g>
<!-- c&#45;goal&#45;400 -->
<g id="node22" class="node">
<title>c&#45;goal&#45;400</title>
<polygon fill="none" stroke="black" points="439.62,-108 372.62,-108 372.62,-72 439.62,-72 439.62,-108"/>
<text text-anchor="middle" x="406.12" y="-85.72" font-family="Times,serif" font-size="12.00">c&#45;goal&#45;400</text>
</g>
<!-- c&#45;goal&#45;400&#45;&gt;cp&#45;ql&#45;writer&#45;200 -->
<g id="edge20" class="edge">
<title>c&#45;goal&#45;400&#45;&gt;cp&#45;ql&#45;writer&#45;200</title>
<path fill="none" stroke="#54278f" stroke-width="3" d="M393.27,-71.7C387.65,-64.13 380.91,-55.06 374.62,-46.59"/>
<polygon fill="#54278f" stroke="#54278f" stroke-width="3" points="377.25,-44.56 368.47,-38.62 371.63,-48.74 377.25,-44.56"/>
</g>
</g>
</svg>
