<?xml version="1.0" encoding="UTF-8" standalone="no"?>
<?xml-stylesheet href="graphstyle.css" type="text/css"?>
<!DOCTYPE svg PUBLIC "-//W3C//DTD SVG 1.1//EN"
 "http://www.w3.org/Graphics/SVG/1.1/DTD/svg11.dtd">
<!-- Generated by graphviz version 8.0.5 (0)
 -->
<!-- Pages: 1 -->
<svg width="652pt" height="188pt"
 viewBox="0.00 0.00 652.12 188.00" xmlns="http://www.w3.org/2000/svg" xmlns:xlink="http://www.w3.org/1999/xlink">
<g id="graph0" class="graph" transform="scale(1 1) rotate(0) translate(4 184)">
<polygon fill="white" stroke="none" points="-4,4 -4,-184 648.12,-184 648.12,4 -4,4"/>
<!-- c&#45;start&#45;100 -->
<g id="node1" class="node">
<title>c&#45;start&#45;100</title>
<polygon fill="none" stroke="black" points="351.88,-180 285.62,-180 285.62,-144 351.88,-144 351.88,-180"/>
<text text-anchor="middle" x="318.75" y="-157.72" font-family="Times,serif" font-size="12.00">c&#45;start&#45;100</text>
</g>
<!-- c&#45;ast&#45;100 -->
<g id="node2" class="node">
<title>c&#45;ast&#45;100</title>
<polygon fill="none" stroke="black" points="59.5,-108 0,-108 0,-72 59.5,-72 59.5,-108"/>
<text text-anchor="middle" x="29.75" y="-85.72" font-family="Times,serif" font-size="12.00">c&#45;ast&#45;100</text>
</g>
<!-- c&#45;start&#45;100&#45;&gt;c&#45;ast&#45;100 -->
<g id="edge1" class="edge">
<title>c&#45;start&#45;100&#45;&gt;c&#45;ast&#45;100</title>
<path fill="none" stroke="#9ecae1" d="M285.44,-156.14C238.98,-148.89 152.1,-133.61 70.23,-108.12"/>
<polygon fill="#9ecae1" stroke="#9ecae1" points="71.34,-104.49 60.75,-104.79 69.22,-111.16 71.34,-104.49"/>
</g>
<!-- c&#45;df&#45;global&#45;100 -->
<g id="node3" class="node">
<title>c&#45;df&#45;global&#45;100</title>
<polygon fill="none" stroke="black" points="167.5,-108 78,-108 78,-72 167.5,-72 167.5,-108"/>
<text text-anchor="middle" x="122.75" y="-85.72" font-family="Times,serif" font-size="12.00">c&#45;df&#45;global&#45;100</text>
</g>
<!-- c&#45;start&#45;100&#45;&gt;c&#45;df&#45;global&#45;100 -->
<g id="edge2" class="edge">
<title>c&#45;start&#45;100&#45;&gt;c&#45;df&#45;global&#45;100</title>
<path fill="none" stroke="#9ecae1" d="M285.5,-149.13C256.08,-138.62 212.56,-123.07 177.92,-110.7"/>
<polygon fill="#9ecae1" stroke="#9ecae1" points="179.54,-107.21 168.95,-107.14 177.19,-113.8 179.54,-107.21"/>
</g>
<!-- cli&#45;build&#45;100 -->
<g id="node4" class="node">
<title>cli&#45;build&#45;100</title>
<polygon fill="none" stroke="black" points="262.12,-108 185.38,-108 185.38,-72 262.12,-72 262.12,-108"/>
<text text-anchor="middle" x="223.75" y="-85.72" font-family="Times,serif" font-size="12.00">cli&#45;build&#45;100</text>
</g>
<!-- c&#45;start&#45;100&#45;&gt;cli&#45;build&#45;100 -->
<g id="edge3" class="edge">
<title>c&#45;start&#45;100&#45;&gt;cli&#45;build&#45;100</title>
<path fill="none" stroke="#9ecae1" d="M295.27,-143.7C283.39,-134.95 268.8,-124.19 255.9,-114.69"/>
<polygon fill="#9ecae1" stroke="#9ecae1" points="258.42,-111.46 248.29,-108.35 254.27,-117.1 258.42,-111.46"/>
</g>
<!-- cli&#45;build&#45;300 -->
<g id="node5" class="node">
<title>cli&#45;build&#45;300</title>
<polygon fill="none" stroke="black" points="357.12,-108 280.38,-108 280.38,-72 357.12,-72 357.12,-108"/>
<text text-anchor="middle" x="318.75" y="-85.72" font-family="Times,serif" font-size="12.00">cli&#45;build&#45;300</text>
</g>
<!-- c&#45;start&#45;100&#45;&gt;cli&#45;build&#45;300 -->
<g id="edge4" class="edge">
<title>c&#45;start&#45;100&#45;&gt;cli&#45;build&#45;300</title>
<path fill="none" stroke="#9ecae1" d="M318.75,-143.7C318.75,-136.24 318.75,-127.32 318.75,-118.97"/>
<polygon fill="#9ecae1" stroke="#9ecae1" points="322.25,-119.1 318.75,-109.1 315.25,-119.1 322.25,-119.1"/>
</g>
<!-- cli&#45;sarif&#45;300 -->
<g id="node6" class="node">
<title>cli&#45;sarif&#45;300</title>
<polygon fill="none" stroke="black" points="448.25,-108 375.25,-108 375.25,-72 448.25,-72 448.25,-108"/>
<text text-anchor="middle" x="411.75" y="-85.72" font-family="Times,serif" font-size="12.00">cli&#45;sarif&#45;300</text>
</g>
<!-- c&#45;start&#45;100&#45;&gt;cli&#45;sarif&#45;300 -->
<g id="edge5" class="edge">
<title>c&#45;start&#45;100&#45;&gt;cli&#45;sarif&#45;300</title>
<path fill="none" stroke="#9ecae1" d="M341.74,-143.7C353.36,-134.95 367.65,-124.19 380.28,-114.69"/>
<polygon fill="#9ecae1" stroke="#9ecae1" points="381.82,-117.16 387.7,-108.35 377.61,-111.56 381.82,-117.16"/>
</g>
<!-- ql&#45;classes&#45;100 -->
<g id="node7" class="node">
<title>ql&#45;classes&#45;100</title>
<polygon fill="none" stroke="black" points="549.12,-108 466.38,-108 466.38,-72 549.12,-72 549.12,-108"/>
<text text-anchor="middle" x="507.75" y="-85.72" font-family="Times,serif" font-size="12.00">ql&#45;classes&#45;100</text>
</g>
<!-- c&#45;start&#45;100&#45;&gt;ql&#45;classes&#45;100 -->
<g id="edge6" class="edge">
<title>c&#45;start&#45;100&#45;&gt;ql&#45;classes&#45;100</title>
<path fill="none" stroke="#9ecae1" d="M352.1,-148.65C380.92,-137.98 423.02,-122.38 456.17,-110.1"/>
<polygon fill="#9ecae1" stroke="#9ecae1" points="456.98,-113.16 465.15,-106.41 454.55,-106.6 456.98,-113.16"/>
</g>
<!-- ql&#45;select&#45;100 -->
<g id="node8" class="node">
<title>ql&#45;select&#45;100</title>
<polygon fill="none" stroke="black" points="644.12,-108 567.38,-108 567.38,-72 644.12,-72 644.12,-108"/>
<text text-anchor="middle" x="605.75" y="-85.72" font-family="Times,serif" font-size="12.00">ql&#45;select&#45;100</text>
</g>
<!-- c&#45;start&#45;100&#45;&gt;ql&#45;select&#45;100 -->
<g id="edge7" class="edge">
<title>c&#45;start&#45;100&#45;&gt;ql&#45;select&#45;100</title>
<path fill="none" stroke="#9ecae1" d="M352.32,-154.9C396.87,-146.51 478.07,-130.22 556.56,-108.15"/>
<polygon fill="#9ecae1" stroke="#9ecae1" points="557.45,-111.25 566.11,-105.14 555.53,-104.52 557.45,-111.25"/>
</g>
<!-- c&#45;goal&#45;110 -->
<g id="node9" class="node">
<title>c&#45;goal&#45;110</title>
<polygon fill="none" stroke="black" points="351.88,-36 285.62,-36 285.62,0 351.88,0 351.88,-36"/>
<text text-anchor="middle" x="318.75" y="-13.72" font-family="Times,serif" font-size="12.00">c&#45;goal&#45;110</text>
</g>
<!-- c&#45;ast&#45;100&#45;&gt;c&#45;goal&#45;110 -->
<g id="edge8" class="edge">
<title>c&#45;ast&#45;100&#45;&gt;c&#45;goal&#45;110</title>
<path fill="none" stroke="#9ecae1" d="M59.75,-75.21C62.76,-74.04 65.8,-72.95 68.75,-72 139.26,-49.41 224.08,-33.75 274.59,-25.59"/>
<polygon fill="#9ecae1" stroke="#9ecae1" points="275.11,-28.89 284.44,-23.86 274.01,-21.97 275.11,-28.89"/>
</g>
<!-- c&#45;df&#45;global&#45;100&#45;&gt;c&#45;goal&#45;110 -->
<g id="edge9" class="edge">
<title>c&#45;df&#45;global&#45;100&#45;&gt;c&#45;goal&#45;110</title>
<path fill="none" stroke="#9ecae1" d="M167.72,-72.94C200.04,-61.39 243.39,-45.91 275.35,-34.5"/>
<polygon fill="#9ecae1" stroke="#9ecae1" points="276.06,-37.6 284.3,-30.94 273.71,-31.01 276.06,-37.6"/>
</g>
<!-- cli&#45;build&#45;100&#45;&gt;c&#45;goal&#45;110 -->
<g id="edge10" class="edge">
<title>cli&#45;build&#45;100&#45;&gt;c&#45;goal&#45;110</title>
<path fill="none" stroke="#9ecae1" d="M247.23,-71.7C259.11,-62.95 273.7,-52.19 286.6,-42.69"/>
<polygon fill="#9ecae1" stroke="#9ecae1" points="288.23,-45.1 294.21,-36.35 284.08,-39.46 288.23,-45.1"/>
</g>
<!-- cli&#45;build&#45;300&#45;&gt;c&#45;goal&#45;110 -->
<g id="edge11" class="edge">
<title>cli&#45;build&#45;300&#45;&gt;c&#45;goal&#45;110</title>
<path fill="none" stroke="#9ecae1" d="M318.75,-71.7C318.75,-64.24 318.75,-55.32 318.75,-46.97"/>
<polygon fill="#9ecae1" stroke="#9ecae1" points="322.25,-47.1 318.75,-37.1 315.25,-47.1 322.25,-47.1"/>
</g>
<!-- cli&#45;sarif&#45;300&#45;&gt;c&#45;goal&#45;110 -->
<g id="edge12" class="edge">
<title>cli&#45;sarif&#45;300&#45;&gt;c&#45;goal&#45;110</title>
<path fill="none" stroke="#9ecae1" d="M388.76,-71.7C377.14,-62.95 362.85,-52.19 350.22,-42.69"/>
<polygon fill="#9ecae1" stroke="#9ecae1" points="352.89,-39.56 342.8,-36.35 348.68,-45.16 352.89,-39.56"/>
</g>
<!-- ql&#45;classes&#45;100&#45;&gt;c&#45;goal&#45;110 -->
<g id="edge13" class="edge">
<title>ql&#45;classes&#45;100&#45;&gt;c&#45;goal&#45;110</title>
<path fill="none" stroke="#9ecae1" d="M466.27,-73.64C435.52,-62.25 393.69,-46.76 362.43,-35.18"/>
<polygon fill="#9ecae1" stroke="#9ecae1" points="363.85,-31.6 353.26,-31.41 361.42,-38.17 363.85,-31.6"/>
</g>
<!-- ql&#45;select&#45;100&#45;&gt;c&#45;goal&#45;110 -->
<g id="edge14" class="edge">
<title>ql&#45;select&#45;100&#45;&gt;c&#45;goal&#45;110</title>
<path fill="none" stroke="#9ecae1" d="M567.11,-74.86C563.96,-73.84 560.81,-72.88 557.75,-72 490.66,-52.76 411.31,-36.4 363.02,-27.13"/>
<polygon fill="#9ecae1" stroke="#9ecae1" points="363.8,-23.53 353.32,-25.1 362.49,-30.41 363.8,-23.53"/>
</g>
</g>
</svg>
