<?xml version="1.0" encoding="UTF-8" standalone="no"?>
<!DOCTYPE svg PUBLIC "-//W3C//DTD SVG 1.1//EN"
 "http://www.w3.org/Graphics/SVG/1.1/DTD/svg11.dtd">
<!-- Generated by graphviz version 8.0.5 (0)
 -->
<!-- Pages: 1 -->
<svg width="271pt" height="188pt"
 viewBox="0.00 0.00 270.88 188.00" xmlns="http://www.w3.org/2000/svg" xmlns:xlink="http://www.w3.org/1999/xlink">
<g id="graph0" class="graph" transform="scale(1 1) rotate(0) translate(4 184)">
<polygon fill="white" stroke="none" points="-4,4 -4,-184 266.88,-184 266.88,4 -4,4"/>
<!-- c&#45;start&#45;105 -->
<g id="node1" class="node">
<title>c&#45;start&#45;105</title>
<polygon fill="none" stroke="black" points="166.5,-180 100.25,-180 100.25,-144 166.5,-144 166.5,-180"/>
<text text-anchor="middle" x="133.38" y="-157.72" font-family="Times,serif" font-size="12.00">c&#45;start&#45;105</text>
</g>
<!-- cli&#45;build&#45;100 -->
<g id="node2" class="node">
<title>cli&#45;build&#45;100</title>
<polygon fill="none" stroke="black" points="76.75,-108 0,-108 0,-72 76.75,-72 76.75,-108"/>
<text text-anchor="middle" x="38.38" y="-85.72" font-family="Times,serif" font-size="12.00">cli&#45;build&#45;100</text>
</g>
<!-- c&#45;start&#45;105&#45;&gt;cli&#45;build&#45;100 -->
<g id="edge1" class="edge">
<title>c&#45;start&#45;105&#45;&gt;cli&#45;build&#45;100</title>
<path fill="none" stroke="#4292c6" d="M109.89,-143.7C98.02,-134.95 83.42,-124.19 70.52,-114.69"/>
<polygon fill="#4292c6" stroke="#4292c6" points="73.04,-111.46 62.92,-108.35 68.89,-117.1 73.04,-111.46"/>
</g>
<!-- cli&#45;build&#45;300 -->
<g id="node3" class="node">
<title>cli&#45;build&#45;300</title>
<polygon fill="none" stroke="black" points="171.75,-108 95,-108 95,-72 171.75,-72 171.75,-108"/>
<text text-anchor="middle" x="133.38" y="-85.72" font-family="Times,serif" font-size="12.00">cli&#45;build&#45;300</text>
</g>
<!-- c&#45;start&#45;105&#45;&gt;cli&#45;build&#45;300 -->
<g id="edge2" class="edge">
<title>c&#45;start&#45;105&#45;&gt;cli&#45;build&#45;300</title>
<path fill="none" stroke="#4292c6" d="M133.38,-143.7C133.38,-136.24 133.38,-127.32 133.38,-118.97"/>
<polygon fill="#4292c6" stroke="#4292c6" points="136.88,-119.1 133.38,-109.1 129.88,-119.1 136.88,-119.1"/>
</g>
<!-- cli&#45;sarif&#45;300 -->
<g id="node4" class="node">
<title>cli&#45;sarif&#45;300</title>
<polygon fill="none" stroke="black" points="262.88,-108 189.88,-108 189.88,-72 262.88,-72 262.88,-108"/>
<text text-anchor="middle" x="226.38" y="-85.72" font-family="Times,serif" font-size="12.00">cli&#45;sarif&#45;300</text>
</g>
<!-- c&#45;start&#45;105&#45;&gt;cli&#45;sarif&#45;300 -->
<g id="edge3" class="edge">
<title>c&#45;start&#45;105&#45;&gt;cli&#45;sarif&#45;300</title>
<path fill="none" stroke="#4292c6" d="M156.36,-143.7C167.99,-134.95 182.27,-124.19 194.9,-114.69"/>
<polygon fill="#4292c6" stroke="#4292c6" points="196.44,-117.16 202.33,-108.35 192.23,-111.56 196.44,-117.16"/>
</g>
<!-- c&#45;goal&#45;105 -->
<g id="node5" class="node">
<title>c&#45;goal&#45;105</title>
<polygon fill="none" stroke="black" points="166.88,-36 99.88,-36 99.88,0 166.88,0 166.88,-36"/>
<text text-anchor="middle" x="133.38" y="-13.72" font-family="Times,serif" font-size="12.00">c&#45;goal&#45;105</text>
</g>
<!-- cli&#45;build&#45;100&#45;&gt;c&#45;goal&#45;105 -->
<g id="edge4" class="edge">
<title>cli&#45;build&#45;100&#45;&gt;c&#45;goal&#45;105</title>
<path fill="none" stroke="#4292c6" d="M61.86,-71.7C73.73,-62.95 88.33,-52.19 101.23,-42.69"/>
<polygon fill="#4292c6" stroke="#4292c6" points="102.86,-45.1 108.83,-36.35 98.71,-39.46 102.86,-45.1"/>
</g>
<!-- cli&#45;build&#45;300&#45;&gt;c&#45;goal&#45;105 -->
<g id="edge5" class="edge">
<title>cli&#45;build&#45;300&#45;&gt;c&#45;goal&#45;105</title>
<path fill="none" stroke="#4292c6" d="M133.38,-71.7C133.38,-64.24 133.38,-55.32 133.38,-46.97"/>
<polygon fill="#4292c6" stroke="#4292c6" points="136.88,-47.1 133.38,-37.1 129.88,-47.1 136.88,-47.1"/>
</g>
<!-- cli&#45;sarif&#45;300&#45;&gt;c&#45;goal&#45;105 -->
<g id="edge6" class="edge">
<title>cli&#45;sarif&#45;300&#45;&gt;c&#45;goal&#45;105</title>
<path fill="none" stroke="#4292c6" d="M203.39,-71.7C191.76,-62.95 177.48,-52.19 164.85,-42.69"/>
<polygon fill="#4292c6" stroke="#4292c6" points="167.52,-39.56 157.42,-36.35 163.31,-45.16 167.52,-39.56"/>
</g>
</g>
</svg>
