<?xml version="1.0" encoding="UTF-8" standalone="no"?>
<?xml-stylesheet href="graphstyle.css" type="text/css"?>
<!DOCTYPE svg PUBLIC "-//W3C//DTD SVG 1.1//EN"
 "http://www.w3.org/Graphics/SVG/1.1/DTD/svg11.dtd">
<!-- Generated by graphviz version 8.0.5 (0)
 -->
<!-- Pages: 1 -->
<svg width="862pt" height="188pt"
 viewBox="0.00 0.00 862.12 188.00" xmlns="http://www.w3.org/2000/svg" xmlns:xlink="http://www.w3.org/1999/xlink">
<g id="graph0" class="graph" transform="scale(1 1) rotate(0) translate(4 184)">
<polygon fill="white" stroke="none" points="-4,4 -4,-184 858.12,-184 858.12,4 -4,4"/>
<!-- c&#45;start&#45;100 -->
<g id="node1" class="node">
<title>c&#45;start&#45;100</title>
<polygon fill="none" stroke="black" points="444.88,-180 378.62,-180 378.62,-144 444.88,-144 444.88,-180"/>
<text text-anchor="middle" x="411.75" y="-157.72" font-family="Times,serif" font-size="12.00">c&#45;start&#45;100</text>
</g>
<!-- c&#45;ast&#45;100 -->
<g id="node2" class="node">
<title>c&#45;ast&#45;100</title>
<polygon fill="none" stroke="black" points="59.5,-108 0,-108 0,-72 59.5,-72 59.5,-108"/>
<text text-anchor="middle" x="29.75" y="-85.72" font-family="Times,serif" font-size="12.00">c&#45;ast&#45;100</text>
</g>
<!-- c&#45;start&#45;100&#45;&gt;c&#45;ast&#45;100 -->
<g id="edge1" class="edge">
<title>c&#45;start&#45;100&#45;&gt;c&#45;ast&#45;100</title>
<path fill="none" stroke="#9ecae1" d="M378.51,-158.72C318.28,-153.99 187.27,-140.9 69.92,-107.9"/>
<polygon fill="#9ecae1" stroke="#9ecae1" points="71.28,-104.36 60.7,-104.97 69.34,-111.09 71.28,-104.36"/>
</g>
<!-- c&#45;df&#45;global&#45;100 -->
<g id="node3" class="node">
<title>c&#45;df&#45;global&#45;100</title>
<polygon fill="none" stroke="black" points="167.5,-108 78,-108 78,-72 167.5,-72 167.5,-108"/>
<text text-anchor="middle" x="122.75" y="-85.72" font-family="Times,serif" font-size="12.00">c&#45;df&#45;global&#45;100</text>
</g>
<!-- c&#45;start&#45;100&#45;&gt;c&#45;df&#45;global&#45;100 -->
<g id="edge2" class="edge">
<title>c&#45;start&#45;100&#45;&gt;c&#45;df&#45;global&#45;100</title>
<path fill="none" stroke="#9ecae1" d="M378.46,-154.4C334.69,-145.53 255.23,-128.74 178.12,-108.26"/>
<polygon fill="#9ecae1" stroke="#9ecae1" points="179.31,-104.68 168.75,-105.47 177.5,-111.45 179.31,-104.68"/>
</g>
<!-- cli&#45;build&#45;100 -->
<g id="node4" class="node">
<title>cli&#45;build&#45;100</title>
<polygon fill="none" stroke="black" points="262.12,-108 185.38,-108 185.38,-72 262.12,-72 262.12,-108"/>
<text text-anchor="middle" x="223.75" y="-85.72" font-family="Times,serif" font-size="12.00">cli&#45;build&#45;100</text>
</g>
<!-- c&#45;start&#45;100&#45;&gt;cli&#45;build&#45;100 -->
<g id="edge3" class="edge">
<title>c&#45;start&#45;100&#45;&gt;cli&#45;build&#45;100</title>
<path fill="none" stroke="#9ecae1" d="M378.14,-148.49C348.75,-137.54 305.72,-121.52 272.54,-109.17"/>
<polygon fill="#9ecae1" stroke="#9ecae1" points="274.18,-105.67 263.59,-105.46 271.74,-112.23 274.18,-105.67"/>
</g>
<!-- cli&#45;build&#45;300 -->
<g id="node5" class="node">
<title>cli&#45;build&#45;300</title>
<polygon fill="none" stroke="black" points="357.12,-108 280.38,-108 280.38,-72 357.12,-72 357.12,-108"/>
<text text-anchor="middle" x="318.75" y="-85.72" font-family="Times,serif" font-size="12.00">cli&#45;build&#45;300</text>
</g>
<!-- c&#45;start&#45;100&#45;&gt;cli&#45;build&#45;300 -->
<g id="edge4" class="edge">
<title>c&#45;start&#45;100&#45;&gt;cli&#45;build&#45;300</title>
<path fill="none" stroke="#9ecae1" d="M388.76,-143.7C377.14,-134.95 362.85,-124.19 350.22,-114.69"/>
<polygon fill="#9ecae1" stroke="#9ecae1" points="352.89,-111.56 342.8,-108.35 348.68,-117.16 352.89,-111.56"/>
</g>
<!-- cli&#45;sarif&#45;300 -->
<g id="node6" class="node">
<title>cli&#45;sarif&#45;300</title>
<polygon fill="none" stroke="black" points="448.25,-108 375.25,-108 375.25,-72 448.25,-72 448.25,-108"/>
<text text-anchor="middle" x="411.75" y="-85.72" font-family="Times,serif" font-size="12.00">cli&#45;sarif&#45;300</text>
</g>
<!-- c&#45;start&#45;100&#45;&gt;cli&#45;sarif&#45;300 -->
<g id="edge5" class="edge">
<title>c&#45;start&#45;100&#45;&gt;cli&#45;sarif&#45;300</title>
<path fill="none" stroke="#9ecae1" d="M411.75,-143.7C411.75,-136.24 411.75,-127.32 411.75,-118.97"/>
<polygon fill="#9ecae1" stroke="#9ecae1" points="415.25,-119.1 411.75,-109.1 408.25,-119.1 415.25,-119.1"/>
</g>
<!-- ql&#45;classes&#45;100 -->
<g id="node7" class="node">
<title>ql&#45;classes&#45;100</title>
<polygon fill="none" stroke="black" points="549.12,-108 466.38,-108 466.38,-72 549.12,-72 549.12,-108"/>
<text text-anchor="middle" x="507.75" y="-85.72" font-family="Times,serif" font-size="12.00">ql&#45;classes&#45;100</text>
</g>
<!-- c&#45;start&#45;100&#45;&gt;ql&#45;classes&#45;100 -->
<g id="edge6" class="edge">
<title>c&#45;start&#45;100&#45;&gt;ql&#45;classes&#45;100</title>
<path fill="none" stroke="#9ecae1" d="M435.48,-143.7C447.48,-134.95 462.23,-124.19 475.26,-114.69"/>
<polygon fill="#9ecae1" stroke="#9ecae1" points="476.94,-117.07 482.96,-108.35 472.82,-111.41 476.94,-117.07"/>
</g>
<!-- ql&#45;predicates&#45;100 -->
<g id="node8" class="node">
<title>ql&#45;predicates&#45;100</title>
<polygon fill="none" stroke="black" points="664.62,-108 566.88,-108 566.88,-72 664.62,-72 664.62,-108"/>
<text text-anchor="middle" x="615.75" y="-85.72" font-family="Times,serif" font-size="12.00">ql&#45;predicates&#45;100</text>
</g>
<!-- c&#45;start&#45;100&#45;&gt;ql&#45;predicates&#45;100 -->
<g id="edge7" class="edge">
<title>c&#45;start&#45;100&#45;&gt;ql&#45;predicates&#45;100</title>
<path fill="none" stroke="#9ecae1" d="M444.98,-149.6C475.11,-139.26 520.24,-123.77 556.53,-111.32"/>
<polygon fill="#9ecae1" stroke="#9ecae1" points="557.2,-114.45 565.52,-107.89 554.92,-107.83 557.2,-114.45"/>
</g>
<!-- ql&#45;exists&#45;100 -->
<g id="node9" class="node">
<title>ql&#45;exists&#45;100</title>
<polygon fill="none" stroke="black" points="759.12,-108 682.38,-108 682.38,-72 759.12,-72 759.12,-108"/>
<text text-anchor="middle" x="720.75" y="-85.72" font-family="Times,serif" font-size="12.00">ql&#45;exists&#45;100</text>
</g>
<!-- c&#45;start&#45;100&#45;&gt;ql&#45;exists&#45;100 -->
<g id="edge8" class="edge">
<title>c&#45;start&#45;100&#45;&gt;ql&#45;exists&#45;100</title>
<path fill="none" stroke="#9ecae1" d="M445.21,-155.86C493.43,-148.1 585.33,-132 671.44,-108.46"/>
<polygon fill="#9ecae1" stroke="#9ecae1" points="672.21,-111.6 680.91,-105.55 670.34,-104.85 672.21,-111.6"/>
</g>
<!-- ql&#45;select&#45;100 -->
<g id="node10" class="node">
<title>ql&#45;select&#45;100</title>
<polygon fill="none" stroke="black" points="854.12,-108 777.38,-108 777.38,-72 854.12,-72 854.12,-108"/>
<text text-anchor="middle" x="815.75" y="-85.72" font-family="Times,serif" font-size="12.00">ql&#45;select&#45;100</text>
</g>
<!-- c&#45;start&#45;100&#45;&gt;ql&#45;select&#45;100 -->
<g id="edge9" class="edge">
<title>c&#45;start&#45;100&#45;&gt;ql&#45;select&#45;100</title>
<path fill="none" stroke="#9ecae1" d="M445.05,-158.2C506.81,-152.55 643.3,-137.9 766.55,-108.02"/>
<polygon fill="#9ecae1" stroke="#9ecae1" points="767.04,-111.26 775.91,-105.46 765.36,-104.46 767.04,-111.26"/>
</g>
<!-- c&#45;goal&#45;100 -->
<g id="node11" class="node">
<title>c&#45;goal&#45;100</title>
<polygon fill="none" stroke="black" points="445.25,-36 378.25,-36 378.25,0 445.25,0 445.25,-36"/>
<text text-anchor="middle" x="411.75" y="-13.72" font-family="Times,serif" font-size="12.00">c&#45;goal&#45;100</text>
</g>
<!-- c&#45;ast&#45;100&#45;&gt;c&#45;goal&#45;100 -->
<g id="edge10" class="edge">
<title>c&#45;ast&#45;100&#45;&gt;c&#45;goal&#45;100</title>
<path fill="none" stroke="#9ecae1" d="M59.7,-75.03C62.72,-73.9 65.77,-72.86 68.75,-72 173.24,-41.71 300.96,-27.78 367.16,-22.2"/>
<polygon fill="#9ecae1" stroke="#9ecae1" points="367.34,-25.62 377.02,-21.32 366.77,-18.64 367.34,-25.62"/>
</g>
<!-- c&#45;df&#45;global&#45;100&#45;&gt;c&#45;goal&#45;100 -->
<g id="edge11" class="edge">
<title>c&#45;df&#45;global&#45;100&#45;&gt;c&#45;goal&#45;100</title>
<path fill="none" stroke="#9ecae1" d="M167.75,-74.53C170.79,-73.64 173.81,-72.79 176.75,-72 242.68,-54.22 320.11,-37.56 367.55,-27.82"/>
<polygon fill="#9ecae1" stroke="#9ecae1" points="367.97,-31.11 377.07,-25.68 366.57,-24.25 367.97,-31.11"/>
</g>
<!-- cli&#45;build&#45;100&#45;&gt;c&#45;goal&#45;100 -->
<g id="edge12" class="edge">
<title>cli&#45;build&#45;100&#45;&gt;c&#45;goal&#45;100</title>
<path fill="none" stroke="#9ecae1" d="M262.25,-74.67C292.98,-63.22 336.03,-47.19 368.05,-35.27"/>
<polygon fill="#9ecae1" stroke="#9ecae1" points="368.88,-38.32 377.03,-31.56 366.44,-31.76 368.88,-38.32"/>
</g>
<!-- cli&#45;build&#45;300&#45;&gt;c&#45;goal&#45;100 -->
<g id="edge13" class="edge">
<title>cli&#45;build&#45;300&#45;&gt;c&#45;goal&#45;100</title>
<path fill="none" stroke="#9ecae1" d="M341.74,-71.7C353.36,-62.95 367.65,-52.19 380.28,-42.69"/>
<polygon fill="#9ecae1" stroke="#9ecae1" points="381.82,-45.16 387.7,-36.35 377.61,-39.56 381.82,-45.16"/>
</g>
<!-- cli&#45;sarif&#45;300&#45;&gt;c&#45;goal&#45;100 -->
<g id="edge14" class="edge">
<title>cli&#45;sarif&#45;300&#45;&gt;c&#45;goal&#45;100</title>
<path fill="none" stroke="#9ecae1" d="M411.75,-71.7C411.75,-64.24 411.75,-55.32 411.75,-46.97"/>
<polygon fill="#9ecae1" stroke="#9ecae1" points="415.25,-47.1 411.75,-37.1 408.25,-47.1 415.25,-47.1"/>
</g>
<!-- ql&#45;classes&#45;100&#45;&gt;c&#45;goal&#45;100 -->
<g id="edge15" class="edge">
<title>ql&#45;classes&#45;100&#45;&gt;c&#45;goal&#45;100</title>
<path fill="none" stroke="#9ecae1" d="M484.02,-71.7C472.02,-62.95 457.27,-52.19 444.24,-42.69"/>
<polygon fill="#9ecae1" stroke="#9ecae1" points="446.68,-39.41 436.54,-36.35 442.56,-45.07 446.68,-39.41"/>
</g>
<!-- ql&#45;predicates&#45;100&#45;&gt;c&#45;goal&#45;100 -->
<g id="edge16" class="edge">
<title>ql&#45;predicates&#45;100&#45;&gt;c&#45;goal&#45;100</title>
<path fill="none" stroke="#9ecae1" d="M566.63,-72.14C532.8,-60.54 488.24,-45.25 455.61,-34.05"/>
<polygon fill="#9ecae1" stroke="#9ecae1" points="457.05,-30.5 446.46,-30.57 454.78,-37.12 457.05,-30.5"/>
</g>
<!-- ql&#45;exists&#45;100&#45;&gt;c&#45;goal&#45;100 -->
<g id="edge17" class="edge">
<title>ql&#45;exists&#45;100&#45;&gt;c&#45;goal&#45;100</title>
<path fill="none" stroke="#9ecae1" d="M681.91,-74.45C679.16,-73.58 676.42,-72.75 673.75,-72 598.45,-50.89 508.76,-34.61 456.25,-25.94"/>
<polygon fill="#9ecae1" stroke="#9ecae1" points="457.06,-22.37 446.63,-24.21 455.93,-29.27 457.06,-22.37"/>
</g>
<!-- ql&#45;select&#45;100&#45;&gt;c&#45;goal&#45;100 -->
<g id="edge18" class="edge">
<title>ql&#45;select&#45;100&#45;&gt;c&#45;goal&#45;100</title>
<path fill="none" stroke="#9ecae1" d="M776.91,-74.54C773.83,-73.61 770.75,-72.75 767.75,-72 657.47,-44.53 524.2,-29.34 456.27,-22.85"/>
<polygon fill="#9ecae1" stroke="#9ecae1" points="456.83,-19.29 446.55,-21.84 456.18,-26.26 456.83,-19.29"/>
</g>
</g>
</svg>
