<?xml version="1.0" encoding="UTF-8" standalone="no"?>
<?xml-stylesheet href="graphstyle.css" type="text/css"?>
<!DOCTYPE svg PUBLIC "-//W3C//DTD SVG 1.1//EN"
 "http://www.w3.org/Graphics/SVG/1.1/DTD/svg11.dtd">
<!-- Generated by graphviz version 8.0.5 (0)
 -->
<!-- Pages: 1 -->
<svg width="456pt" height="188pt"
 viewBox="0.00 0.00 456.25 188.00" xmlns="http://www.w3.org/2000/svg" xmlns:xlink="http://www.w3.org/1999/xlink">
<g id="graph0" class="graph" transform="scale(1 1) rotate(0) translate(4 184)">
<polygon fill="white" stroke="none" points="-4,4 -4,-184 452.25,-184 452.25,4 -4,4"/>
<!-- c&#45;start&#45;100 -->
<g id="node1" class="node">
<title>c&#45;start&#45;100</title>
<polygon fill="none" stroke="black" points="256.88,-180 190.62,-180 190.62,-144 256.88,-144 256.88,-180"/>
<text text-anchor="middle" x="223.75" y="-157.72" font-family="Times,serif" font-size="12.00">c&#45;start&#45;100</text>
</g>
<!-- c&#45;ast&#45;100 -->
<g id="node2" class="node">
<title>c&#45;ast&#45;100</title>
<polygon fill="none" stroke="black" points="59.5,-108 0,-108 0,-72 59.5,-72 59.5,-108"/>
<text text-anchor="middle" x="29.75" y="-85.72" font-family="Times,serif" font-size="12.00">c&#45;ast&#45;100</text>
</g>
<!-- c&#45;start&#45;100&#45;&gt;c&#45;ast&#45;100 -->
<g id="edge1" class="edge">
<title>c&#45;start&#45;100&#45;&gt;c&#45;ast&#45;100</title>
<path fill="none" stroke="#9ecae1" d="M190.21,-150.41C160.72,-140.9 116.48,-126.18 69.86,-108.29"/>
<polygon fill="#9ecae1" stroke="#9ecae1" points="71.47,-104.77 60.88,-104.42 68.94,-111.3 71.47,-104.77"/>
</g>
<!-- c&#45;df&#45;global&#45;100 -->
<g id="node3" class="node">
<title>c&#45;df&#45;global&#45;100</title>
<polygon fill="none" stroke="black" points="167.5,-108 78,-108 78,-72 167.5,-72 167.5,-108"/>
<text text-anchor="middle" x="122.75" y="-85.72" font-family="Times,serif" font-size="12.00">c&#45;df&#45;global&#45;100</text>
</g>
<!-- c&#45;start&#45;100&#45;&gt;c&#45;df&#45;global&#45;100 -->
<g id="edge2" class="edge">
<title>c&#45;start&#45;100&#45;&gt;c&#45;df&#45;global&#45;100</title>
<path fill="none" stroke="#9ecae1" d="M198.52,-143.52C185.77,-134.68 170.13,-123.84 156.37,-114.3"/>
<polygon fill="#9ecae1" stroke="#9ecae1" points="158.87,-111.08 148.65,-108.26 154.88,-116.83 158.87,-111.08"/>
</g>
<!-- cli&#45;build&#45;100 -->
<g id="node4" class="node">
<title>cli&#45;build&#45;100</title>
<polygon fill="none" stroke="black" points="262.12,-108 185.38,-108 185.38,-72 262.12,-72 262.12,-108"/>
<text text-anchor="middle" x="223.75" y="-85.72" font-family="Times,serif" font-size="12.00">cli&#45;build&#45;100</text>
</g>
<!-- c&#45;start&#45;100&#45;&gt;cli&#45;build&#45;100 -->
<g id="edge3" class="edge">
<title>c&#45;start&#45;100&#45;&gt;cli&#45;build&#45;100</title>
<path fill="none" stroke="#9ecae1" d="M223.75,-143.7C223.75,-136.24 223.75,-127.32 223.75,-118.97"/>
<polygon fill="#9ecae1" stroke="#9ecae1" points="227.25,-119.1 223.75,-109.1 220.25,-119.1 227.25,-119.1"/>
</g>
<!-- cli&#45;build&#45;300 -->
<g id="node5" class="node">
<title>cli&#45;build&#45;300</title>
<polygon fill="none" stroke="black" points="357.12,-108 280.38,-108 280.38,-72 357.12,-72 357.12,-108"/>
<text text-anchor="middle" x="318.75" y="-85.72" font-family="Times,serif" font-size="12.00">cli&#45;build&#45;300</text>
</g>
<!-- c&#45;start&#45;100&#45;&gt;cli&#45;build&#45;300 -->
<g id="edge4" class="edge">
<title>c&#45;start&#45;100&#45;&gt;cli&#45;build&#45;300</title>
<path fill="none" stroke="#9ecae1" d="M247.23,-143.7C259.11,-134.95 273.7,-124.19 286.6,-114.69"/>
<polygon fill="#9ecae1" stroke="#9ecae1" points="288.23,-117.1 294.21,-108.35 284.08,-111.46 288.23,-117.1"/>
</g>
<!-- cli&#45;sarif&#45;300 -->
<g id="node6" class="node">
<title>cli&#45;sarif&#45;300</title>
<polygon fill="none" stroke="black" points="448.25,-108 375.25,-108 375.25,-72 448.25,-72 448.25,-108"/>
<text text-anchor="middle" x="411.75" y="-85.72" font-family="Times,serif" font-size="12.00">cli&#45;sarif&#45;300</text>
</g>
<!-- c&#45;start&#45;100&#45;&gt;cli&#45;sarif&#45;300 -->
<g id="edge5" class="edge">
<title>c&#45;start&#45;100&#45;&gt;cli&#45;sarif&#45;300</title>
<path fill="none" stroke="#9ecae1" d="M257.36,-148.49C287.32,-137.33 331.47,-120.89 364.89,-108.45"/>
<polygon fill="#9ecae1" stroke="#9ecae1" points="365.74,-111.49 373.89,-104.72 363.3,-104.93 365.74,-111.49"/>
</g>
<!-- c&#45;goal&#45;110 -->
<g id="node7" class="node">
<title>c&#45;goal&#45;110</title>
<polygon fill="none" stroke="black" points="256.88,-36 190.62,-36 190.62,0 256.88,0 256.88,-36"/>
<text text-anchor="middle" x="223.75" y="-13.72" font-family="Times,serif" font-size="12.00">c&#45;goal&#45;110</text>
</g>
<!-- c&#45;ast&#45;100&#45;&gt;c&#45;goal&#45;110 -->
<g id="edge6" class="edge">
<title>c&#45;ast&#45;100&#45;&gt;c&#45;goal&#45;110</title>
<path fill="none" stroke="#9ecae1" d="M59.88,-75.58C62.87,-74.33 65.86,-73.12 68.75,-72 105.91,-57.58 148.84,-43.06 180.08,-32.88"/>
<polygon fill="#9ecae1" stroke="#9ecae1" points="180.77,-36.01 189.21,-29.59 178.61,-29.35 180.77,-36.01"/>
</g>
<!-- c&#45;df&#45;global&#45;100&#45;&gt;c&#45;goal&#45;110 -->
<g id="edge7" class="edge">
<title>c&#45;df&#45;global&#45;100&#45;&gt;c&#45;goal&#45;110</title>
<path fill="none" stroke="#9ecae1" d="M147.98,-71.52C160.73,-62.68 176.37,-51.84 190.13,-42.3"/>
<polygon fill="#9ecae1" stroke="#9ecae1" points="191.62,-44.83 197.85,-36.26 187.63,-39.08 191.62,-44.83"/>
</g>
<!-- cli&#45;build&#45;100&#45;&gt;c&#45;goal&#45;110 -->
<g id="edge8" class="edge">
<title>cli&#45;build&#45;100&#45;&gt;c&#45;goal&#45;110</title>
<path fill="none" stroke="#9ecae1" d="M223.75,-71.7C223.75,-64.24 223.75,-55.32 223.75,-46.97"/>
<polygon fill="#9ecae1" stroke="#9ecae1" points="227.25,-47.1 223.75,-37.1 220.25,-47.1 227.25,-47.1"/>
</g>
<!-- cli&#45;build&#45;300&#45;&gt;c&#45;goal&#45;110 -->
<g id="edge9" class="edge">
<title>cli&#45;build&#45;300&#45;&gt;c&#45;goal&#45;110</title>
<path fill="none" stroke="#9ecae1" d="M295.27,-71.7C283.39,-62.95 268.8,-52.19 255.9,-42.69"/>
<polygon fill="#9ecae1" stroke="#9ecae1" points="258.42,-39.46 248.29,-36.35 254.27,-45.1 258.42,-39.46"/>
</g>
<!-- cli&#45;sarif&#45;300&#45;&gt;c&#45;goal&#45;110 -->
<g id="edge10" class="edge">
<title>cli&#45;sarif&#45;300&#45;&gt;c&#45;goal&#45;110</title>
<path fill="none" stroke="#9ecae1" d="M375.06,-75.34C344.2,-63.85 300.02,-47.4 267.37,-35.24"/>
<polygon fill="#9ecae1" stroke="#9ecae1" points="268.79,-31.66 258.2,-31.45 266.35,-38.22 268.79,-31.66"/>
</g>
</g>
</svg>
