<?xml version="1.0" encoding="UTF-8" standalone="no"?>
<?xml-stylesheet href="graphstyle.css" type="text/css"?>
<!DOCTYPE svg PUBLIC "-//W3C//DTD SVG 1.1//EN"
 "http://www.w3.org/Graphics/SVG/1.1/DTD/svg11.dtd">
<!-- Generated by graphviz version 8.0.5 (0)
 -->
<!-- Pages: 1 -->
<svg width="98pt" height="260pt"
 viewBox="0.00 0.00 97.50 260.00" xmlns="http://www.w3.org/2000/svg" xmlns:xlink="http://www.w3.org/1999/xlink">
<g id="graph0" class="graph" transform="scale(1 1) rotate(0) translate(4 256)">
<polygon fill="white" stroke="none" points="-4,4 -4,-256 93.5,-256 93.5,4 -4,4"/>
<!-- c&#45;start&#45;&#45;100 -->
<g id="node1" class="node">
<title>c&#45;start&#45;&#45;100</title>
<polygon fill="none" stroke="black" points="79.75,-252 9.75,-252 9.75,-216 79.75,-216 79.75,-252"/>
<text text-anchor="middle" x="44.75" y="-229.72" font-family="Times,serif" font-size="12.00">c&#45;start&#45;&#45;100</text>
</g>
<!-- c&#45;ast&#45;100 -->
<g id="node2" class="node">
<title>c&#45;ast&#45;100</title>
<polygon fill="none" stroke="black" points="74.5,-180 15,-180 15,-144 74.5,-144 74.5,-180"/>
<text text-anchor="middle" x="44.75" y="-157.72" font-family="Times,serif" font-size="12.00">c&#45;ast&#45;100</text>
</g>
<!-- c&#45;start&#45;&#45;100&#45;&gt;c&#45;ast&#45;100 -->
<g id="edge1" class="edge">
<title>c&#45;start&#45;&#45;100&#45;&gt;c&#45;ast&#45;100</title>
<path fill="none" stroke="#9ecae1" d="M44.75,-215.7C44.75,-208.24 44.75,-199.32 44.75,-190.97"/>
<polygon fill="#9ecae1" stroke="#9ecae1" points="48.25,-191.1 44.75,-181.1 41.25,-191.1 48.25,-191.1"/>
</g>
<!-- c&#45;df&#45;global&#45;100 -->
<g id="node3" class="node">
<title>c&#45;df&#45;global&#45;100</title>
<polygon fill="none" stroke="black" points="89.5,-108 0,-108 0,-72 89.5,-72 89.5,-108"/>
<text text-anchor="middle" x="44.75" y="-85.72" font-family="Times,serif" font-size="12.00">c&#45;df&#45;global&#45;100</text>
</g>
<!-- c&#45;ast&#45;100&#45;&gt;c&#45;df&#45;global&#45;100 -->
<g id="edge2" class="edge">
<title>c&#45;ast&#45;100&#45;&gt;c&#45;df&#45;global&#45;100</title>
<path fill="none" stroke="#9ecae1" d="M44.75,-143.7C44.75,-136.24 44.75,-127.32 44.75,-118.97"/>
<polygon fill="#9ecae1" stroke="#9ecae1" points="48.25,-119.1 44.75,-109.1 41.25,-119.1 48.25,-119.1"/>
</g>
<!-- c&#45;goal&#45;&#45;110 -->
<g id="node4" class="node">
<title>c&#45;goal&#45;&#45;110</title>
<polygon fill="none" stroke="black" points="79.75,-36 9.75,-36 9.75,0 79.75,0 79.75,-36"/>
<text text-anchor="middle" x="44.75" y="-13.72" font-family="Times,serif" font-size="12.00">c&#45;goal&#45;&#45;110</text>
</g>
<!-- c&#45;df&#45;global&#45;100&#45;&gt;c&#45;goal&#45;&#45;110 -->
<g id="edge3" class="edge">
<title>c&#45;df&#45;global&#45;100&#45;&gt;c&#45;goal&#45;&#45;110</title>
<path fill="none" stroke="#9ecae1" d="M44.75,-71.7C44.75,-64.24 44.75,-55.32 44.75,-46.97"/>
<polygon fill="#9ecae1" stroke="#9ecae1" points="48.25,-47.1 44.75,-37.1 41.25,-47.1 48.25,-47.1"/>
</g>
</g>
</svg>
