<?xml version="1.0" encoding="UTF-8" standalone="no"?>
<?xml-stylesheet href="graphstyle.css" type="text/css"?>
<!DOCTYPE svg PUBLIC "-//W3C//DTD SVG 1.1//EN"
 "http://www.w3.org/Graphics/SVG/1.1/DTD/svg11.dtd">
<!-- Generated by graphviz version 8.0.5 (0)
 -->
<!-- Pages: 1 -->
<svg width="98pt" height="476pt"
 viewBox="0.00 0.00 97.50 476.00" xmlns="http://www.w3.org/2000/svg" xmlns:xlink="http://www.w3.org/1999/xlink">
<g id="graph0" class="graph" transform="scale(1 1) rotate(0) translate(4 472)">
<polygon fill="white" stroke="none" points="-4,4 -4,-472 93.5,-472 93.5,4 -4,4"/>
<!-- c&#45;start&#45;100 -->
<g id="node1" class="node">
<title>c&#45;start&#45;100</title>
<polygon fill="none" stroke="black" points="77.88,-468 11.62,-468 11.62,-432 77.88,-432 77.88,-468"/>
<text text-anchor="middle" x="44.75" y="-445.73" font-family="Times,serif" font-size="12.00">c&#45;start&#45;100</text>
</g>
<!-- c&#45;ast&#45;100 -->
<g id="node2" class="node">
<title>c&#45;ast&#45;100</title>
<polygon fill="none" stroke="black" points="74.5,-396 15,-396 15,-360 74.5,-360 74.5,-396"/>
<text text-anchor="middle" x="44.75" y="-373.73" font-family="Times,serif" font-size="12.00">c&#45;ast&#45;100</text>
</g>
<!-- c&#45;start&#45;100&#45;&gt;c&#45;ast&#45;100 -->
<g id="edge1" class="edge">
<title>c&#45;start&#45;100&#45;&gt;c&#45;ast&#45;100</title>
<path fill="none" stroke="#9ecae1" d="M44.75,-431.7C44.75,-424.24 44.75,-415.32 44.75,-406.97"/>
<polygon fill="#9ecae1" stroke="#9ecae1" points="48.25,-407.1 44.75,-397.1 41.25,-407.1 48.25,-407.1"/>
</g>
<!-- c&#45;df&#45;global&#45;100 -->
<g id="node3" class="node">
<title>c&#45;df&#45;global&#45;100</title>
<polygon fill="none" stroke="black" points="89.5,-324 0,-324 0,-288 89.5,-288 89.5,-324"/>
<text text-anchor="middle" x="44.75" y="-301.73" font-family="Times,serif" font-size="12.00">c&#45;df&#45;global&#45;100</text>
</g>
<!-- c&#45;ast&#45;100&#45;&gt;c&#45;df&#45;global&#45;100 -->
<g id="edge2" class="edge">
<title>c&#45;ast&#45;100&#45;&gt;c&#45;df&#45;global&#45;100</title>
<path fill="none" stroke="#9ecae1" d="M44.75,-359.7C44.75,-352.24 44.75,-343.32 44.75,-334.97"/>
<polygon fill="#9ecae1" stroke="#9ecae1" points="48.25,-335.1 44.75,-325.1 41.25,-335.1 48.25,-335.1"/>
</g>
<!-- cli&#45;build&#45;100 -->
<g id="node4" class="node">
<title>cli&#45;build&#45;100</title>
<polygon fill="none" stroke="black" points="83.12,-252 6.38,-252 6.38,-216 83.12,-216 83.12,-252"/>
<text text-anchor="middle" x="44.75" y="-229.72" font-family="Times,serif" font-size="12.00">cli&#45;build&#45;100</text>
</g>
<!-- c&#45;df&#45;global&#45;100&#45;&gt;cli&#45;build&#45;100 -->
<g id="edge3" class="edge">
<title>c&#45;df&#45;global&#45;100&#45;&gt;cli&#45;build&#45;100</title>
<path fill="none" stroke="#9ecae1" d="M44.75,-287.7C44.75,-280.24 44.75,-271.32 44.75,-262.97"/>
<polygon fill="#9ecae1" stroke="#9ecae1" points="48.25,-263.1 44.75,-253.1 41.25,-263.1 48.25,-263.1"/>
</g>
<!-- cli&#45;build&#45;300 -->
<g id="node5" class="node">
<title>cli&#45;build&#45;300</title>
<polygon fill="none" stroke="black" points="83.12,-180 6.38,-180 6.38,-144 83.12,-144 83.12,-180"/>
<text text-anchor="middle" x="44.75" y="-157.72" font-family="Times,serif" font-size="12.00">cli&#45;build&#45;300</text>
</g>
<!-- cli&#45;build&#45;100&#45;&gt;cli&#45;build&#45;300 -->
<g id="edge4" class="edge">
<title>cli&#45;build&#45;100&#45;&gt;cli&#45;build&#45;300</title>
<path fill="none" stroke="#9ecae1" d="M44.75,-215.7C44.75,-208.24 44.75,-199.32 44.75,-190.97"/>
<polygon fill="#9ecae1" stroke="#9ecae1" points="48.25,-191.1 44.75,-181.1 41.25,-191.1 48.25,-191.1"/>
</g>
<!-- cli&#45;sarif&#45;300 -->
<g id="node6" class="node">
<title>cli&#45;sarif&#45;300</title>
<polygon fill="none" stroke="black" points="81.25,-108 8.25,-108 8.25,-72 81.25,-72 81.25,-108"/>
<text text-anchor="middle" x="44.75" y="-85.72" font-family="Times,serif" font-size="12.00">cli&#45;sarif&#45;300</text>
</g>
<!-- cli&#45;build&#45;300&#45;&gt;cli&#45;sarif&#45;300 -->
<g id="edge5" class="edge">
<title>cli&#45;build&#45;300&#45;&gt;cli&#45;sarif&#45;300</title>
<path fill="none" stroke="#9ecae1" d="M44.75,-143.7C44.75,-136.24 44.75,-127.32 44.75,-118.97"/>
<polygon fill="#9ecae1" stroke="#9ecae1" points="48.25,-119.1 44.75,-109.1 41.25,-119.1 48.25,-119.1"/>
</g>
<!-- c&#45;goal&#45;110 -->
<g id="node7" class="node">
<title>c&#45;goal&#45;110</title>
<polygon fill="none" stroke="black" points="77.88,-36 11.62,-36 11.62,0 77.88,0 77.88,-36"/>
<text text-anchor="middle" x="44.75" y="-13.72" font-family="Times,serif" font-size="12.00">c&#45;goal&#45;110</text>
</g>
<!-- cli&#45;sarif&#45;300&#45;&gt;c&#45;goal&#45;110 -->
<g id="edge6" class="edge">
<title>cli&#45;sarif&#45;300&#45;&gt;c&#45;goal&#45;110</title>
<path fill="none" stroke="#9ecae1" d="M44.75,-71.7C44.75,-64.24 44.75,-55.32 44.75,-46.97"/>
<polygon fill="#9ecae1" stroke="#9ecae1" points="48.25,-47.1 44.75,-37.1 41.25,-47.1 48.25,-47.1"/>
</g>
</g>
</svg>
