<?xml version="1.0" encoding="UTF-8" standalone="no"?>
<?xml-stylesheet href="graphstyle.css" type="text/css"?>
<!DOCTYPE svg PUBLIC "-//W3C//DTD SVG 1.1//EN"
 "http://www.w3.org/Graphics/SVG/1.1/DTD/svg11.dtd">
<!-- Generated by graphviz version 8.0.5 (0)
 -->
<!-- Pages: 1 -->
<svg width="581pt" height="188pt"
 viewBox="0.00 0.00 581.12 188.00" xmlns="http://www.w3.org/2000/svg" xmlns:xlink="http://www.w3.org/1999/xlink">
<g id="graph0" class="graph" transform="scale(1 1) rotate(0) translate(4 184)">
<polygon fill="white" stroke="none" points="-4,4 -4,-184 577.12,-184 577.12,4 -4,4"/>
<!-- c&#45;start&#45;100 -->
<g id="node1" class="node">
<title>c&#45;start&#45;100</title>
<polygon fill="none" stroke="black" points="313.88,-180 247.62,-180 247.62,-144 313.88,-144 313.88,-180"/>
<text text-anchor="middle" x="280.75" y="-157.72" font-family="Times,serif" font-size="12.00">c&#45;start&#45;100</text>
</g>
<!-- c&#45;ast&#45;100 -->
<g id="node2" class="node">
<title>c&#45;ast&#45;100</title>
<polygon fill="none" stroke="black" points="59.5,-108 0,-108 0,-72 59.5,-72 59.5,-108"/>
<text text-anchor="middle" x="29.75" y="-85.72" font-family="Times,serif" font-size="12.00">c&#45;ast&#45;100</text>
</g>
<!-- c&#45;start&#45;100&#45;&gt;c&#45;ast&#45;100 -->
<g id="edge1" class="edge">
<title>c&#45;start&#45;100&#45;&gt;c&#45;ast&#45;100</title>
<path fill="none" stroke="#9ecae1" d="M247.21,-154.42C207.05,-146.15 137.72,-130.63 70.17,-108.19"/>
<polygon fill="#9ecae1" stroke="#9ecae1" points="71.38,-104.57 60.79,-104.68 69.14,-111.2 71.38,-104.57"/>
</g>
<!-- c&#45;df&#45;global&#45;100 -->
<g id="node3" class="node">
<title>c&#45;df&#45;global&#45;100</title>
<polygon fill="none" stroke="black" points="167.5,-108 78,-108 78,-72 167.5,-72 167.5,-108"/>
<text text-anchor="middle" x="122.75" y="-85.72" font-family="Times,serif" font-size="12.00">c&#45;df&#45;global&#45;100</text>
</g>
<!-- c&#45;start&#45;100&#45;&gt;c&#45;df&#45;global&#45;100 -->
<g id="edge2" class="edge">
<title>c&#45;start&#45;100&#45;&gt;c&#45;df&#45;global&#45;100</title>
<path fill="none" stroke="#9ecae1" d="M247.24,-146.15C225.35,-136.45 196.38,-123.62 171.9,-112.78"/>
<polygon fill="#9ecae1" stroke="#9ecae1" points="173.63,-109.27 163.07,-108.42 170.79,-115.67 173.63,-109.27"/>
</g>
<!-- ql&#45;classes&#45;100 -->
<g id="node4" class="node">
<title>ql&#45;classes&#45;100</title>
<polygon fill="none" stroke="black" points="268.12,-108 185.38,-108 185.38,-72 268.12,-72 268.12,-108"/>
<text text-anchor="middle" x="226.75" y="-85.72" font-family="Times,serif" font-size="12.00">ql&#45;classes&#45;100</text>
</g>
<!-- c&#45;start&#45;100&#45;&gt;ql&#45;classes&#45;100 -->
<g id="edge3" class="edge">
<title>c&#45;start&#45;100&#45;&gt;ql&#45;classes&#45;100</title>
<path fill="none" stroke="#9ecae1" d="M267.4,-143.7C261.12,-135.56 253.51,-125.69 246.58,-116.7"/>
<polygon fill="#9ecae1" stroke="#9ecae1" points="248.82,-114.88 239.94,-109.1 243.28,-119.16 248.82,-114.88"/>
</g>
<!-- ql&#45;predicates&#45;100 -->
<g id="node5" class="node">
<title>ql&#45;predicates&#45;100</title>
<polygon fill="none" stroke="black" points="383.62,-108 285.88,-108 285.88,-72 383.62,-72 383.62,-108"/>
<text text-anchor="middle" x="334.75" y="-85.72" font-family="Times,serif" font-size="12.00">ql&#45;predicates&#45;100</text>
</g>
<!-- c&#45;start&#45;100&#45;&gt;ql&#45;predicates&#45;100 -->
<g id="edge4" class="edge">
<title>c&#45;start&#45;100&#45;&gt;ql&#45;predicates&#45;100</title>
<path fill="none" stroke="#9ecae1" d="M294.1,-143.7C300.38,-135.56 307.99,-125.69 314.92,-116.7"/>
<polygon fill="#9ecae1" stroke="#9ecae1" points="318.22,-119.16 321.56,-109.1 312.68,-114.88 318.22,-119.16"/>
</g>
<!-- ql&#45;exists&#45;100 -->
<g id="node6" class="node">
<title>ql&#45;exists&#45;100</title>
<polygon fill="none" stroke="black" points="478.12,-108 401.38,-108 401.38,-72 478.12,-72 478.12,-108"/>
<text text-anchor="middle" x="439.75" y="-85.72" font-family="Times,serif" font-size="12.00">ql&#45;exists&#45;100</text>
</g>
<!-- c&#45;start&#45;100&#45;&gt;ql&#45;exists&#45;100 -->
<g id="edge5" class="edge">
<title>c&#45;start&#45;100&#45;&gt;ql&#45;exists&#45;100</title>
<path fill="none" stroke="#9ecae1" d="M314.08,-146.33C336.41,-136.49 366.18,-123.39 391.14,-112.4"/>
<polygon fill="#9ecae1" stroke="#9ecae1" points="392.4,-115.23 400.15,-108 389.58,-108.82 392.4,-115.23"/>
</g>
<!-- ql&#45;select&#45;100 -->
<g id="node7" class="node">
<title>ql&#45;select&#45;100</title>
<polygon fill="none" stroke="black" points="573.12,-108 496.38,-108 496.38,-72 573.12,-72 573.12,-108"/>
<text text-anchor="middle" x="534.75" y="-85.72" font-family="Times,serif" font-size="12.00">ql&#45;select&#45;100</text>
</g>
<!-- c&#45;start&#45;100&#45;&gt;ql&#45;select&#45;100 -->
<g id="edge6" class="edge">
<title>c&#45;start&#45;100&#45;&gt;ql&#45;select&#45;100</title>
<path fill="none" stroke="#9ecae1" d="M314.18,-153.36C353.15,-144.25 419.63,-128.05 485.88,-108.13"/>
<polygon fill="#9ecae1" stroke="#9ecae1" points="486.52,-111.28 495.08,-105.03 484.49,-104.59 486.52,-111.28"/>
</g>
<!-- c&#45;goal&#45;100 -->
<g id="node8" class="node">
<title>c&#45;goal&#45;100</title>
<polygon fill="none" stroke="black" points="314.25,-36 247.25,-36 247.25,0 314.25,0 314.25,-36"/>
<text text-anchor="middle" x="280.75" y="-13.72" font-family="Times,serif" font-size="12.00">c&#45;goal&#45;100</text>
</g>
<!-- c&#45;ast&#45;100&#45;&gt;c&#45;goal&#45;100 -->
<g id="edge7" class="edge">
<title>c&#45;ast&#45;100&#45;&gt;c&#45;goal&#45;100</title>
<path fill="none" stroke="#9ecae1" d="M59.79,-75.32C62.79,-74.13 65.81,-73 68.75,-72 125.41,-52.72 192.75,-37.07 236.09,-27.9"/>
<polygon fill="#9ecae1" stroke="#9ecae1" points="236.76,-31.13 245.84,-25.66 235.33,-24.28 236.76,-31.13"/>
</g>
<!-- c&#45;df&#45;global&#45;100&#45;&gt;c&#45;goal&#45;100 -->
<g id="edge8" class="edge">
<title>c&#45;df&#45;global&#45;100&#45;&gt;c&#45;goal&#45;100</title>
<path fill="none" stroke="#9ecae1" d="M162.21,-71.52C184.9,-61.46 213.46,-48.81 236.86,-38.45"/>
<polygon fill="#9ecae1" stroke="#9ecae1" points="238.15,-41.26 245.87,-34.01 235.31,-34.86 238.15,-41.26"/>
</g>
<!-- ql&#45;classes&#45;100&#45;&gt;c&#45;goal&#45;100 -->
<g id="edge9" class="edge">
<title>ql&#45;classes&#45;100&#45;&gt;c&#45;goal&#45;100</title>
<path fill="none" stroke="#9ecae1" d="M240.1,-71.7C246.38,-63.56 253.99,-53.69 260.92,-44.7"/>
<polygon fill="#9ecae1" stroke="#9ecae1" points="264.22,-47.16 267.56,-37.1 258.68,-42.88 264.22,-47.16"/>
</g>
<!-- ql&#45;predicates&#45;100&#45;&gt;c&#45;goal&#45;100 -->
<g id="edge10" class="edge">
<title>ql&#45;predicates&#45;100&#45;&gt;c&#45;goal&#45;100</title>
<path fill="none" stroke="#9ecae1" d="M321.4,-71.7C315.12,-63.56 307.51,-53.69 300.58,-44.7"/>
<polygon fill="#9ecae1" stroke="#9ecae1" points="302.82,-42.88 293.94,-37.1 297.28,-47.16 302.82,-42.88"/>
</g>
<!-- ql&#45;exists&#45;100&#45;&gt;c&#45;goal&#45;100 -->
<g id="edge11" class="edge">
<title>ql&#45;exists&#45;100&#45;&gt;c&#45;goal&#45;100</title>
<path fill="none" stroke="#9ecae1" d="M401.26,-72.05C378.1,-61.86 348.54,-48.85 324.5,-38.26"/>
<polygon fill="#9ecae1" stroke="#9ecae1" points="326.13,-34.71 315.57,-33.89 323.31,-41.12 326.13,-34.71"/>
</g>
<!-- ql&#45;select&#45;100&#45;&gt;c&#45;goal&#45;100 -->
<g id="edge12" class="edge">
<title>ql&#45;select&#45;100&#45;&gt;c&#45;goal&#45;100</title>
<path fill="none" stroke="#9ecae1" d="M496.08,-74.97C492.93,-73.93 489.79,-72.93 486.75,-72 431.63,-55.18 367.16,-39.18 325.22,-29.24"/>
<polygon fill="#9ecae1" stroke="#9ecae1" points="326.08,-25.61 315.54,-26.72 324.48,-32.42 326.08,-25.61"/>
</g>
</g>
</svg>
