<?xml version="1.0" encoding="UTF-8" standalone="no"?>
<!DOCTYPE svg PUBLIC "-//W3C//DTD SVG 1.1//EN"
 "http://www.w3.org/Graphics/SVG/1.1/DTD/svg11.dtd">
<!-- Generated by graphviz version 8.0.5 (0)
 -->
<!-- Pages: 1 -->
<svg width="490pt" height="260pt"
 viewBox="0.00 0.00 490.21 260.00" xmlns="http://www.w3.org/2000/svg" xmlns:xlink="http://www.w3.org/1999/xlink">
<g id="graph0" class="graph" transform="scale(1 1) rotate(0) translate(4 256)">
<polygon fill="white" stroke="none" points="-4,4 -4,-256 486.21,-256 486.21,4 -4,4"/>
<!-- c&#45;ast&#45;100 -->
<g id="node1" class="node">
<title>c&#45;ast&#45;100</title>
<ellipse fill="none" stroke="black" cx="122.45" cy="-234" rx="45.21" ry="18"/>
<text text-anchor="middle" x="122.45" y="-228.95" font-family="Times,serif" font-size="14.00">c&#45;ast&#45;100</text>
</g>
<!-- c&#45;start&#45;110 -->
<g id="node2" class="node">
<title>c&#45;start&#45;110</title>
<ellipse fill="none" stroke="black" cx="249.45" cy="-162" rx="50.84" ry="18"/>
<text text-anchor="middle" x="249.45" y="-156.95" font-family="Times,serif" font-size="14.00">c&#45;start&#45;110</text>
</g>
<!-- c&#45;ast&#45;100&#45;&gt;c&#45;start&#45;110 -->
<g id="edge1" class="edge">
<title>c&#45;ast&#45;100&#45;&gt;c&#45;start&#45;110</title>
<path fill="none" stroke="#08519c" d="M148.15,-218.83C166.93,-208.49 192.63,-194.32 213.44,-182.85"/>
<polygon fill="#08519c" stroke="#08519c" points="214.85,-185.52 221.92,-177.63 211.47,-179.39 214.85,-185.52"/>
</g>
<!-- c&#45;taint&#45;global&#45;100 -->
<g id="node3" class="node">
<title>c&#45;taint&#45;global&#45;100</title>
<ellipse fill="none" stroke="black" cx="77.45" cy="-90" rx="77.45" ry="18"/>
<text text-anchor="middle" x="77.45" y="-84.95" font-family="Times,serif" font-size="14.00">c&#45;taint&#45;global&#45;100</text>
</g>
<!-- c&#45;start&#45;110&#45;&gt;c&#45;taint&#45;global&#45;100 -->
<g id="edge2" class="edge">
<title>c&#45;start&#45;110&#45;&gt;c&#45;taint&#45;global&#45;100</title>
<path fill="none" stroke="#08519c" d="M217.1,-147.83C191.07,-137.24 154.13,-122.21 124.78,-110.26"/>
<polygon fill="#08519c" stroke="#08519c" points="126.33,-106.7 115.74,-106.18 123.69,-113.19 126.33,-106.7"/>
</g>
<!-- c&#45;lib&#45;security&#45;100 -->
<g id="node4" class="node">
<title>c&#45;lib&#45;security&#45;100</title>
<ellipse fill="none" stroke="black" cx="249.45" cy="-90" rx="76.94" ry="18"/>
<text text-anchor="middle" x="249.45" y="-84.95" font-family="Times,serif" font-size="14.00">c&#45;lib&#45;security&#45;100</text>
</g>
<!-- c&#45;start&#45;110&#45;&gt;c&#45;lib&#45;security&#45;100 -->
<g id="edge3" class="edge">
<title>c&#45;start&#45;110&#45;&gt;c&#45;lib&#45;security&#45;100</title>
<path fill="none" stroke="#08519c" d="M249.45,-143.7C249.45,-136.24 249.45,-127.32 249.45,-118.97"/>
<polygon fill="#08519c" stroke="#08519c" points="252.95,-119.1 249.45,-109.1 245.95,-119.1 252.95,-119.1"/>
</g>
<!-- c&#45;df&#45;global&#45;100 -->
<g id="node5" class="node">
<title>c&#45;df&#45;global&#45;100</title>
<ellipse fill="none" stroke="black" cx="413.45" cy="-90" rx="68.75" ry="18"/>
<text text-anchor="middle" x="413.45" y="-84.95" font-family="Times,serif" font-size="14.00">c&#45;df&#45;global&#45;100</text>
</g>
<!-- c&#45;start&#45;110&#45;&gt;c&#45;df&#45;global&#45;100 -->
<g id="edge4" class="edge">
<title>c&#45;start&#45;110&#45;&gt;c&#45;df&#45;global&#45;100</title>
<path fill="none" stroke="#08519c" d="M281.07,-147.5C305.94,-136.89 340.91,-121.96 368.66,-110.12"/>
<polygon fill="#08519c" stroke="#08519c" points="369.7,-113.05 377.52,-105.91 366.95,-106.62 369.7,-113.05"/>
</g>
<!-- c&#45;goal&#45;110 -->
<g id="node8" class="node">
<title>c&#45;goal&#45;110</title>
<ellipse fill="none" stroke="black" cx="249.45" cy="-18" rx="50.84" ry="18"/>
<text text-anchor="middle" x="249.45" y="-12.95" font-family="Times,serif" font-size="14.00">c&#45;goal&#45;110</text>
</g>
<!-- c&#45;taint&#45;global&#45;100&#45;&gt;c&#45;goal&#45;110 -->
<g id="edge7" class="edge">
<title>c&#45;taint&#45;global&#45;100&#45;&gt;c&#45;goal&#45;110</title>
<path fill="none" stroke="#08519c" d="M114.78,-73.81C141.88,-62.78 178.6,-47.84 206.85,-36.34"/>
<polygon fill="#08519c" stroke="#08519c" points="207.9,-39.28 215.84,-32.27 205.26,-32.8 207.9,-39.28"/>
</g>
<!-- c&#45;lib&#45;security&#45;100&#45;&gt;c&#45;goal&#45;110 -->
<g id="edge8" class="edge">
<title>c&#45;lib&#45;security&#45;100&#45;&gt;c&#45;goal&#45;110</title>
<path fill="none" stroke="#08519c" d="M249.45,-71.7C249.45,-64.24 249.45,-55.32 249.45,-46.97"/>
<polygon fill="#08519c" stroke="#08519c" points="252.95,-47.1 249.45,-37.1 245.95,-47.1 252.95,-47.1"/>
</g>
<!-- c&#45;df&#45;global&#45;100&#45;&gt;c&#45;goal&#45;110 -->
<g id="edge9" class="edge">
<title>c&#45;df&#45;global&#45;100&#45;&gt;c&#45;goal&#45;110</title>
<path fill="none" stroke="#08519c" d="M378.67,-74.15C353.08,-63.23 318.17,-48.33 291.09,-36.77"/>
<polygon fill="#08519c" stroke="#08519c" points="292.7,-33.23 282.13,-32.52 289.95,-39.66 292.7,-33.23"/>
</g>
<!-- c&#45;df&#45;local&#45;100 -->
<g id="node6" class="node">
<title>c&#45;df&#45;local&#45;100</title>
<ellipse fill="none" stroke="black" cx="249.45" cy="-234" rx="63.63" ry="18"/>
<text text-anchor="middle" x="249.45" y="-228.95" font-family="Times,serif" font-size="14.00">c&#45;df&#45;local&#45;100</text>
</g>
<!-- c&#45;df&#45;local&#45;100&#45;&gt;c&#45;start&#45;110 -->
<g id="edge5" class="edge">
<title>c&#45;df&#45;local&#45;100&#45;&gt;c&#45;start&#45;110</title>
<path fill="none" stroke="#08519c" d="M249.45,-215.7C249.45,-208.24 249.45,-199.32 249.45,-190.97"/>
<polygon fill="#08519c" stroke="#08519c" points="252.95,-191.1 249.45,-181.1 245.95,-191.1 252.95,-191.1"/>
</g>
<!-- c&#45;taint&#45;local&#45;100 -->
<g id="node7" class="node">
<title>c&#45;taint&#45;local&#45;100</title>
<ellipse fill="none" stroke="black" cx="403.45" cy="-234" rx="72.34" ry="18"/>
<text text-anchor="middle" x="403.45" y="-228.95" font-family="Times,serif" font-size="14.00">c&#45;taint&#45;local&#45;100</text>
</g>
<!-- c&#45;taint&#45;local&#45;100&#45;&gt;c&#45;start&#45;110 -->
<g id="edge6" class="edge">
<title>c&#45;taint&#45;local&#45;100&#45;&gt;c&#45;start&#45;110</title>
<path fill="none" stroke="#08519c" d="M369.66,-217.64C346.08,-206.92 314.51,-192.57 289.64,-181.27"/>
<polygon fill="#08519c" stroke="#08519c" points="291.33,-177.74 280.78,-176.78 288.43,-184.11 291.33,-177.74"/>
</g>
</g>
</svg>
