<?xml version="1.0" encoding="UTF-8" standalone="no"?>
<!DOCTYPE svg PUBLIC "-//W3C//DTD SVG 1.1//EN"
 "http://www.w3.org/Graphics/SVG/1.1/DTD/svg11.dtd">
<!-- Generated by graphviz version 8.0.5 (0)
 -->
<!-- Pages: 1 -->
<svg width="163pt" height="548pt"
 viewBox="0.00 0.00 162.91 548.00" xmlns="http://www.w3.org/2000/svg" xmlns:xlink="http://www.w3.org/1999/xlink">
<g id="graph0" class="graph" transform="scale(1 1) rotate(0) translate(4 544)">
<polygon fill="white" stroke="none" points="-4,4 -4,-544 158.91,-544 158.91,4 -4,4"/>
<!-- c&#45;start&#45;&#45;110 -->
<g id="node1" class="node">
<title>c&#45;start&#45;&#45;110</title>
<ellipse fill="none" stroke="black" cx="77.45" cy="-522" rx="53.91" ry="18"/>
<text text-anchor="middle" x="77.45" y="-516.95" font-family="Times,serif" font-size="14.00">c&#45;start&#45;&#45;110</text>
</g>
<!-- c&#45;ast&#45;100 -->
<g id="node2" class="node">
<title>c&#45;ast&#45;100</title>
<ellipse fill="none" stroke="black" cx="77.45" cy="-450" rx="45.21" ry="18"/>
<text text-anchor="middle" x="77.45" y="-444.95" font-family="Times,serif" font-size="14.00">c&#45;ast&#45;100</text>
</g>
<!-- c&#45;start&#45;&#45;110&#45;&gt;c&#45;ast&#45;100 -->
<g id="edge1" class="edge">
<title>c&#45;start&#45;&#45;110&#45;&gt;c&#45;ast&#45;100</title>
<path fill="none" stroke="#4292c6" d="M77.45,-503.7C77.45,-496.24 77.45,-487.32 77.45,-478.97"/>
<polygon fill="#4292c6" stroke="#4292c6" points="80.95,-479.1 77.45,-469.1 73.95,-479.1 80.95,-479.1"/>
</g>
<!-- c&#45;df&#45;local&#45;100 -->
<g id="node3" class="node">
<title>c&#45;df&#45;local&#45;100</title>
<ellipse fill="none" stroke="black" cx="77.45" cy="-378" rx="63.63" ry="18"/>
<text text-anchor="middle" x="77.45" y="-372.95" font-family="Times,serif" font-size="14.00">c&#45;df&#45;local&#45;100</text>
</g>
<!-- c&#45;ast&#45;100&#45;&gt;c&#45;df&#45;local&#45;100 -->
<g id="edge2" class="edge">
<title>c&#45;ast&#45;100&#45;&gt;c&#45;df&#45;local&#45;100</title>
<path fill="none" stroke="#4292c6" d="M77.45,-431.7C77.45,-424.24 77.45,-415.32 77.45,-406.97"/>
<polygon fill="#4292c6" stroke="#4292c6" points="80.95,-407.1 77.45,-397.1 73.95,-407.1 80.95,-407.1"/>
</g>
<!-- c&#45;taint&#45;local&#45;100 -->
<g id="node4" class="node">
<title>c&#45;taint&#45;local&#45;100</title>
<ellipse fill="none" stroke="black" cx="77.45" cy="-306" rx="72.34" ry="18"/>
<text text-anchor="middle" x="77.45" y="-300.95" font-family="Times,serif" font-size="14.00">c&#45;taint&#45;local&#45;100</text>
</g>
<!-- c&#45;df&#45;local&#45;100&#45;&gt;c&#45;taint&#45;local&#45;100 -->
<g id="edge3" class="edge">
<title>c&#45;df&#45;local&#45;100&#45;&gt;c&#45;taint&#45;local&#45;100</title>
<path fill="none" stroke="#4292c6" d="M77.45,-359.7C77.45,-352.24 77.45,-343.32 77.45,-334.97"/>
<polygon fill="#4292c6" stroke="#4292c6" points="80.95,-335.1 77.45,-325.1 73.95,-335.1 80.95,-335.1"/>
</g>
<!-- c&#45;taint&#45;global&#45;100 -->
<g id="node5" class="node">
<title>c&#45;taint&#45;global&#45;100</title>
<ellipse fill="none" stroke="black" cx="77.45" cy="-234" rx="77.45" ry="18"/>
<text text-anchor="middle" x="77.45" y="-228.95" font-family="Times,serif" font-size="14.00">c&#45;taint&#45;global&#45;100</text>
</g>
<!-- c&#45;taint&#45;local&#45;100&#45;&gt;c&#45;taint&#45;global&#45;100 -->
<g id="edge4" class="edge">
<title>c&#45;taint&#45;local&#45;100&#45;&gt;c&#45;taint&#45;global&#45;100</title>
<path fill="none" stroke="#4292c6" d="M77.45,-287.7C77.45,-280.24 77.45,-271.32 77.45,-262.97"/>
<polygon fill="#4292c6" stroke="#4292c6" points="80.95,-263.1 77.45,-253.1 73.95,-263.1 80.95,-263.1"/>
</g>
<!-- c&#45;lib&#45;security&#45;100 -->
<g id="node6" class="node">
<title>c&#45;lib&#45;security&#45;100</title>
<ellipse fill="none" stroke="black" cx="77.45" cy="-162" rx="76.94" ry="18"/>
<text text-anchor="middle" x="77.45" y="-156.95" font-family="Times,serif" font-size="14.00">c&#45;lib&#45;security&#45;100</text>
</g>
<!-- c&#45;taint&#45;global&#45;100&#45;&gt;c&#45;lib&#45;security&#45;100 -->
<g id="edge5" class="edge">
<title>c&#45;taint&#45;global&#45;100&#45;&gt;c&#45;lib&#45;security&#45;100</title>
<path fill="none" stroke="#4292c6" d="M77.45,-215.7C77.45,-208.24 77.45,-199.32 77.45,-190.97"/>
<polygon fill="#4292c6" stroke="#4292c6" points="80.95,-191.1 77.45,-181.1 73.95,-191.1 80.95,-191.1"/>
</g>
<!-- c&#45;df&#45;global&#45;100 -->
<g id="node7" class="node">
<title>c&#45;df&#45;global&#45;100</title>
<ellipse fill="none" stroke="black" cx="77.45" cy="-90" rx="68.75" ry="18"/>
<text text-anchor="middle" x="77.45" y="-84.95" font-family="Times,serif" font-size="14.00">c&#45;df&#45;global&#45;100</text>
</g>
<!-- c&#45;lib&#45;security&#45;100&#45;&gt;c&#45;df&#45;global&#45;100 -->
<g id="edge6" class="edge">
<title>c&#45;lib&#45;security&#45;100&#45;&gt;c&#45;df&#45;global&#45;100</title>
<path fill="none" stroke="#4292c6" d="M77.45,-143.7C77.45,-136.24 77.45,-127.32 77.45,-118.97"/>
<polygon fill="#4292c6" stroke="#4292c6" points="80.95,-119.1 77.45,-109.1 73.95,-119.1 80.95,-119.1"/>
</g>
<!-- c&#45;goal&#45;&#45;120 -->
<g id="node8" class="node">
<title>c&#45;goal&#45;&#45;120</title>
<ellipse fill="none" stroke="black" cx="77.45" cy="-18" rx="53.91" ry="18"/>
<text text-anchor="middle" x="77.45" y="-12.95" font-family="Times,serif" font-size="14.00">c&#45;goal&#45;&#45;120</text>
</g>
<!-- c&#45;df&#45;global&#45;100&#45;&gt;c&#45;goal&#45;&#45;120 -->
<g id="edge7" class="edge">
<title>c&#45;df&#45;global&#45;100&#45;&gt;c&#45;goal&#45;&#45;120</title>
<path fill="none" stroke="#4292c6" d="M77.45,-71.7C77.45,-64.24 77.45,-55.32 77.45,-46.97"/>
<polygon fill="#4292c6" stroke="#4292c6" points="80.95,-47.1 77.45,-37.1 73.95,-47.1 80.95,-47.1"/>
</g>
</g>
</svg>
