<?xml version="1.0" encoding="UTF-8" standalone="no"?>
<!DOCTYPE svg PUBLIC "-//W3C//DTD SVG 1.1//EN"
 "http://www.w3.org/Graphics/SVG/1.1/DTD/svg11.dtd">
<!-- Generated by graphviz version 8.0.5 (0)
 -->
<!-- Pages: 1 -->
<svg width="407pt" height="404pt"
 viewBox="0.00 0.00 406.55 404.00" xmlns="http://www.w3.org/2000/svg" xmlns:xlink="http://www.w3.org/1999/xlink">
<g id="graph0" class="graph" transform="scale(1 1) rotate(0) translate(4 400)">
<polygon fill="white" stroke="none" points="-4,4 -4,-400 402.55,-400 402.55,4 -4,4"/>
<!-- c&#45;ast&#45;100 -->
<g id="node1" class="node">
<title>c&#45;ast&#45;100</title>
<ellipse fill="none" stroke="black" cx="45.21" cy="-378" rx="45.21" ry="18"/>
<text text-anchor="middle" x="45.21" y="-372.95" font-family="Times,serif" font-size="14.00">c&#45;ast&#45;100</text>
</g>
<!-- c&#45;start&#45;110 -->
<g id="node2" class="node">
<title>c&#45;start&#45;110</title>
<ellipse fill="none" stroke="black" cx="172.21" cy="-306" rx="50.84" ry="18"/>
<text text-anchor="middle" x="172.21" y="-300.95" font-family="Times,serif" font-size="14.00">c&#45;start&#45;110</text>
</g>
<!-- c&#45;ast&#45;100&#45;&gt;c&#45;start&#45;110 -->
<g id="edge1" class="edge">
<title>c&#45;ast&#45;100&#45;&gt;c&#45;start&#45;110</title>
<path fill="none" stroke="#4292c6" d="M70.91,-362.83C89.68,-352.49 115.38,-338.32 136.2,-326.85"/>
<polygon fill="#4292c6" stroke="#4292c6" points="137.61,-329.52 144.67,-321.63 134.23,-323.39 137.61,-329.52"/>
</g>
<!-- c&#45;taint&#45;global&#45;100 -->
<g id="node3" class="node">
<title>c&#45;taint&#45;global&#45;100</title>
<ellipse fill="none" stroke="black" cx="172.21" cy="-234" rx="77.45" ry="18"/>
<text text-anchor="middle" x="172.21" y="-228.95" font-family="Times,serif" font-size="14.00">c&#45;taint&#45;global&#45;100</text>
</g>
<!-- c&#45;start&#45;110&#45;&gt;c&#45;taint&#45;global&#45;100 -->
<g id="edge2" class="edge">
<title>c&#45;start&#45;110&#45;&gt;c&#45;taint&#45;global&#45;100</title>
<path fill="none" stroke="#4292c6" d="M172.21,-287.7C172.21,-280.24 172.21,-271.32 172.21,-262.97"/>
<polygon fill="#4292c6" stroke="#4292c6" points="175.71,-263.1 172.21,-253.1 168.71,-263.1 175.71,-263.1"/>
</g>
<!-- c&#45;lib&#45;security&#45;100 -->
<g id="node6" class="node">
<title>c&#45;lib&#45;security&#45;100</title>
<ellipse fill="none" stroke="black" cx="172.21" cy="-162" rx="76.94" ry="18"/>
<text text-anchor="middle" x="172.21" y="-156.95" font-family="Times,serif" font-size="14.00">c&#45;lib&#45;security&#45;100</text>
</g>
<!-- c&#45;taint&#45;global&#45;100&#45;&gt;c&#45;lib&#45;security&#45;100 -->
<g id="edge5" class="edge">
<title>c&#45;taint&#45;global&#45;100&#45;&gt;c&#45;lib&#45;security&#45;100</title>
<path fill="none" stroke="#4292c6" d="M172.21,-215.7C172.21,-208.24 172.21,-199.32 172.21,-190.97"/>
<polygon fill="#4292c6" stroke="#4292c6" points="175.71,-191.1 172.21,-181.1 168.71,-191.1 175.71,-191.1"/>
</g>
<!-- c&#45;df&#45;local&#45;100 -->
<g id="node4" class="node">
<title>c&#45;df&#45;local&#45;100</title>
<ellipse fill="none" stroke="black" cx="172.21" cy="-378" rx="63.63" ry="18"/>
<text text-anchor="middle" x="172.21" y="-372.95" font-family="Times,serif" font-size="14.00">c&#45;df&#45;local&#45;100</text>
</g>
<!-- c&#45;df&#45;local&#45;100&#45;&gt;c&#45;start&#45;110 -->
<g id="edge3" class="edge">
<title>c&#45;df&#45;local&#45;100&#45;&gt;c&#45;start&#45;110</title>
<path fill="none" stroke="#4292c6" d="M172.21,-359.7C172.21,-352.24 172.21,-343.32 172.21,-334.97"/>
<polygon fill="#4292c6" stroke="#4292c6" points="175.71,-335.1 172.21,-325.1 168.71,-335.1 175.71,-335.1"/>
</g>
<!-- c&#45;taint&#45;local&#45;100 -->
<g id="node5" class="node">
<title>c&#45;taint&#45;local&#45;100</title>
<ellipse fill="none" stroke="black" cx="326.21" cy="-378" rx="72.34" ry="18"/>
<text text-anchor="middle" x="326.21" y="-372.95" font-family="Times,serif" font-size="14.00">c&#45;taint&#45;local&#45;100</text>
</g>
<!-- c&#45;taint&#45;local&#45;100&#45;&gt;c&#45;start&#45;110 -->
<g id="edge4" class="edge">
<title>c&#45;taint&#45;local&#45;100&#45;&gt;c&#45;start&#45;110</title>
<path fill="none" stroke="#4292c6" d="M292.41,-361.64C268.83,-350.92 237.26,-336.57 212.39,-325.27"/>
<polygon fill="#4292c6" stroke="#4292c6" points="214.09,-321.74 203.54,-320.78 211.19,-328.11 214.09,-321.74"/>
</g>
<!-- c&#45;df&#45;global&#45;100 -->
<g id="node7" class="node">
<title>c&#45;df&#45;global&#45;100</title>
<ellipse fill="none" stroke="black" cx="172.21" cy="-90" rx="68.75" ry="18"/>
<text text-anchor="middle" x="172.21" y="-84.95" font-family="Times,serif" font-size="14.00">c&#45;df&#45;global&#45;100</text>
</g>
<!-- c&#45;lib&#45;security&#45;100&#45;&gt;c&#45;df&#45;global&#45;100 -->
<g id="edge6" class="edge">
<title>c&#45;lib&#45;security&#45;100&#45;&gt;c&#45;df&#45;global&#45;100</title>
<path fill="none" stroke="#4292c6" d="M172.21,-143.7C172.21,-136.24 172.21,-127.32 172.21,-118.97"/>
<polygon fill="#4292c6" stroke="#4292c6" points="175.71,-119.1 172.21,-109.1 168.71,-119.1 175.71,-119.1"/>
</g>
<!-- c&#45;goal&#45;120 -->
<g id="node8" class="node">
<title>c&#45;goal&#45;120</title>
<ellipse fill="none" stroke="black" cx="172.21" cy="-18" rx="50.84" ry="18"/>
<text text-anchor="middle" x="172.21" y="-12.95" font-family="Times,serif" font-size="14.00">c&#45;goal&#45;120</text>
</g>
<!-- c&#45;df&#45;global&#45;100&#45;&gt;c&#45;goal&#45;120 -->
<g id="edge7" class="edge">
<title>c&#45;df&#45;global&#45;100&#45;&gt;c&#45;goal&#45;120</title>
<path fill="none" stroke="#4292c6" d="M172.21,-71.7C172.21,-64.24 172.21,-55.32 172.21,-46.97"/>
<polygon fill="#4292c6" stroke="#4292c6" points="175.71,-47.1 172.21,-37.1 168.71,-47.1 175.71,-47.1"/>
</g>
</g>
</svg>
