<?xml version="1.0" encoding="UTF-8" standalone="no"?>
<!DOCTYPE svg PUBLIC "-//W3C//DTD SVG 1.1//EN"
 "http://www.w3.org/Graphics/SVG/1.1/DTD/svg11.dtd">
<!-- Generated by graphviz version 8.0.5 (0)
 -->
<!-- Pages: 1 -->
<svg width="101pt" height="332pt"
 viewBox="0.00 0.00 101.25 332.00" xmlns="http://www.w3.org/2000/svg" xmlns:xlink="http://www.w3.org/1999/xlink">
<g id="graph0" class="graph" transform="scale(1 1) rotate(0) translate(4 328)">
<polygon fill="white" stroke="none" points="-4,4 -4,-328 97.25,-328 97.25,4 -4,4"/>
<!-- c&#45;start&#45;&#45;120 -->
<g id="node1" class="node">
<title>c&#45;start&#45;&#45;120</title>
<polygon fill="none" stroke="black" points="81.62,-324 11.62,-324 11.62,-288 81.62,-288 81.62,-324"/>
<text text-anchor="middle" x="46.62" y="-301.73" font-family="Times,serif" font-size="12.00">c&#45;start&#45;&#45;120</text>
</g>
<!-- c&#45;ast&#45;100 -->
<g id="node2" class="node">
<title>c&#45;ast&#45;100</title>
<polygon fill="none" stroke="black" points="76.38,-252 16.87,-252 16.87,-216 76.38,-216 76.38,-252"/>
<text text-anchor="middle" x="46.62" y="-229.72" font-family="Times,serif" font-size="12.00">c&#45;ast&#45;100</text>
</g>
<!-- c&#45;start&#45;&#45;120&#45;&gt;c&#45;ast&#45;100 -->
<g id="edge1" class="edge">
<title>c&#45;start&#45;&#45;120&#45;&gt;c&#45;ast&#45;100</title>
<path fill="none" stroke="#08519c" d="M46.62,-287.7C46.62,-280.24 46.62,-271.32 46.62,-262.97"/>
<polygon fill="#08519c" stroke="#08519c" points="50.13,-263.1 46.62,-253.1 43.13,-263.1 50.13,-263.1"/>
</g>
<!-- c&#45;df&#45;local&#45;100 -->
<g id="node3" class="node">
<title>c&#45;df&#45;local&#45;100</title>
<polygon fill="none" stroke="black" points="88,-180 5.25,-180 5.25,-144 88,-144 88,-180"/>
<text text-anchor="middle" x="46.62" y="-157.72" font-family="Times,serif" font-size="12.00">c&#45;df&#45;local&#45;100</text>
</g>
<!-- c&#45;ast&#45;100&#45;&gt;c&#45;df&#45;local&#45;100 -->
<g id="edge2" class="edge">
<title>c&#45;ast&#45;100&#45;&gt;c&#45;df&#45;local&#45;100</title>
<path fill="none" stroke="#08519c" d="M46.62,-215.7C46.62,-208.24 46.62,-199.32 46.62,-190.97"/>
<polygon fill="#08519c" stroke="#08519c" points="50.13,-191.1 46.62,-181.1 43.13,-191.1 50.13,-191.1"/>
</g>
<!-- c&#45;taint&#45;local&#45;100 -->
<g id="node4" class="node">
<title>c&#45;taint&#45;local&#45;100</title>
<polygon fill="none" stroke="black" points="93.25,-108 0,-108 0,-72 93.25,-72 93.25,-108"/>
<text text-anchor="middle" x="46.62" y="-85.72" font-family="Times,serif" font-size="12.00">c&#45;taint&#45;local&#45;100</text>
</g>
<!-- c&#45;df&#45;local&#45;100&#45;&gt;c&#45;taint&#45;local&#45;100 -->
<g id="edge3" class="edge">
<title>c&#45;df&#45;local&#45;100&#45;&gt;c&#45;taint&#45;local&#45;100</title>
<path fill="none" stroke="#08519c" d="M46.62,-143.7C46.62,-136.24 46.62,-127.32 46.62,-118.97"/>
<polygon fill="#08519c" stroke="#08519c" points="50.13,-119.1 46.62,-109.1 43.13,-119.1 50.13,-119.1"/>
</g>
<!-- c&#45;goal&#45;&#45;130 -->
<g id="node5" class="node">
<title>c&#45;goal&#45;&#45;130</title>
<polygon fill="none" stroke="black" points="82,-36 11.25,-36 11.25,0 82,0 82,-36"/>
<text text-anchor="middle" x="46.62" y="-13.72" font-family="Times,serif" font-size="12.00">c&#45;goal&#45;&#45;130</text>
</g>
<!-- c&#45;taint&#45;local&#45;100&#45;&gt;c&#45;goal&#45;&#45;130 -->
<g id="edge4" class="edge">
<title>c&#45;taint&#45;local&#45;100&#45;&gt;c&#45;goal&#45;&#45;130</title>
<path fill="none" stroke="#08519c" d="M46.62,-71.7C46.62,-64.24 46.62,-55.32 46.62,-46.97"/>
<polygon fill="#08519c" stroke="#08519c" points="50.13,-47.1 46.62,-37.1 43.13,-47.1 50.13,-47.1"/>
</g>
</g>
</svg>
