<?xml version="1.0" encoding="UTF-8" standalone="no"?>
<!DOCTYPE svg PUBLIC "-//W3C//DTD SVG 1.1//EN"
 "http://www.w3.org/Graphics/SVG/1.1/DTD/svg11.dtd">
<!-- Generated by graphviz version 8.0.5 (0)
 -->
<!-- Pages: 1 -->
<svg width="202pt" height="260pt"
 viewBox="0.00 0.00 202.00 260.00" xmlns="http://www.w3.org/2000/svg" xmlns:xlink="http://www.w3.org/1999/xlink">
<g id="graph0" class="graph" transform="scale(1 1) rotate(0) translate(4 256)">
<polygon fill="white" stroke="none" points="-4,4 -4,-256 198,-256 198,4 -4,4"/>
<!-- c&#45;ast&#45;100 -->
<g id="node1" class="node">
<title>c&#45;ast&#45;100</title>
<polygon fill="none" stroke="black" points="124.12,-252 64.62,-252 64.62,-216 124.12,-216 124.12,-252"/>
<text text-anchor="middle" x="94.38" y="-229.72" font-family="Times,serif" font-size="12.00">c&#45;ast&#45;100</text>
</g>
<!-- c&#45;start&#45;120 -->
<g id="node2" class="node">
<title>c&#45;start&#45;120</title>
<polygon fill="none" stroke="black" points="127.5,-180 61.25,-180 61.25,-144 127.5,-144 127.5,-180"/>
<text text-anchor="middle" x="94.38" y="-157.72" font-family="Times,serif" font-size="12.00">c&#45;start&#45;120</text>
</g>
<!-- c&#45;ast&#45;100&#45;&gt;c&#45;start&#45;120 -->
<g id="edge1" class="edge">
<title>c&#45;ast&#45;100&#45;&gt;c&#45;start&#45;120</title>
<path fill="none" stroke="#08519c" d="M94.38,-215.7C94.38,-208.24 94.38,-199.32 94.38,-190.97"/>
<polygon fill="#08519c" stroke="#08519c" points="97.88,-191.1 94.38,-181.1 90.88,-191.1 97.88,-191.1"/>
</g>
<!-- c&#45;df&#45;local&#45;100 -->
<g id="node3" class="node">
<title>c&#45;df&#45;local&#45;100</title>
<polygon fill="none" stroke="black" points="82.75,-108 0,-108 0,-72 82.75,-72 82.75,-108"/>
<text text-anchor="middle" x="41.38" y="-85.72" font-family="Times,serif" font-size="12.00">c&#45;df&#45;local&#45;100</text>
</g>
<!-- c&#45;start&#45;120&#45;&gt;c&#45;df&#45;local&#45;100 -->
<g id="edge2" class="edge">
<title>c&#45;start&#45;120&#45;&gt;c&#45;df&#45;local&#45;100</title>
<path fill="none" stroke="#08519c" d="M81.27,-143.7C75.11,-135.56 67.64,-125.69 60.83,-116.7"/>
<polygon fill="#08519c" stroke="#08519c" points="63.15,-114.96 54.33,-109.1 57.57,-119.19 63.15,-114.96"/>
</g>
<!-- c&#45;taint&#45;local&#45;100 -->
<g id="node4" class="node">
<title>c&#45;taint&#45;local&#45;100</title>
<polygon fill="none" stroke="black" points="194,-108 100.75,-108 100.75,-72 194,-72 194,-108"/>
<text text-anchor="middle" x="147.38" y="-85.72" font-family="Times,serif" font-size="12.00">c&#45;taint&#45;local&#45;100</text>
</g>
<!-- c&#45;start&#45;120&#45;&gt;c&#45;taint&#45;local&#45;100 -->
<g id="edge3" class="edge">
<title>c&#45;start&#45;120&#45;&gt;c&#45;taint&#45;local&#45;100</title>
<path fill="none" stroke="#08519c" d="M107.48,-143.7C113.64,-135.56 121.11,-125.69 127.92,-116.7"/>
<polygon fill="#08519c" stroke="#08519c" points="131.18,-119.19 134.42,-109.1 125.6,-114.96 131.18,-119.19"/>
</g>
<!-- c&#45;goal&#45;120 -->
<g id="node5" class="node">
<title>c&#45;goal&#45;120</title>
<polygon fill="none" stroke="black" points="127.88,-36 60.88,-36 60.88,0 127.88,0 127.88,-36"/>
<text text-anchor="middle" x="94.38" y="-13.72" font-family="Times,serif" font-size="12.00">c&#45;goal&#45;120</text>
</g>
<!-- c&#45;df&#45;local&#45;100&#45;&gt;c&#45;goal&#45;120 -->
<g id="edge4" class="edge">
<title>c&#45;df&#45;local&#45;100&#45;&gt;c&#45;goal&#45;120</title>
<path fill="none" stroke="#08519c" d="M54.48,-71.7C60.64,-63.56 68.11,-53.69 74.92,-44.7"/>
<polygon fill="#08519c" stroke="#08519c" points="78.18,-47.19 81.42,-37.1 72.6,-42.96 78.18,-47.19"/>
</g>
<!-- c&#45;taint&#45;local&#45;100&#45;&gt;c&#45;goal&#45;120 -->
<g id="edge5" class="edge">
<title>c&#45;taint&#45;local&#45;100&#45;&gt;c&#45;goal&#45;120</title>
<path fill="none" stroke="#08519c" d="M134.27,-71.7C128.11,-63.56 120.64,-53.69 113.83,-44.7"/>
<polygon fill="#08519c" stroke="#08519c" points="116.15,-42.96 107.33,-37.1 110.57,-47.19 116.15,-42.96"/>
</g>
</g>
</svg>
