<?xml version="1.0" encoding="UTF-8" standalone="no"?>
<!DOCTYPE svg PUBLIC "-//W3C//DTD SVG 1.1//EN"
 "http://www.w3.org/Graphics/SVG/1.1/DTD/svg11.dtd">
<!-- Generated by graphviz version 8.0.5 (0)
 -->
<!-- Pages: 1 -->
<svg width="101pt" height="476pt"
 viewBox="0.00 0.00 101.25 476.00" xmlns="http://www.w3.org/2000/svg" xmlns:xlink="http://www.w3.org/1999/xlink">
<g id="graph0" class="graph" transform="scale(1 1) rotate(0) translate(4 472)">
<polygon fill="white" stroke="none" points="-4,4 -4,-472 97.25,-472 97.25,4 -4,4"/>
<!-- c&#45;start&#45;130 -->
<g id="node1" class="node">
<title>c&#45;start&#45;130</title>
<polygon fill="none" stroke="black" points="79.75,-468 13.5,-468 13.5,-432 79.75,-432 79.75,-468"/>
<text text-anchor="middle" x="46.62" y="-445.73" font-family="Times,serif" font-size="12.00">c&#45;start&#45;130</text>
</g>
<!-- c&#45;ast&#45;100 -->
<g id="node2" class="node">
<title>c&#45;ast&#45;100</title>
<polygon fill="none" stroke="black" points="76.38,-396 16.87,-396 16.87,-360 76.38,-360 76.38,-396"/>
<text text-anchor="middle" x="46.62" y="-373.73" font-family="Times,serif" font-size="12.00">c&#45;ast&#45;100</text>
</g>
<!-- c&#45;start&#45;130&#45;&gt;c&#45;ast&#45;100 -->
<g id="edge1" class="edge">
<title>c&#45;start&#45;130&#45;&gt;c&#45;ast&#45;100</title>
<path fill="none" stroke="#a1d99b" d="M46.62,-431.7C46.62,-424.24 46.62,-415.32 46.62,-406.97"/>
<polygon fill="#a1d99b" stroke="#a1d99b" points="50.13,-407.1 46.62,-397.1 43.13,-407.1 50.13,-407.1"/>
</g>
<!-- c&#45;df&#45;local&#45;100 -->
<g id="node3" class="node">
<title>c&#45;df&#45;local&#45;100</title>
<polygon fill="none" stroke="black" points="88,-324 5.25,-324 5.25,-288 88,-288 88,-324"/>
<text text-anchor="middle" x="46.62" y="-301.73" font-family="Times,serif" font-size="12.00">c&#45;df&#45;local&#45;100</text>
</g>
<!-- c&#45;ast&#45;100&#45;&gt;c&#45;df&#45;local&#45;100 -->
<g id="edge2" class="edge">
<title>c&#45;ast&#45;100&#45;&gt;c&#45;df&#45;local&#45;100</title>
<path fill="none" stroke="#a1d99b" d="M46.62,-359.7C46.62,-352.24 46.62,-343.32 46.62,-334.97"/>
<polygon fill="#a1d99b" stroke="#a1d99b" points="50.13,-335.1 46.62,-325.1 43.13,-335.1 50.13,-335.1"/>
</g>
<!-- c&#45;taint&#45;local&#45;100 -->
<g id="node4" class="node">
<title>c&#45;taint&#45;local&#45;100</title>
<polygon fill="none" stroke="black" points="93.25,-252 0,-252 0,-216 93.25,-216 93.25,-252"/>
<text text-anchor="middle" x="46.62" y="-229.72" font-family="Times,serif" font-size="12.00">c&#45;taint&#45;local&#45;100</text>
</g>
<!-- c&#45;df&#45;local&#45;100&#45;&gt;c&#45;taint&#45;local&#45;100 -->
<g id="edge3" class="edge">
<title>c&#45;df&#45;local&#45;100&#45;&gt;c&#45;taint&#45;local&#45;100</title>
<path fill="none" stroke="#a1d99b" d="M46.62,-287.7C46.62,-280.24 46.62,-271.32 46.62,-262.97"/>
<polygon fill="#a1d99b" stroke="#a1d99b" points="50.13,-263.1 46.62,-253.1 43.13,-263.1 50.13,-263.1"/>
</g>
<!-- c&#45;lib&#45;format&#45;100 -->
<g id="node5" class="node">
<title>c&#45;lib&#45;format&#45;100</title>
<polygon fill="none" stroke="black" points="93.25,-180 0,-180 0,-144 93.25,-144 93.25,-180"/>
<text text-anchor="middle" x="46.62" y="-157.72" font-family="Times,serif" font-size="12.00">c&#45;lib&#45;format&#45;100</text>
</g>
<!-- c&#45;taint&#45;local&#45;100&#45;&gt;c&#45;lib&#45;format&#45;100 -->
<g id="edge4" class="edge">
<title>c&#45;taint&#45;local&#45;100&#45;&gt;c&#45;lib&#45;format&#45;100</title>
<path fill="none" stroke="#a1d99b" d="M46.62,-215.7C46.62,-208.24 46.62,-199.32 46.62,-190.97"/>
<polygon fill="#a1d99b" stroke="#a1d99b" points="50.13,-191.1 46.62,-181.1 43.13,-191.1 50.13,-191.1"/>
</g>
<!-- c&#45;df&#45;global&#45;100 -->
<g id="node6" class="node">
<title>c&#45;df&#45;global&#45;100</title>
<polygon fill="none" stroke="black" points="91.38,-108 1.88,-108 1.88,-72 91.38,-72 91.38,-108"/>
<text text-anchor="middle" x="46.62" y="-85.72" font-family="Times,serif" font-size="12.00">c&#45;df&#45;global&#45;100</text>
</g>
<!-- c&#45;lib&#45;format&#45;100&#45;&gt;c&#45;df&#45;global&#45;100 -->
<g id="edge5" class="edge">
<title>c&#45;lib&#45;format&#45;100&#45;&gt;c&#45;df&#45;global&#45;100</title>
<path fill="none" stroke="#a1d99b" d="M46.62,-143.7C46.62,-136.24 46.62,-127.32 46.62,-118.97"/>
<polygon fill="#a1d99b" stroke="#a1d99b" points="50.13,-119.1 46.62,-109.1 43.13,-119.1 50.13,-119.1"/>
</g>
<!-- c&#45;goal&#45;130 -->
<g id="node7" class="node">
<title>c&#45;goal&#45;130</title>
<polygon fill="none" stroke="black" points="80.12,-36 13.12,-36 13.12,0 80.12,0 80.12,-36"/>
<text text-anchor="middle" x="46.62" y="-13.72" font-family="Times,serif" font-size="12.00">c&#45;goal&#45;130</text>
</g>
<!-- c&#45;df&#45;global&#45;100&#45;&gt;c&#45;goal&#45;130 -->
<g id="edge6" class="edge">
<title>c&#45;df&#45;global&#45;100&#45;&gt;c&#45;goal&#45;130</title>
<path fill="none" stroke="#a1d99b" d="M46.62,-71.7C46.62,-64.24 46.62,-55.32 46.62,-46.97"/>
<polygon fill="#a1d99b" stroke="#a1d99b" points="50.13,-47.1 46.62,-37.1 43.13,-47.1 50.13,-47.1"/>
</g>
</g>
</svg>
