<?xml version="1.0" encoding="UTF-8" standalone="no"?>
<?xml-stylesheet href="graphstyle.css" type="text/css"?>
<!DOCTYPE svg PUBLIC "-//W3C//DTD SVG 1.1//EN"
 "http://www.w3.org/Graphics/SVG/1.1/DTD/svg11.dtd">
<!-- Generated by graphviz version 8.0.5 (0)
 -->
<!-- Pages: 1 -->
<svg width="1331pt" height="260pt"
 viewBox="0.00 0.00 1330.63 260.00" xmlns="http://www.w3.org/2000/svg" xmlns:xlink="http://www.w3.org/1999/xlink">
<g id="graph0" class="graph" transform="scale(1 1) rotate(0) translate(4 256)">
<polygon fill="white" stroke="none" points="-4,4 -4,-256 1326.63,-256 1326.63,4 -4,4"/>
<!-- c&#45;goal&#45;100 -->
<g id="node1" class="node">
<title>c&#45;goal&#45;100</title>
<polygon fill="none" stroke="black" points="474.35,-239.56 421.67,-252 369,-239.56 369.05,-219.44 474.3,-219.44 474.35,-239.56"/>
<text text-anchor="middle" x="421.67" y="-229.72" font-family="Times,serif" font-size="12.00">c&#45;goal&#45;100</text>
</g>
<!-- cp&#45;ql&#45;customizer -->
<g id="node2" class="node">
<title>cp&#45;ql&#45;customizer</title>
<ellipse fill="lightblue" stroke="black" cx="209.67" cy="-162" rx="60.26" ry="18"/>
<text text-anchor="middle" x="209.67" y="-157.72" font-family="Times,serif" font-size="12.00">cp&#45;ql&#45;customizer</text>
</g>
<!-- c&#45;goal&#45;100&#45;&gt;cp&#45;ql&#45;customizer -->
<g id="edge1" class="edge">
<title>c&#45;goal&#45;100&#45;&gt;cp&#45;ql&#45;customizer</title>
<path fill="none" stroke="black" stroke-width="3" d="M379.28,-219C345.64,-207.89 298.43,-192.31 262.36,-180.4"/>
<polygon fill="black" stroke="black" stroke-width="3" points="263.72,-176.84 253.13,-177.03 261.53,-183.49 263.72,-176.84"/>
</g>
<!-- cp&#45;ql&#45;writer&#45;200 -->
<g id="node3" class="node">
<title>cp&#45;ql&#45;writer&#45;200</title>
<ellipse fill="lightblue" stroke="black" cx="402.67" cy="-18" rx="59.31" ry="18"/>
<text text-anchor="middle" x="402.67" y="-13.72" font-family="Times,serif" font-size="12.00">cp&#45;ql&#45;writer&#45;200</text>
</g>
<!-- c&#45;goal&#45;100&#45;&gt;cp&#45;ql&#45;writer&#45;200 -->
<g id="edge2" class="edge">
<title>c&#45;goal&#45;100&#45;&gt;cp&#45;ql&#45;writer&#45;200</title>
<path fill="none" stroke="black" stroke-width="3" d="M420.43,-218.96C417.4,-184.89 409.62,-97.2 405.43,-50.07"/>
<polygon fill="black" stroke="black" stroke-width="3" points="408.58,-49.96 404.21,-40.31 401.61,-50.58 408.58,-49.96"/>
</g>
<!-- cp&#45;ql&#45;writer&#45;100 -->
<g id="node8" class="node">
<title>cp&#45;ql&#45;writer&#45;100</title>
<ellipse fill="lightblue" stroke="black" cx="296.67" cy="-90" rx="59.31" ry="18"/>
<text text-anchor="middle" x="296.67" y="-85.72" font-family="Times,serif" font-size="12.00">cp&#45;ql&#45;writer&#45;100</text>
</g>
<!-- cp&#45;ql&#45;customizer&#45;&gt;cp&#45;ql&#45;writer&#45;100 -->
<g id="edge9" class="edge">
<title>cp&#45;ql&#45;customizer&#45;&gt;cp&#45;ql&#45;writer&#45;100</title>
<path fill="none" stroke="#807dba" stroke-width="3" d="M229.85,-144.76C240.43,-136.26 253.61,-125.65 265.47,-116.11"/>
<polygon fill="#807dba" stroke="#807dba" stroke-width="3" points="267.71,-118.39 273.3,-109.39 263.32,-112.93 267.71,-118.39"/>
</g>
<!-- c&#45;goal&#45;105 -->
<g id="node4" class="node">
<title>c&#45;goal&#45;105</title>
<polygon fill="none" stroke="black" points="597.35,-239.56 544.67,-252 492,-239.56 492.05,-219.44 597.3,-219.44 597.35,-239.56"/>
<text text-anchor="middle" x="544.67" y="-229.72" font-family="Times,serif" font-size="12.00">c&#45;goal&#45;105</text>
</g>
<!-- c&#45;goal&#45;110 -->
<g id="node5" class="node">
<title>c&#45;goal&#45;110</title>
<polygon fill="none" stroke="black" points="350.76,-239.56 298.67,-252 246.59,-239.56 246.64,-219.44 350.71,-219.44 350.76,-239.56"/>
<text text-anchor="middle" x="298.67" y="-229.72" font-family="Times,serif" font-size="12.00">c&#45;goal&#45;110</text>
</g>
<!-- c&#45;goal&#45;110&#45;&gt;cp&#45;ql&#45;customizer -->
<g id="edge3" class="edge">
<title>c&#45;goal&#45;110&#45;&gt;cp&#45;ql&#45;customizer</title>
<path fill="none" stroke="black" stroke-width="3" d="M281.09,-219.17C269.69,-210.21 254.52,-198.27 241.09,-187.71"/>
<polygon fill="black" stroke="black" stroke-width="3" points="243.37,-184.69 233.34,-181.26 239.04,-190.19 243.37,-184.69"/>
</g>
<!-- c&#45;goal&#45;120 -->
<g id="node6" class="node">
<title>c&#45;goal&#45;120</title>
<polygon fill="none" stroke="black" points="105.35,-239.56 52.67,-252 0,-239.56 0.05,-219.44 105.3,-219.44 105.35,-239.56"/>
<text text-anchor="middle" x="52.67" y="-229.72" font-family="Times,serif" font-size="12.00">c&#45;goal&#45;120</text>
</g>
<!-- c&#45;goal&#45;120&#45;&gt;cp&#45;ql&#45;customizer -->
<g id="edge4" class="edge">
<title>c&#45;goal&#45;120&#45;&gt;cp&#45;ql&#45;customizer</title>
<path fill="none" stroke="black" stroke-width="3" d="M84.07,-219C107.11,-208.73 138.74,-194.62 164.5,-183.14"/>
<polygon fill="black" stroke="black" stroke-width="3" points="165.27,-185.84 172.98,-178.58 162.42,-179.45 165.27,-185.84"/>
</g>
<!-- c&#45;goal&#45;140 -->
<g id="node7" class="node">
<title>c&#45;goal&#45;140</title>
<polygon fill="none" stroke="black" points="393.35,-167.56 340.67,-180 288,-167.56 288.05,-147.44 393.3,-147.44 393.35,-167.56"/>
<text text-anchor="middle" x="340.67" y="-157.72" font-family="Times,serif" font-size="12.00">c&#45;goal&#45;140</text>
</g>
<!-- c&#45;goal&#45;140&#45;&gt;cp&#45;ql&#45;writer&#45;200 -->
<g id="edge6" class="edge">
<title>c&#45;goal&#45;140&#45;&gt;cp&#45;ql&#45;writer&#45;200</title>
<path fill="none" stroke="black" stroke-width="3" d="M347.07,-147.09C351.96,-136.42 358.82,-121.31 364.67,-108 373.32,-88.34 382.81,-66.12 390.14,-48.81"/>
<polygon fill="black" stroke="black" stroke-width="3" points="393.83,-50.68 394.5,-40.11 387.38,-47.96 393.83,-50.68"/>
</g>
<!-- c&#45;goal&#45;140&#45;&gt;cp&#45;ql&#45;writer&#45;100 -->
<g id="edge5" class="edge">
<title>c&#45;goal&#45;140&#45;&gt;cp&#45;ql&#45;writer&#45;100</title>
<path fill="none" stroke="black" stroke-width="3" d="M331.98,-147.17C327.07,-139.36 320.74,-129.29 314.8,-119.84"/>
<polygon fill="black" stroke="black" stroke-width="3" points="317.66,-117.62 309.37,-111.02 311.73,-121.35 317.66,-117.62"/>
</g>
<!-- cp&#45;ql&#45;writer&#45;100&#45;&gt;cp&#45;ql&#45;writer&#45;200 -->
<g id="edge10" class="edge">
<title>cp&#45;ql&#45;writer&#45;100&#45;&gt;cp&#45;ql&#45;writer&#45;200</title>
<path fill="none" stroke="#54278f" stroke-width="3" d="M320.73,-73.12C334.41,-64.08 351.82,-52.58 367.06,-42.52"/>
<polygon fill="#54278f" stroke="#54278f" stroke-width="3" points="369.3,-45.25 375.72,-36.82 365.44,-39.41 369.3,-45.25"/>
</g>
<!-- c&#45;goal&#45;150 -->
<g id="node9" class="node">
<title>c&#45;goal&#45;150</title>
<polygon fill="none" stroke="black" points="228.35,-239.56 175.67,-252 123,-239.56 123.05,-219.44 228.3,-219.44 228.35,-239.56"/>
<text text-anchor="middle" x="175.67" y="-229.72" font-family="Times,serif" font-size="12.00">c&#45;goal&#45;150</text>
</g>
<!-- c&#45;goal&#45;150&#45;&gt;cp&#45;ql&#45;customizer -->
<g id="edge7" class="edge">
<title>c&#45;goal&#45;150&#45;&gt;cp&#45;ql&#45;customizer</title>
<path fill="none" stroke="black" stroke-width="3" d="M182.39,-219.17C186.07,-211.59 190.79,-201.88 195.26,-192.68"/>
<polygon fill="black" stroke="black" stroke-width="3" points="199.06,-194.8 200.28,-184.28 192.77,-191.74 199.06,-194.8"/>
</g>
<!-- c&#45;goal&#45;160 -->
<g id="node10" class="node">
<title>c&#45;goal&#45;160</title>
<polygon fill="none" stroke="black" points="720.35,-239.56 667.67,-252 615,-239.56 615.05,-219.44 720.3,-219.44 720.35,-239.56"/>
<text text-anchor="middle" x="667.67" y="-229.72" font-family="Times,serif" font-size="12.00">c&#45;goal&#45;160</text>
</g>
<!-- c&#45;goal&#45;170 -->
<g id="node11" class="node">
<title>c&#45;goal&#45;170</title>
<polygon fill="none" stroke="black" points="843.35,-239.56 790.67,-252 738,-239.56 738.05,-219.44 843.3,-219.44 843.35,-239.56"/>
<text text-anchor="middle" x="790.67" y="-229.72" font-family="Times,serif" font-size="12.00">c&#45;goal&#45;170</text>
</g>
<!-- c&#45;goal&#45;380 -->
<g id="node12" class="node">
<title>c&#45;goal&#45;380</title>
<polygon fill="none" stroke="black" points="966.35,-239.56 913.67,-252 861,-239.56 861.05,-219.44 966.3,-219.44 966.35,-239.56"/>
<text text-anchor="middle" x="913.67" y="-229.72" font-family="Times,serif" font-size="12.00">c&#45;goal&#45;380</text>
</g>
<!-- c&#45;goal&#45;390 -->
<g id="node13" class="node">
<title>c&#45;goal&#45;390</title>
<polygon fill="none" stroke="black" points="1089.35,-239.56 1036.67,-252 984,-239.56 984.05,-219.44 1089.3,-219.44 1089.35,-239.56"/>
<text text-anchor="middle" x="1036.67" y="-229.72" font-family="Times,serif" font-size="12.00">c&#45;goal&#45;390</text>
</g>
<!-- c&#45;goal&#45;400 -->
<g id="node14" class="node">
<title>c&#45;goal&#45;400</title>
<polygon fill="none" stroke="black" points="555.35,-95.56 502.67,-108 450,-95.56 450.05,-75.44 555.3,-75.44 555.35,-95.56"/>
<text text-anchor="middle" x="502.67" y="-85.72" font-family="Times,serif" font-size="12.00">c&#45;goal&#45;400</text>
</g>
<!-- c&#45;goal&#45;400&#45;&gt;cp&#45;ql&#45;writer&#45;200 -->
<g id="edge8" class="edge">
<title>c&#45;goal&#45;400&#45;&gt;cp&#45;ql&#45;writer&#45;200</title>
<path fill="none" stroke="#54278f" stroke-width="3" d="M482.92,-75.17C469.76,-65.96 452.14,-53.62 436.75,-42.86"/>
<polygon fill="#54278f" stroke="#54278f" stroke-width="3" points="438.74,-39.87 428.54,-37.01 434.72,-45.61 438.74,-39.87"/>
</g>
<!-- c&#45;goal&#45;210 -->
<g id="node15" class="node">
<title>c&#45;goal&#45;210</title>
<polygon fill="none" stroke="black" points="1212.35,-239.56 1159.67,-252 1107,-239.56 1107.05,-219.44 1212.3,-219.44 1212.35,-239.56"/>
<text text-anchor="middle" x="1159.67" y="-229.72" font-family="Times,serif" font-size="12.00">c&#45;goal&#45;210</text>
</g>
<!-- cp&#45;beginner -->
<g id="node16" class="node">
<title>cp&#45;beginner</title>
<ellipse fill="lightblue" stroke="black" cx="1276.67" cy="-234" rx="45.95" ry="18"/>
<text text-anchor="middle" x="1276.67" y="-229.72" font-family="Times,serif" font-size="12.00">cp&#45;beginner</text>
</g>
</g>
</svg>
