<?xml version="1.0" encoding="UTF-8" standalone="no"?>
<!DOCTYPE svg PUBLIC "-//W3C//DTD SVG 1.1//EN"
 "http://www.w3.org/Graphics/SVG/1.1/DTD/svg11.dtd">
<!-- Generated by graphviz version 8.0.5 (0)
 -->
<!-- Pages: 1 -->
<svg width="668pt" height="548pt"
 viewBox="0.00 0.00 668.27 548.00" xmlns="http://www.w3.org/2000/svg" xmlns:xlink="http://www.w3.org/1999/xlink">
<g id="graph0" class="graph" transform="scale(1 1) rotate(0) translate(4 544)">
<polygon fill="white" stroke="none" points="-4,4 -4,-544 664.27,-544 664.27,4 -4,4"/>
<!-- c&#45;start&#45;&#45;100 -->
<g id="node1" class="node">
<title>c&#45;start&#45;&#45;100</title>
<polygon fill="none" stroke="black" points="18,-516.44 73.03,-504 128.06,-516.44 128.01,-536.56 18.05,-536.56 18,-516.44"/>
<text text-anchor="middle" x="73.03" y="-517.73" font-family="Times,serif" font-size="12.00">c&#45;start&#45;&#45;100</text>
</g>
<!-- c&#45;ast&#45;100 -->
<g id="node2" class="node">
<title>c&#45;ast&#45;100</title>
<polygon fill="none" stroke="black" points="275.78,-468 216.28,-468 216.28,-432 275.78,-432 275.78,-468"/>
<text text-anchor="middle" x="246.03" y="-445.73" font-family="Times,serif" font-size="12.00">c&#45;ast&#45;100</text>
</g>
<!-- c&#45;start&#45;&#45;100&#45;&gt;c&#45;ast&#45;100 -->
<g id="edge1" class="edge">
<title>c&#45;start&#45;&#45;100&#45;&gt;c&#45;ast&#45;100</title>
<path fill="none" stroke="#9ecae1" d="M100.44,-509.91C128.81,-498.43 173.43,-480.38 205.8,-467.28"/>
<polygon fill="#9ecae1" stroke="#9ecae1" points="206.88,-470.21 214.84,-463.22 204.26,-463.72 206.88,-470.21"/>
</g>
<!-- c&#45;df&#45;global&#45;100 -->
<g id="node3" class="node">
<title>c&#45;df&#45;global&#45;100</title>
<polygon fill="none" stroke="black" points="228.78,-108 139.28,-108 139.28,-72 228.78,-72 228.78,-108"/>
<text text-anchor="middle" x="184.03" y="-85.72" font-family="Times,serif" font-size="12.00">c&#45;df&#45;global&#45;100</text>
</g>
<!-- c&#45;ast&#45;100&#45;&gt;c&#45;df&#45;global&#45;100 -->
<g id="edge2" class="edge">
<title>c&#45;ast&#45;100&#45;&gt;c&#45;df&#45;global&#45;100</title>
<path fill="none" stroke="#9ecae1" d="M216,-435.19C174.86,-413.95 106.03,-369.14 106.03,-307 106.03,-307 106.03,-307 106.03,-233 106.03,-192.55 104.77,-179.01 125.03,-144 131.26,-133.23 140.44,-123.47 149.72,-115.33"/>
<polygon fill="#9ecae1" stroke="#9ecae1" points="151.7,-117.41 157.18,-108.34 147.24,-112.01 151.7,-117.41"/>
</g>
<!-- c&#45;df&#45;local&#45;100 -->
<g id="node4" class="node">
<title>c&#45;df&#45;local&#45;100</title>
<polygon fill="none" stroke="black" points="287.41,-396 204.66,-396 204.66,-360 287.41,-360 287.41,-396"/>
<text text-anchor="middle" x="246.03" y="-373.73" font-family="Times,serif" font-size="12.00">c&#45;df&#45;local&#45;100</text>
</g>
<!-- c&#45;ast&#45;100&#45;&gt;c&#45;df&#45;local&#45;100 -->
<g id="edge3" class="edge">
<title>c&#45;ast&#45;100&#45;&gt;c&#45;df&#45;local&#45;100</title>
<path fill="none" stroke="#4292c6" d="M234.2,-431.7C232.66,-424.24 232.19,-415.32 232.78,-406.97"/>
<polygon fill="#4292c6" stroke="#4292c6" points="236.37,-407.48 234.24,-397.1 229.44,-406.55 236.37,-407.48"/>
</g>
<!-- c&#45;ast&#45;100&#45;&gt;c&#45;df&#45;local&#45;100 -->
<g id="edge4" class="edge">
<title>c&#45;ast&#45;100&#45;&gt;c&#45;df&#45;local&#45;100</title>
<path fill="none" stroke="#08519c" d="M246.03,-431.7C246.03,-424.24 246.03,-415.32 246.03,-406.97"/>
<polygon fill="#08519c" stroke="#08519c" points="249.53,-407.1 246.03,-397.1 242.53,-407.1 249.53,-407.1"/>
</g>
<!-- c&#45;ast&#45;100&#45;&gt;c&#45;df&#45;local&#45;100 -->
<g id="edge5" class="edge">
<title>c&#45;ast&#45;100&#45;&gt;c&#45;df&#45;local&#45;100</title>
<path fill="none" stroke="#a1d99b" d="M257.86,-431.7C259.4,-424.24 259.88,-415.32 259.29,-406.97"/>
<polygon fill="#a1d99b" stroke="#a1d99b" points="262.63,-406.55 257.82,-397.1 255.69,-407.48 262.63,-406.55"/>
</g>
<!-- c&#45;goal&#45;&#45;110 -->
<g id="node5" class="node">
<title>c&#45;goal&#45;&#45;110</title>
<polygon fill="none" stroke="black" points="110.06,-23.56 55.03,-36 0,-23.56 0.05,-3.44 110.01,-3.44 110.06,-23.56"/>
<text text-anchor="middle" x="55.03" y="-13.73" font-family="Times,serif" font-size="12.00">c&#45;goal&#45;&#45;110</text>
</g>
<!-- c&#45;df&#45;global&#45;100&#45;&gt;c&#45;goal&#45;&#45;110 -->
<g id="edge6" class="edge">
<title>c&#45;df&#45;global&#45;100&#45;&gt;c&#45;goal&#45;&#45;110</title>
<path fill="none" stroke="#9ecae1" d="M151.81,-71.52C132.02,-60.78 106.77,-47.07 87.02,-36.36"/>
<polygon fill="#9ecae1" stroke="#9ecae1" points="88.99,-32.9 78.54,-31.21 85.66,-39.06 88.99,-32.9"/>
</g>
<!-- c&#45;goal&#45;&#45;120 -->
<g id="node6" class="node">
<title>c&#45;goal&#45;&#45;120</title>
<polygon fill="none" stroke="black" points="239.65,-23.56 184.03,-36 128.41,-23.56 128.46,-3.44 239.6,-3.44 239.65,-23.56"/>
<text text-anchor="middle" x="184.03" y="-13.73" font-family="Times,serif" font-size="12.00">c&#45;goal&#45;&#45;120</text>
</g>
<!-- c&#45;df&#45;global&#45;100&#45;&gt;c&#45;goal&#45;&#45;120 -->
<g id="edge7" class="edge">
<title>c&#45;df&#45;global&#45;100&#45;&gt;c&#45;goal&#45;&#45;120</title>
<path fill="none" stroke="#4292c6" d="M184.03,-71.7C184.03,-64.24 184.03,-55.32 184.03,-46.97"/>
<polygon fill="#4292c6" stroke="#4292c6" points="187.53,-47.1 184.03,-37.1 180.53,-47.1 187.53,-47.1"/>
</g>
<!-- c&#45;goal&#45;&#45;140 -->
<g id="node7" class="node">
<title>c&#45;goal&#45;&#45;140</title>
<polygon fill="none" stroke="black" points="368.65,-23.56 313.03,-36 257.41,-23.56 257.46,-3.44 368.6,-3.44 368.65,-23.56"/>
<text text-anchor="middle" x="313.03" y="-13.73" font-family="Times,serif" font-size="12.00">c&#45;goal&#45;&#45;140</text>
</g>
<!-- c&#45;df&#45;global&#45;100&#45;&gt;c&#45;goal&#45;&#45;140 -->
<g id="edge8" class="edge">
<title>c&#45;df&#45;global&#45;100&#45;&gt;c&#45;goal&#45;&#45;140</title>
<path fill="none" stroke="#a1d99b" d="M216.25,-71.52C236.04,-60.78 261.3,-47.07 281.04,-36.36"/>
<polygon fill="#a1d99b" stroke="#a1d99b" points="282.41,-39.06 289.53,-31.21 279.07,-32.9 282.41,-39.06"/>
</g>
<!-- c&#45;taint&#45;local&#45;100 -->
<g id="node9" class="node">
<title>c&#45;taint&#45;local&#45;100</title>
<polygon fill="none" stroke="black" points="292.66,-324 199.41,-324 199.41,-288 292.66,-288 292.66,-324"/>
<text text-anchor="middle" x="246.03" y="-301.73" font-family="Times,serif" font-size="12.00">c&#45;taint&#45;local&#45;100</text>
</g>
<!-- c&#45;df&#45;local&#45;100&#45;&gt;c&#45;taint&#45;local&#45;100 -->
<g id="edge10" class="edge">
<title>c&#45;df&#45;local&#45;100&#45;&gt;c&#45;taint&#45;local&#45;100</title>
<path fill="none" stroke="#4292c6" d="M234.2,-359.7C232.66,-352.24 232.19,-343.32 232.78,-334.97"/>
<polygon fill="#4292c6" stroke="#4292c6" points="236.37,-335.48 234.24,-325.1 229.44,-334.55 236.37,-335.48"/>
</g>
<!-- c&#45;df&#45;local&#45;100&#45;&gt;c&#45;taint&#45;local&#45;100 -->
<g id="edge11" class="edge">
<title>c&#45;df&#45;local&#45;100&#45;&gt;c&#45;taint&#45;local&#45;100</title>
<path fill="none" stroke="#08519c" d="M246.03,-359.7C246.03,-352.24 246.03,-343.32 246.03,-334.97"/>
<polygon fill="#08519c" stroke="#08519c" points="249.53,-335.1 246.03,-325.1 242.53,-335.1 249.53,-335.1"/>
</g>
<!-- c&#45;df&#45;local&#45;100&#45;&gt;c&#45;taint&#45;local&#45;100 -->
<g id="edge12" class="edge">
<title>c&#45;df&#45;local&#45;100&#45;&gt;c&#45;taint&#45;local&#45;100</title>
<path fill="none" stroke="#a1d99b" d="M257.86,-359.7C259.4,-352.24 259.88,-343.32 259.29,-334.97"/>
<polygon fill="#a1d99b" stroke="#a1d99b" points="262.63,-334.55 257.82,-325.1 255.69,-335.48 262.63,-334.55"/>
</g>
<!-- c&#45;start&#45;&#45;110 -->
<g id="node8" class="node">
<title>c&#45;start&#45;&#45;110</title>
<polygon fill="none" stroke="black" points="145.59,-516.44 200.03,-504 254.47,-516.44 254.42,-536.56 145.64,-536.56 145.59,-516.44"/>
<text text-anchor="middle" x="200.03" y="-517.73" font-family="Times,serif" font-size="12.00">c&#45;start&#45;&#45;110</text>
</g>
<!-- c&#45;start&#45;&#45;110&#45;&gt;c&#45;ast&#45;100 -->
<g id="edge9" class="edge">
<title>c&#45;start&#45;&#45;110&#45;&gt;c&#45;ast&#45;100</title>
<path fill="none" stroke="#4292c6" d="M210.01,-505.81C215.48,-497.49 222.42,-486.94 228.74,-477.32"/>
<polygon fill="#4292c6" stroke="#4292c6" points="232.21,-479.41 234.78,-469.13 226.36,-475.56 232.21,-479.41"/>
</g>
<!-- c&#45;taint&#45;global&#45;100 -->
<g id="node10" class="node">
<title>c&#45;taint&#45;global&#45;100</title>
<polygon fill="none" stroke="black" points="234.03,-252 134.03,-252 134.03,-216 234.03,-216 234.03,-252"/>
<text text-anchor="middle" x="184.03" y="-229.72" font-family="Times,serif" font-size="12.00">c&#45;taint&#45;global&#45;100</text>
</g>
<!-- c&#45;taint&#45;local&#45;100&#45;&gt;c&#45;taint&#45;global&#45;100 -->
<g id="edge13" class="edge">
<title>c&#45;taint&#45;local&#45;100&#45;&gt;c&#45;taint&#45;global&#45;100</title>
<path fill="none" stroke="#4292c6" d="M230.71,-287.7C223.35,-279.39 214.39,-269.28 206.3,-260.14"/>
<polygon fill="#4292c6" stroke="#4292c6" points="209.43,-258.27 200.18,-253.1 204.19,-262.91 209.43,-258.27"/>
</g>
<!-- c&#45;goal&#45;&#45;130 -->
<g id="node11" class="node">
<title>c&#45;goal&#45;&#45;130</title>
<polygon fill="none" stroke="black" points="363.65,-239.56 308.03,-252 252.41,-239.56 252.46,-219.44 363.6,-219.44 363.65,-239.56"/>
<text text-anchor="middle" x="308.03" y="-229.72" font-family="Times,serif" font-size="12.00">c&#45;goal&#45;&#45;130</text>
</g>
<!-- c&#45;taint&#45;local&#45;100&#45;&gt;c&#45;goal&#45;&#45;130 -->
<g id="edge14" class="edge">
<title>c&#45;taint&#45;local&#45;100&#45;&gt;c&#45;goal&#45;&#45;130</title>
<path fill="none" stroke="#08519c" d="M261.36,-287.7C269.46,-278.55 279.49,-267.22 288.18,-257.41"/>
<polygon fill="#08519c" stroke="#08519c" points="290.37,-260.09 294.38,-250.28 285.13,-255.44 290.37,-260.09"/>
</g>
<!-- c&#45;lib&#45;format&#45;100 -->
<g id="node12" class="node">
<title>c&#45;lib&#45;format&#45;100</title>
<polygon fill="none" stroke="black" points="391.66,-180 298.41,-180 298.41,-144 391.66,-144 391.66,-180"/>
<text text-anchor="middle" x="345.03" y="-157.72" font-family="Times,serif" font-size="12.00">c&#45;lib&#45;format&#45;100</text>
</g>
<!-- c&#45;taint&#45;local&#45;100&#45;&gt;c&#45;lib&#45;format&#45;100 -->
<g id="edge15" class="edge">
<title>c&#45;taint&#45;local&#45;100&#45;&gt;c&#45;lib&#45;format&#45;100</title>
<path fill="none" stroke="#a1d99b" d="M292.98,-298.51C321.32,-291.92 355.28,-278.64 373.03,-252 385.65,-233.06 375.98,-208.1 364.69,-189.43"/>
<polygon fill="#a1d99b" stroke="#a1d99b" points="367.14,-187.78 358.75,-181.31 361.27,-191.6 367.14,-187.78"/>
</g>
<!-- c&#45;lib&#45;security&#45;100 -->
<g id="node13" class="node">
<title>c&#45;lib&#45;security&#45;100</title>
<polygon fill="none" stroke="black" points="233.66,-180 134.41,-180 134.41,-144 233.66,-144 233.66,-180"/>
<text text-anchor="middle" x="184.03" y="-157.72" font-family="Times,serif" font-size="12.00">c&#45;lib&#45;security&#45;100</text>
</g>
<!-- c&#45;taint&#45;global&#45;100&#45;&gt;c&#45;lib&#45;security&#45;100 -->
<g id="edge16" class="edge">
<title>c&#45;taint&#45;global&#45;100&#45;&gt;c&#45;lib&#45;security&#45;100</title>
<path fill="none" stroke="#4292c6" d="M184.03,-215.7C184.03,-208.24 184.03,-199.32 184.03,-190.97"/>
<polygon fill="#4292c6" stroke="#4292c6" points="187.53,-191.1 184.03,-181.1 180.53,-191.1 187.53,-191.1"/>
</g>
<!-- c&#45;lib&#45;format&#45;100&#45;&gt;c&#45;df&#45;global&#45;100 -->
<g id="edge20" class="edge">
<title>c&#45;lib&#45;format&#45;100&#45;&gt;c&#45;df&#45;global&#45;100</title>
<path fill="none" stroke="#a1d99b" d="M304.82,-143.52C283.32,-134.17 256.65,-122.57 233.85,-112.66"/>
<polygon fill="#a1d99b" stroke="#a1d99b" points="235.58,-109.16 225.01,-108.38 232.78,-115.58 235.58,-109.16"/>
</g>
<!-- c&#45;lib&#45;security&#45;100&#45;&gt;c&#45;df&#45;global&#45;100 -->
<g id="edge17" class="edge">
<title>c&#45;lib&#45;security&#45;100&#45;&gt;c&#45;df&#45;global&#45;100</title>
<path fill="none" stroke="#4292c6" d="M184.03,-143.7C184.03,-136.24 184.03,-127.32 184.03,-118.97"/>
<polygon fill="#4292c6" stroke="#4292c6" points="187.53,-119.1 184.03,-109.1 180.53,-119.1 187.53,-119.1"/>
</g>
<!-- c&#45;start&#45;&#45;120 -->
<g id="node14" class="node">
<title>c&#45;start&#45;&#45;120</title>
<polygon fill="none" stroke="black" points="272,-516.44 327.03,-504 382.06,-516.44 382.01,-536.56 272.05,-536.56 272,-516.44"/>
<text text-anchor="middle" x="327.03" y="-517.73" font-family="Times,serif" font-size="12.00">c&#45;start&#45;&#45;120</text>
</g>
<!-- c&#45;start&#45;&#45;120&#45;&gt;c&#45;ast&#45;100 -->
<g id="edge18" class="edge">
<title>c&#45;start&#45;&#45;120&#45;&gt;c&#45;ast&#45;100</title>
<path fill="none" stroke="#08519c" d="M311.03,-507.17C300.54,-498.11 286.54,-486.01 274.22,-475.36"/>
<polygon fill="#08519c" stroke="#08519c" points="276.88,-472.17 267.02,-468.28 272.3,-477.46 276.88,-472.17"/>
</g>
<!-- c&#45;start&#45;&#45;130 -->
<g id="node15" class="node">
<title>c&#45;start&#45;&#45;130</title>
<polygon fill="none" stroke="black" points="400,-516.44 455.03,-504 510.06,-516.44 510.01,-536.56 400.05,-536.56 400,-516.44"/>
<text text-anchor="middle" x="455.03" y="-517.73" font-family="Times,serif" font-size="12.00">c&#45;start&#45;&#45;130</text>
</g>
<!-- c&#45;start&#45;&#45;130&#45;&gt;c&#45;ast&#45;100 -->
<g id="edge19" class="edge">
<title>c&#45;start&#45;&#45;130&#45;&gt;c&#45;ast&#45;100</title>
<path fill="none" stroke="#a1d99b" d="M424.19,-510.67C387.61,-498.42 326.51,-477.95 286.24,-464.47"/>
<polygon fill="#a1d99b" stroke="#a1d99b" points="287.57,-460.89 276.98,-461.03 285.35,-467.53 287.57,-460.89"/>
</g>
<!-- java&#45;start&#45;&#45;100 -->
<g id="node16" class="node">
<title>java&#45;start&#45;&#45;100</title>
<polygon fill="none" stroke="black" points="527.8,-516.44 594.03,-504 660.27,-516.44 660.2,-536.56 527.86,-536.56 527.8,-516.44"/>
<text text-anchor="middle" x="594.03" y="-517.73" font-family="Times,serif" font-size="12.00">java&#45;start&#45;&#45;100</text>
</g>
<!-- java&#45;ast&#45;100 -->
<g id="node17" class="node">
<title>java&#45;ast&#45;100</title>
<polygon fill="none" stroke="black" points="630.91,-468 557.16,-468 557.16,-432 630.91,-432 630.91,-468"/>
<text text-anchor="middle" x="594.03" y="-445.73" font-family="Times,serif" font-size="12.00">java&#45;ast&#45;100</text>
</g>
<!-- java&#45;start&#45;&#45;100&#45;&gt;java&#45;ast&#45;100 -->
<g id="edge21" class="edge">
<title>java&#45;start&#45;&#45;100&#45;&gt;java&#45;ast&#45;100</title>
<path fill="none" stroke="#41ab5d" d="M594.03,-503.7C594.03,-496.24 594.03,-487.32 594.03,-478.97"/>
<polygon fill="#41ab5d" stroke="#41ab5d" points="597.53,-479.1 594.03,-469.1 590.53,-479.1 597.53,-479.1"/>
</g>
<!-- java&#45;df&#45;local&#45;100 -->
<g id="node18" class="node">
<title>java&#45;df&#45;local&#45;100</title>
<polygon fill="none" stroke="black" points="642.53,-396 545.53,-396 545.53,-360 642.53,-360 642.53,-396"/>
<text text-anchor="middle" x="594.03" y="-373.73" font-family="Times,serif" font-size="12.00">java&#45;df&#45;local&#45;100</text>
</g>
<!-- java&#45;ast&#45;100&#45;&gt;java&#45;df&#45;local&#45;100 -->
<g id="edge22" class="edge">
<title>java&#45;ast&#45;100&#45;&gt;java&#45;df&#45;local&#45;100</title>
<path fill="none" stroke="#41ab5d" d="M594.03,-431.7C594.03,-424.24 594.03,-415.32 594.03,-406.97"/>
<polygon fill="#41ab5d" stroke="#41ab5d" points="597.53,-407.1 594.03,-397.1 590.53,-407.1 597.53,-407.1"/>
</g>
<!-- java&#45;df&#45;global&#45;100 -->
<g id="node19" class="node">
<title>java&#45;df&#45;global&#45;100</title>
<polygon fill="none" stroke="black" points="645.91,-324 542.16,-324 542.16,-288 645.91,-288 645.91,-324"/>
<text text-anchor="middle" x="594.03" y="-301.73" font-family="Times,serif" font-size="12.00">java&#45;df&#45;global&#45;100</text>
</g>
<!-- java&#45;df&#45;local&#45;100&#45;&gt;java&#45;df&#45;global&#45;100 -->
<g id="edge23" class="edge">
<title>java&#45;df&#45;local&#45;100&#45;&gt;java&#45;df&#45;global&#45;100</title>
<path fill="none" stroke="#41ab5d" d="M594.03,-359.7C594.03,-352.24 594.03,-343.32 594.03,-334.97"/>
<polygon fill="#41ab5d" stroke="#41ab5d" points="597.53,-335.1 594.03,-325.1 590.53,-335.1 597.53,-335.1"/>
</g>
<!-- java&#45;goal&#45;&#45;110 -->
<g id="node20" class="node">
<title>java&#45;goal&#45;&#45;110</title>
<polygon fill="none" stroke="black" points="660.27,-239.56 594.03,-252 527.8,-239.56 527.86,-219.44 660.2,-219.44 660.27,-239.56"/>
<text text-anchor="middle" x="594.03" y="-229.72" font-family="Times,serif" font-size="12.00">java&#45;goal&#45;&#45;110</text>
</g>
<!-- java&#45;df&#45;global&#45;100&#45;&gt;java&#45;goal&#45;&#45;110 -->
<g id="edge24" class="edge">
<title>java&#45;df&#45;global&#45;100&#45;&gt;java&#45;goal&#45;&#45;110</title>
<path fill="none" stroke="#41ab5d" d="M594.03,-287.7C594.03,-280.24 594.03,-271.32 594.03,-262.97"/>
<polygon fill="#41ab5d" stroke="#41ab5d" points="597.53,-263.1 594.03,-253.1 590.53,-263.1 597.53,-263.1"/>
</g>
</g>
</svg>
