<?xml version="1.0" encoding="UTF-8" standalone="no"?>
<?xml-stylesheet href="graphstyle.css" type="text/css"?>
<!DOCTYPE svg PUBLIC "-//W3C//DTD SVG 1.1//EN"
 "http://www.w3.org/Graphics/SVG/1.1/DTD/svg11.dtd">
<!-- Generated by graphviz version 8.0.5 (0)
 -->
<!-- Pages: 1 -->
<svg width="2082pt" height="332pt"
 viewBox="0.00 0.00 2081.83 332.00" xmlns="http://www.w3.org/2000/svg" xmlns:xlink="http://www.w3.org/1999/xlink">
<g id="graph0" class="graph" transform="scale(1 1) rotate(0) translate(4 328)">
<polygon fill="white" stroke="none" points="-4,4 -4,-328 2077.83,-328 2077.83,4 -4,4"/>
<!-- c&#45;goal&#45;100 -->
<g id="node1" class="node">
<title>c&#45;goal&#45;100</title>
<polygon fill="none" stroke="black" points="886.55,-239.56 833.88,-252 781.2,-239.56 781.25,-219.44 886.5,-219.44 886.55,-239.56"/>
<text text-anchor="middle" x="833.88" y="-229.72" font-family="Times,serif" font-size="12.00">c&#45;goal&#45;100</text>
</g>
<!-- cp&#45;ql&#45;customizer -->
<g id="node2" class="node">
<title>cp&#45;ql&#45;customizer</title>
<ellipse fill="lightblue" stroke="black" cx="587.88" cy="-162" rx="60.26" ry="18"/>
<text text-anchor="middle" x="587.88" y="-157.72" font-family="Times,serif" font-size="12.00">cp&#45;ql&#45;customizer</text>
</g>
<!-- c&#45;goal&#45;100&#45;&gt;cp&#45;ql&#45;customizer -->
<g id="edge1" class="edge">
<title>c&#45;goal&#45;100&#45;&gt;cp&#45;ql&#45;customizer</title>
<path fill="none" stroke="black" stroke-width="3" d="M784.68,-219C743.94,-207.41 686.06,-190.94 643.61,-178.86"/>
<polygon fill="black" stroke="black" stroke-width="3" points="644.99,-175.48 634.42,-176.11 643.08,-182.21 644.99,-175.48"/>
</g>
<!-- cp&#45;ql&#45;writer&#45;200 -->
<g id="node3" class="node">
<title>cp&#45;ql&#45;writer&#45;200</title>
<ellipse fill="lightblue" stroke="black" cx="631.88" cy="-18" rx="59.31" ry="18"/>
<text text-anchor="middle" x="631.88" y="-13.72" font-family="Times,serif" font-size="12.00">cp&#45;ql&#45;writer&#45;200</text>
</g>
<!-- c&#45;goal&#45;100&#45;&gt;cp&#45;ql&#45;writer&#45;200 -->
<g id="edge2" class="edge">
<title>c&#45;goal&#45;100&#45;&gt;cp&#45;ql&#45;writer&#45;200</title>
<path fill="none" stroke="black" stroke-width="3" d="M784.46,-218.95C749.96,-208.27 707.86,-193.22 694.88,-180 659.11,-143.6 675.08,-119.28 655.88,-72 652.79,-64.4 649.24,-56.28 645.84,-48.74"/>
<polygon fill="black" stroke="black" stroke-width="3" points="648.36,-47.66 641,-40.04 642,-50.59 648.36,-47.66"/>
</g>
<!-- cp&#45;ql&#45;writer&#45;100 -->
<g id="node16" class="node">
<title>cp&#45;ql&#45;writer&#45;100</title>
<ellipse fill="lightblue" stroke="black" cx="587.88" cy="-90" rx="59.31" ry="18"/>
<text text-anchor="middle" x="587.88" y="-85.72" font-family="Times,serif" font-size="12.00">cp&#45;ql&#45;writer&#45;100</text>
</g>
<!-- cp&#45;ql&#45;customizer&#45;&gt;cp&#45;ql&#45;writer&#45;100 -->
<g id="edge31" class="edge">
<title>cp&#45;ql&#45;customizer&#45;&gt;cp&#45;ql&#45;writer&#45;100</title>
<path fill="none" stroke="#807dba" stroke-width="3" d="M587.88,-143.7C587.88,-137.08 587.88,-129.33 587.88,-121.83"/>
<polygon fill="#807dba" stroke="#807dba" stroke-width="3" points="591.38,-122.1 587.88,-112.1 584.38,-122.1 591.38,-122.1"/>
</g>
<!-- ql&#45;classes&#45;100 -->
<g id="node4" class="node">
<title>ql&#45;classes&#45;100</title>
<text text-anchor="middle" x="710.88" y="-301.73" font-family="Times,serif" font-size="12.00">ql&#45;classes&#45;100</text>
</g>
<!-- ql&#45;classes&#45;100&#45;&gt;c&#45;goal&#45;100 -->
<g id="edge3" class="edge">
<title>ql&#45;classes&#45;100&#45;&gt;c&#45;goal&#45;100</title>
<path fill="none" stroke="#9ecae1" d="M721.36,-299.03C739.26,-288.84 776.37,-267.72 803.09,-252.52"/>
<polygon fill="#9ecae1" stroke="#9ecae1" points="804.44,-255.21 811.4,-247.22 800.98,-249.12 804.44,-255.21"/>
</g>
<!-- c&#45;goal&#45;150 -->
<g id="node5" class="node">
<title>c&#45;goal&#45;150</title>
<polygon fill="none" stroke="black" points="763.55,-239.56 710.88,-252 658.2,-239.56 658.25,-219.44 763.5,-219.44 763.55,-239.56"/>
<text text-anchor="middle" x="710.88" y="-229.72" font-family="Times,serif" font-size="12.00">c&#45;goal&#45;150</text>
</g>
<!-- ql&#45;classes&#45;100&#45;&gt;c&#45;goal&#45;150 -->
<g id="edge4" class="edge">
<title>ql&#45;classes&#45;100&#45;&gt;c&#45;goal&#45;150</title>
<path fill="none" stroke="#006d2c" d="M710.88,-299.03C710.88,-291.02 710.88,-276.27 710.88,-262.93"/>
<polygon fill="#006d2c" stroke="#006d2c" points="714.38,-263.25 710.88,-253.25 707.38,-263.25 714.38,-263.25"/>
</g>
<!-- c&#45;goal&#45;150&#45;&gt;cp&#45;ql&#45;customizer -->
<g id="edge20" class="edge">
<title>c&#45;goal&#45;150&#45;&gt;cp&#45;ql&#45;customizer</title>
<path fill="none" stroke="black" stroke-width="3" d="M686.28,-219C669.37,-209.38 646.56,-196.4 627.16,-185.35"/>
<polygon fill="black" stroke="black" stroke-width="3" points="628.42,-182.34 617.99,-180.43 624.95,-188.42 628.42,-182.34"/>
</g>
<!-- ql&#45;predicates&#45;100 -->
<g id="node6" class="node">
<title>ql&#45;predicates&#45;100</title>
<text text-anchor="middle" x="960.88" y="-301.73" font-family="Times,serif" font-size="12.00">ql&#45;predicates&#45;100</text>
</g>
<!-- ql&#45;predicates&#45;100&#45;&gt;c&#45;goal&#45;100 -->
<g id="edge5" class="edge">
<title>ql&#45;predicates&#45;100&#45;&gt;c&#45;goal&#45;100</title>
<path fill="none" stroke="#9ecae1" d="M950.05,-299.03C931.56,-288.84 893.25,-267.72 865.67,-252.52"/>
<polygon fill="#9ecae1" stroke="#9ecae1" points="867.49,-248.98 857.05,-247.22 864.11,-255.11 867.49,-248.98"/>
</g>
<!-- ql&#45;exists&#45;100 -->
<g id="node7" class="node">
<title>ql&#45;exists&#45;100</title>
<text text-anchor="middle" x="792.88" y="-301.73" font-family="Times,serif" font-size="12.00">ql&#45;exists&#45;100</text>
</g>
<!-- ql&#45;exists&#45;100&#45;&gt;c&#45;goal&#45;100 -->
<g id="edge6" class="edge">
<title>ql&#45;exists&#45;100&#45;&gt;c&#45;goal&#45;100</title>
<path fill="none" stroke="#9ecae1" d="M796.37,-299.03C801.47,-290.33 811.24,-273.65 819.53,-259.49"/>
<polygon fill="#9ecae1" stroke="#9ecae1" points="822.92,-261.62 824.96,-251.23 816.88,-258.09 822.92,-261.62"/>
</g>
<!-- ql&#45;select&#45;100 -->
<g id="node8" class="node">
<title>ql&#45;select&#45;100</title>
<text text-anchor="middle" x="871.88" y="-301.73" font-family="Times,serif" font-size="12.00">ql&#45;select&#45;100</text>
</g>
<!-- ql&#45;select&#45;100&#45;&gt;c&#45;goal&#45;100 -->
<g id="edge7" class="edge">
<title>ql&#45;select&#45;100&#45;&gt;c&#45;goal&#45;100</title>
<path fill="none" stroke="#9ecae1" d="M868.64,-299.03C863.98,-290.47 855.14,-274.17 847.53,-260.16"/>
<polygon fill="#9ecae1" stroke="#9ecae1" points="850.14,-258.63 842.3,-251.51 843.99,-261.97 850.14,-258.63"/>
</g>
<!-- c&#45;goal&#45;105 -->
<g id="node9" class="node">
<title>c&#45;goal&#45;105</title>
<polygon fill="none" stroke="black" points="1205.55,-239.56 1152.88,-252 1100.2,-239.56 1100.25,-219.44 1205.5,-219.44 1205.55,-239.56"/>
<text text-anchor="middle" x="1152.88" y="-229.72" font-family="Times,serif" font-size="12.00">c&#45;goal&#45;105</text>
</g>
<!-- cli&#45;build&#45;100 -->
<g id="node10" class="node">
<title>cli&#45;build&#45;100</title>
<polygon fill="none" stroke="black" points="1096.25,-324 1019.5,-324 1019.5,-288 1096.25,-288 1096.25,-324"/>
<text text-anchor="middle" x="1057.88" y="-301.73" font-family="Times,serif" font-size="12.00">cli&#45;build&#45;100</text>
</g>
<!-- cli&#45;build&#45;100&#45;&gt;c&#45;goal&#45;105 -->
<g id="edge8" class="edge">
<title>cli&#45;build&#45;100&#45;&gt;c&#45;goal&#45;105</title>
<path fill="none" stroke="#4292c6" d="M1081.36,-287.7C1094.97,-277.67 1112.15,-265.01 1126.26,-254.61"/>
<polygon fill="#4292c6" stroke="#4292c6" points="1128.05,-256.9 1134.03,-248.15 1123.9,-251.27 1128.05,-256.9"/>
</g>
<!-- cli&#45;build&#45;300 -->
<g id="node11" class="node">
<title>cli&#45;build&#45;300</title>
<polygon fill="none" stroke="black" points="1191.25,-324 1114.5,-324 1114.5,-288 1191.25,-288 1191.25,-324"/>
<text text-anchor="middle" x="1152.88" y="-301.73" font-family="Times,serif" font-size="12.00">cli&#45;build&#45;300</text>
</g>
<!-- cli&#45;build&#45;300&#45;&gt;c&#45;goal&#45;105 -->
<g id="edge9" class="edge">
<title>cli&#45;build&#45;300&#45;&gt;c&#45;goal&#45;105</title>
<path fill="none" stroke="#4292c6" d="M1152.88,-287.7C1152.88,-280.24 1152.88,-271.32 1152.88,-262.97"/>
<polygon fill="#4292c6" stroke="#4292c6" points="1156.38,-263.1 1152.88,-253.1 1149.38,-263.1 1156.38,-263.1"/>
</g>
<!-- cli&#45;sarif&#45;300 -->
<g id="node12" class="node">
<title>cli&#45;sarif&#45;300</title>
<polygon fill="none" stroke="black" points="1282.38,-324 1209.38,-324 1209.38,-288 1282.38,-288 1282.38,-324"/>
<text text-anchor="middle" x="1245.88" y="-301.73" font-family="Times,serif" font-size="12.00">cli&#45;sarif&#45;300</text>
</g>
<!-- cli&#45;sarif&#45;300&#45;&gt;c&#45;goal&#45;105 -->
<g id="edge10" class="edge">
<title>cli&#45;sarif&#45;300&#45;&gt;c&#45;goal&#45;105</title>
<path fill="none" stroke="#4292c6" d="M1222.89,-287.7C1209.56,-277.67 1192.74,-265.01 1178.93,-254.61"/>
<polygon fill="#4292c6" stroke="#4292c6" points="1181.44,-251.37 1171.35,-248.15 1177.23,-256.96 1181.44,-251.37"/>
</g>
<!-- c&#45;goal&#45;110 -->
<g id="node13" class="node">
<title>c&#45;goal&#45;110</title>
<polygon fill="none" stroke="black" points="516.96,-239.56 464.88,-252 412.79,-239.56 412.84,-219.44 516.91,-219.44 516.96,-239.56"/>
<text text-anchor="middle" x="464.88" y="-229.72" font-family="Times,serif" font-size="12.00">c&#45;goal&#45;110</text>
</g>
<!-- c&#45;goal&#45;110&#45;&gt;cp&#45;ql&#45;customizer -->
<g id="edge11" class="edge">
<title>c&#45;goal&#45;110&#45;&gt;cp&#45;ql&#45;customizer</title>
<path fill="none" stroke="black" stroke-width="3" d="M489.47,-219C506.38,-209.38 529.19,-196.4 548.59,-185.35"/>
<polygon fill="black" stroke="black" stroke-width="3" points="550.8,-188.42 557.76,-180.43 547.33,-182.34 550.8,-188.42"/>
</g>
<!-- c&#45;goal&#45;120 -->
<g id="node14" class="node">
<title>c&#45;goal&#45;120</title>
<polygon fill="none" stroke="black" points="640.55,-239.56 587.88,-252 535.2,-239.56 535.25,-219.44 640.5,-219.44 640.55,-239.56"/>
<text text-anchor="middle" x="587.88" y="-229.72" font-family="Times,serif" font-size="12.00">c&#45;goal&#45;120</text>
</g>
<!-- c&#45;goal&#45;120&#45;&gt;cp&#45;ql&#45;customizer -->
<g id="edge12" class="edge">
<title>c&#45;goal&#45;120&#45;&gt;cp&#45;ql&#45;customizer</title>
<path fill="none" stroke="black" stroke-width="3" d="M587.88,-219.17C587.88,-212.02 587.88,-202.99 587.88,-194.27"/>
<polygon fill="black" stroke="black" stroke-width="3" points="591.38,-194.28 587.88,-184.28 584.38,-194.28 591.38,-194.28"/>
</g>
<!-- c&#45;goal&#45;140 -->
<g id="node15" class="node">
<title>c&#45;goal&#45;140</title>
<polygon fill="none" stroke="black" points="280.55,-167.56 227.88,-180 175.2,-167.56 175.25,-147.44 280.5,-147.44 280.55,-167.56"/>
<text text-anchor="middle" x="227.88" y="-157.72" font-family="Times,serif" font-size="12.00">c&#45;goal&#45;140</text>
</g>
<!-- c&#45;goal&#45;140&#45;&gt;cp&#45;ql&#45;writer&#45;200 -->
<g id="edge14" class="edge">
<title>c&#45;goal&#45;140&#45;&gt;cp&#45;ql&#45;writer&#45;200</title>
<path fill="none" stroke="black" stroke-width="3" d="M267.72,-147C341.56,-121.04 499.55,-65.51 581,-36.88"/>
<polygon fill="black" stroke="black" stroke-width="3" points="581.83,-39.9 590.1,-33.28 579.51,-33.29 581.83,-39.9"/>
</g>
<!-- c&#45;goal&#45;140&#45;&gt;cp&#45;ql&#45;writer&#45;100 -->
<g id="edge13" class="edge">
<title>c&#45;goal&#45;140&#45;&gt;cp&#45;ql&#45;writer&#45;100</title>
<path fill="none" stroke="black" stroke-width="3" d="M280.99,-150.67C346.04,-138.02 456.07,-116.63 525.2,-103.19"/>
<polygon fill="black" stroke="black" stroke-width="3" points="525.73,-105.87 534.88,-100.53 524.39,-99 525.73,-105.87"/>
</g>
<!-- cp&#45;ql&#45;writer&#45;100&#45;&gt;cp&#45;ql&#45;writer&#45;200 -->
<g id="edge32" class="edge">
<title>cp&#45;ql&#45;writer&#45;100&#45;&gt;cp&#45;ql&#45;writer&#45;200</title>
<path fill="none" stroke="#54278f" stroke-width="3" d="M598.53,-72.05C603.17,-64.66 608.75,-55.79 614.01,-47.43"/>
<polygon fill="#54278f" stroke="#54278f" stroke-width="3" points="616.96,-49.12 619.32,-38.79 611.04,-45.39 616.96,-49.12"/>
</g>
<!-- ql&#45;recursion&#45;100 -->
<g id="node17" class="node">
<title>ql&#45;recursion&#45;100</title>
<text text-anchor="middle" x="126.88" y="-229.72" font-family="Times,serif" font-size="12.00">ql&#45;recursion&#45;100</text>
</g>
<!-- ql&#45;recursion&#45;100&#45;&gt;c&#45;goal&#45;140 -->
<g id="edge15" class="edge">
<title>ql&#45;recursion&#45;100&#45;&gt;c&#45;goal&#45;140</title>
<path fill="none" stroke="#41ab5d" d="M135.49,-227.03C149.68,-217.2 178.57,-197.17 200.29,-182.12"/>
<polygon fill="#41ab5d" stroke="#41ab5d" points="201.87,-184.59 208.09,-176.02 197.88,-178.84 201.87,-184.59"/>
</g>
<!-- ql&#45;dominators&#45;100 -->
<g id="node18" class="node">
<title>ql&#45;dominators&#45;100</title>
<text text-anchor="middle" x="227.88" y="-229.72" font-family="Times,serif" font-size="12.00">ql&#45;dominators&#45;100</text>
</g>
<!-- ql&#45;dominators&#45;100&#45;&gt;c&#45;goal&#45;140 -->
<g id="edge16" class="edge">
<title>ql&#45;dominators&#45;100&#45;&gt;c&#45;goal&#45;140</title>
<path fill="none" stroke="#41ab5d" d="M227.88,-227.03C227.88,-219.02 227.88,-204.27 227.88,-190.93"/>
<polygon fill="#41ab5d" stroke="#41ab5d" points="231.38,-191.25 227.88,-181.25 224.38,-191.25 231.38,-191.25"/>
</g>
<!-- ql&#45;choices&#45;100 -->
<g id="node19" class="node">
<title>ql&#45;choices&#45;100</title>
<text text-anchor="middle" x="34.88" y="-229.72" font-family="Times,serif" font-size="12.00">ql&#45;choices&#45;100</text>
</g>
<!-- ql&#45;choices&#45;100&#45;&gt;c&#45;goal&#45;140 -->
<g id="edge17" class="edge">
<title>ql&#45;choices&#45;100&#45;&gt;c&#45;goal&#45;140</title>
<path fill="none" stroke="#41ab5d" d="M50.31,-226.92C58.73,-223.63 69.35,-219.53 78.88,-216 115.72,-202.33 157.94,-187.38 188.01,-176.85"/>
<polygon fill="#41ab5d" stroke="#41ab5d" points="188.82,-179.93 197.11,-173.32 186.51,-173.32 188.82,-179.93"/>
</g>
<!-- ql&#45;modules&#45;100 -->
<g id="node20" class="node">
<title>ql&#45;modules&#45;100</title>
<text text-anchor="middle" x="481.88" y="-301.73" font-family="Times,serif" font-size="12.00">ql&#45;modules&#45;100</text>
</g>
<!-- ql&#45;modules&#45;100&#45;&gt;c&#45;goal&#45;150 -->
<g id="edge18" class="edge">
<title>ql&#45;modules&#45;100&#45;&gt;c&#45;goal&#45;150</title>
<path fill="none" stroke="#006d2c" d="M501.8,-298.91C538.8,-287.6 618.88,-263.12 668.49,-247.96"/>
<polygon fill="#006d2c" stroke="#006d2c" points="669.35,-251.05 677.89,-244.78 667.3,-244.35 669.35,-251.05"/>
</g>
<!-- c&#45;goal&#45;160 -->
<g id="node21" class="node">
<title>c&#45;goal&#45;160</title>
<polygon fill="none" stroke="black" points="394.55,-239.56 341.88,-252 289.2,-239.56 289.25,-219.44 394.5,-219.44 394.55,-239.56"/>
<text text-anchor="middle" x="341.88" y="-229.72" font-family="Times,serif" font-size="12.00">c&#45;goal&#45;160</text>
</g>
<!-- ql&#45;modules&#45;100&#45;&gt;c&#45;goal&#45;160 -->
<g id="edge19" class="edge">
<title>ql&#45;modules&#45;100&#45;&gt;c&#45;goal&#45;160</title>
<path fill="none" stroke="#bdbdbd" d="M469.94,-299.03C449.2,-288.66 405.84,-266.98 375.33,-251.73"/>
<polygon fill="#bdbdbd" stroke="#bdbdbd" points="377.04,-248.17 366.53,-246.83 373.91,-254.43 377.04,-248.17"/>
</g>
<!-- c&#45;goal&#45;170 -->
<g id="node22" class="node">
<title>c&#45;goal&#45;170</title>
<polygon fill="none" stroke="black" points="1405.55,-311.56 1352.88,-324 1300.2,-311.56 1300.25,-291.44 1405.5,-291.44 1405.55,-311.56"/>
<text text-anchor="middle" x="1352.88" y="-301.73" font-family="Times,serif" font-size="12.00">c&#45;goal&#45;170</text>
</g>
<!-- ql&#45;casts&#45;100 -->
<g id="node23" class="node">
<title>ql&#45;casts&#45;100</title>
<text text-anchor="middle" x="1451.88" y="-301.73" font-family="Times,serif" font-size="12.00">ql&#45;casts&#45;100</text>
</g>
<!-- c&#45;goal&#45;380 -->
<g id="node24" class="node">
<title>c&#45;goal&#45;380</title>
<polygon fill="none" stroke="black" points="1552.55,-239.56 1499.88,-252 1447.2,-239.56 1447.25,-219.44 1552.5,-219.44 1552.55,-239.56"/>
<text text-anchor="middle" x="1499.88" y="-229.72" font-family="Times,serif" font-size="12.00">c&#45;goal&#45;380</text>
</g>
<!-- ql&#45;casts&#45;100&#45;&gt;c&#45;goal&#45;380 -->
<g id="edge21" class="edge">
<title>ql&#45;casts&#45;100&#45;&gt;c&#45;goal&#45;380</title>
<path fill="none" stroke="#252525" d="M1455.97,-299.03C1462.03,-290.19 1473.74,-273.12 1483.54,-258.82"/>
<polygon fill="#252525" stroke="#252525" points="1486.86,-261.17 1489.63,-250.94 1481.09,-257.21 1486.86,-261.17"/>
</g>
<!-- ql&#45;named_select&#45;100 -->
<g id="node25" class="node">
<title>ql&#45;named_select&#45;100</title>
<text text-anchor="middle" x="1547.88" y="-301.73" font-family="Times,serif" font-size="12.00">ql&#45;named_select&#45;100</text>
</g>
<!-- ql&#45;named_select&#45;100&#45;&gt;c&#45;goal&#45;380 -->
<g id="edge22" class="edge">
<title>ql&#45;named_select&#45;100&#45;&gt;c&#45;goal&#45;380</title>
<path fill="none" stroke="#252525" d="M1543.78,-299.03C1537.72,-290.19 1526.01,-273.12 1516.21,-258.82"/>
<polygon fill="#252525" stroke="#252525" points="1518.66,-257.21 1510.12,-250.94 1512.89,-261.17 1518.66,-257.21"/>
</g>
<!-- ql&#45;adts&#45;300 -->
<g id="node26" class="node">
<title>ql&#45;adts&#45;300</title>
<text text-anchor="middle" x="1641.88" y="-301.73" font-family="Times,serif" font-size="12.00">ql&#45;adts&#45;300</text>
</g>
<!-- c&#45;goal&#45;390 -->
<g id="node27" class="node">
<title>c&#45;goal&#45;390</title>
<polygon fill="none" stroke="black" points="1790.55,-239.56 1737.88,-252 1685.2,-239.56 1685.25,-219.44 1790.5,-219.44 1790.55,-239.56"/>
<text text-anchor="middle" x="1737.88" y="-229.72" font-family="Times,serif" font-size="12.00">c&#45;goal&#45;390</text>
</g>
<!-- ql&#45;adts&#45;300&#45;&gt;c&#45;goal&#45;390 -->
<g id="edge23" class="edge">
<title>ql&#45;adts&#45;300&#45;&gt;c&#45;goal&#45;390</title>
<path fill="none" stroke="#fdae6b" d="M1650.06,-299.03C1663.49,-289.24 1690.77,-269.35 1711.38,-254.32"/>
<polygon fill="#fdae6b" stroke="#fdae6b" points="1713,-256.74 1719.02,-248.02 1708.88,-251.08 1713,-256.74"/>
</g>
<!-- ql&#45;adt_subclasses&#45;300 -->
<g id="node28" class="node">
<title>ql&#45;adt_subclasses&#45;300</title>
<text text-anchor="middle" x="1737.88" y="-301.73" font-family="Times,serif" font-size="12.00">ql&#45;adt_subclasses&#45;300</text>
</g>
<!-- ql&#45;adt_subclasses&#45;300&#45;&gt;c&#45;goal&#45;390 -->
<g id="edge24" class="edge">
<title>ql&#45;adt_subclasses&#45;300&#45;&gt;c&#45;goal&#45;390</title>
<path fill="none" stroke="#fdae6b" d="M1737.88,-299.03C1737.88,-291.02 1737.88,-276.27 1737.88,-262.93"/>
<polygon fill="#fdae6b" stroke="#fdae6b" points="1741.38,-263.25 1737.88,-253.25 1734.38,-263.25 1741.38,-263.25"/>
</g>
<!-- ql&#45;predicates&#45;300 -->
<g id="node29" class="node">
<title>ql&#45;predicates&#45;300</title>
<text text-anchor="middle" x="1848.88" y="-301.73" font-family="Times,serif" font-size="12.00">ql&#45;predicates&#45;300</text>
</g>
<!-- ql&#45;predicates&#45;300&#45;&gt;c&#45;goal&#45;390 -->
<g id="edge25" class="edge">
<title>ql&#45;predicates&#45;300&#45;&gt;c&#45;goal&#45;390</title>
<path fill="none" stroke="#fdae6b" d="M1839.41,-299.03C1823.49,-288.99 1790.73,-268.33 1766.71,-253.19"/>
<polygon fill="#fdae6b" stroke="#fdae6b" points="1769,-249.86 1758.67,-247.48 1765.26,-255.78 1769,-249.86"/>
</g>
<!-- c&#45;goal&#45;400 -->
<g id="node30" class="node">
<title>c&#45;goal&#45;400</title>
<polygon fill="none" stroke="black" points="841.55,-95.56 788.88,-108 736.2,-95.56 736.25,-75.44 841.5,-75.44 841.55,-95.56"/>
<text text-anchor="middle" x="788.88" y="-85.72" font-family="Times,serif" font-size="12.00">c&#45;goal&#45;400</text>
</g>
<!-- c&#45;goal&#45;400&#45;&gt;cp&#45;ql&#45;writer&#45;200 -->
<g id="edge26" class="edge">
<title>c&#45;goal&#45;400&#45;&gt;cp&#45;ql&#45;writer&#45;200</title>
<path fill="none" stroke="#54278f" stroke-width="3" d="M757.48,-75C734.36,-64.69 702.59,-50.53 676.79,-39.03"/>
<polygon fill="#54278f" stroke="#54278f" stroke-width="3" points="678.85,-35.33 668.29,-34.45 676,-41.72 678.85,-35.33"/>
</g>
<!-- ql&#45;modules&#45;200 -->
<g id="node31" class="node">
<title>ql&#45;modules&#45;200</title>
<text text-anchor="middle" x="740.88" y="-157.72" font-family="Times,serif" font-size="12.00">ql&#45;modules&#45;200</text>
</g>
<!-- ql&#45;modules&#45;200&#45;&gt;c&#45;goal&#45;400 -->
<g id="edge27" class="edge">
<title>ql&#45;modules&#45;200&#45;&gt;c&#45;goal&#45;400</title>
<path fill="none" stroke="#f16913" d="M744.97,-155.03C751.03,-146.19 762.74,-129.12 772.54,-114.82"/>
<polygon fill="#f16913" stroke="#f16913" points="775.86,-117.17 778.63,-106.94 770.09,-113.21 775.86,-117.17"/>
</g>
<!-- ql&#45;star&#45;200 -->
<g id="node32" class="node">
<title>ql&#45;star&#45;200</title>
<text text-anchor="middle" x="821.88" y="-157.72" font-family="Times,serif" font-size="12.00">ql&#45;star&#45;200</text>
</g>
<!-- ql&#45;star&#45;200&#45;&gt;c&#45;goal&#45;400 -->
<g id="edge28" class="edge">
<title>ql&#45;star&#45;200&#45;&gt;c&#45;goal&#45;400</title>
<path fill="none" stroke="#f16913" d="M819.06,-155.03C815.02,-146.47 807.34,-130.17 800.74,-116.16"/>
<polygon fill="#f16913" stroke="#f16913" points="803.62,-115.06 796.19,-107.51 797.29,-118.05 803.62,-115.06"/>
</g>
<!-- ql&#45;plus&#45;200 -->
<g id="node33" class="node">
<title>ql&#45;plus&#45;200</title>
<text text-anchor="middle" x="892.88" y="-157.72" font-family="Times,serif" font-size="12.00">ql&#45;plus&#45;200</text>
</g>
<!-- ql&#45;plus&#45;200&#45;&gt;c&#45;goal&#45;400 -->
<g id="edge29" class="edge">
<title>ql&#45;plus&#45;200&#45;&gt;c&#45;goal&#45;400</title>
<path fill="none" stroke="#f16913" d="M884.01,-155.03C869.31,-145.14 839.29,-124.94 816.89,-109.85"/>
<polygon fill="#f16913" stroke="#f16913" points="819.07,-106.43 808.82,-103.75 815.16,-112.24 819.07,-106.43"/>
</g>
<!-- c&#45;goal&#45;210 -->
<g id="node34" class="node">
<title>c&#45;goal&#45;210</title>
<polygon fill="none" stroke="black" points="1988.55,-239.56 1935.88,-252 1883.2,-239.56 1883.25,-219.44 1988.5,-219.44 1988.55,-239.56"/>
<text text-anchor="middle" x="1935.88" y="-229.72" font-family="Times,serif" font-size="12.00">c&#45;goal&#45;210</text>
</g>
<!-- ql&#45;casts&#45;110 -->
<g id="node35" class="node">
<title>ql&#45;casts&#45;110</title>
<text text-anchor="middle" x="1935.88" y="-301.73" font-family="Times,serif" font-size="12.00">ql&#45;casts&#45;110</text>
</g>
<!-- ql&#45;casts&#45;110&#45;&gt;c&#45;goal&#45;210 -->
<g id="edge30" class="edge">
<title>ql&#45;casts&#45;110&#45;&gt;c&#45;goal&#45;210</title>
<path fill="none" stroke="#a63603" d="M1935.88,-299.03C1935.88,-291.02 1935.88,-276.27 1935.88,-262.93"/>
<polygon fill="#a63603" stroke="#a63603" points="1939.38,-263.25 1935.88,-253.25 1932.38,-263.25 1939.38,-263.25"/>
</g>
<!-- cp&#45;beginner -->
<g id="node36" class="node">
<title>cp&#45;beginner</title>
<ellipse fill="lightblue" stroke="black" cx="2027.88" cy="-306" rx="45.95" ry="18"/>
<text text-anchor="middle" x="2027.88" y="-301.73" font-family="Times,serif" font-size="12.00">cp&#45;beginner</text>
</g>
</g>
</svg>
