<?xml version="1.0" encoding="UTF-8" standalone="no"?>
<!DOCTYPE svg PUBLIC "-//W3C//DTD SVG 1.1//EN"
 "http://www.w3.org/Graphics/SVG/1.1/DTD/svg11.dtd">
<!-- Generated by graphviz version 8.0.5 (0)
 -->
<!-- Pages: 1 -->
<svg width="318pt" height="188pt"
 viewBox="0.00 0.00 317.75 188.00" xmlns="http://www.w3.org/2000/svg" xmlns:xlink="http://www.w3.org/1999/xlink">
<g id="graph0" class="graph" transform="scale(1 1) rotate(0) translate(4 184)">
<polygon fill="white" stroke="none" points="-4,4 -4,-184 313.75,-184 313.75,4 -4,4"/>
<!-- java&#45;start&#45;100 -->
<g id="node1" class="node">
<title>java&#45;start&#45;100</title>
<polygon fill="none" stroke="black" points="180.12,-180 99.62,-180 99.62,-144 180.12,-144 180.12,-180"/>
<text text-anchor="middle" x="139.88" y="-157.72" font-family="Times,serif" font-size="12.00">java&#45;start&#45;100</text>
</g>
<!-- java&#45;ast&#45;100 -->
<g id="node2" class="node">
<title>java&#45;ast&#45;100</title>
<polygon fill="none" stroke="black" points="73.75,-108 0,-108 0,-72 73.75,-72 73.75,-108"/>
<text text-anchor="middle" x="36.88" y="-85.72" font-family="Times,serif" font-size="12.00">java&#45;ast&#45;100</text>
</g>
<!-- java&#45;start&#45;100&#45;&gt;java&#45;ast&#45;100 -->
<g id="edge1" class="edge">
<title>java&#45;start&#45;100&#45;&gt;java&#45;ast&#45;100</title>
<path fill="none" stroke="#a63603" d="M114.15,-143.52C101.15,-134.68 85.19,-123.84 71.16,-114.3"/>
<polygon fill="#a63603" stroke="#a63603" points="73.51,-110.99 63.27,-108.26 69.58,-116.78 73.51,-110.99"/>
</g>
<!-- java&#45;df&#45;local&#45;100 -->
<g id="node3" class="node">
<title>java&#45;df&#45;local&#45;100</title>
<polygon fill="none" stroke="black" points="188.38,-108 91.38,-108 91.38,-72 188.38,-72 188.38,-108"/>
<text text-anchor="middle" x="139.88" y="-85.72" font-family="Times,serif" font-size="12.00">java&#45;df&#45;local&#45;100</text>
</g>
<!-- java&#45;start&#45;100&#45;&gt;java&#45;df&#45;local&#45;100 -->
<g id="edge2" class="edge">
<title>java&#45;start&#45;100&#45;&gt;java&#45;df&#45;local&#45;100</title>
<path fill="none" stroke="#a63603" d="M139.88,-143.7C139.88,-136.24 139.88,-127.32 139.88,-118.97"/>
<polygon fill="#a63603" stroke="#a63603" points="143.38,-119.1 139.88,-109.1 136.38,-119.1 143.38,-119.1"/>
</g>
<!-- java&#45;df&#45;global&#45;100 -->
<g id="node4" class="node">
<title>java&#45;df&#45;global&#45;100</title>
<polygon fill="none" stroke="black" points="309.75,-108 206,-108 206,-72 309.75,-72 309.75,-108"/>
<text text-anchor="middle" x="257.88" y="-85.72" font-family="Times,serif" font-size="12.00">java&#45;df&#45;global&#45;100</text>
</g>
<!-- java&#45;start&#45;100&#45;&gt;java&#45;df&#45;global&#45;100 -->
<g id="edge3" class="edge">
<title>java&#45;start&#45;100&#45;&gt;java&#45;df&#45;global&#45;100</title>
<path fill="none" stroke="#a63603" d="M169.35,-143.52C184.53,-134.51 203.22,-123.42 219.51,-113.76"/>
<polygon fill="#a63603" stroke="#a63603" points="220.96,-116.37 227.78,-108.26 217.39,-110.35 220.96,-116.37"/>
</g>
<!-- java&#45;goal&#45;110 -->
<g id="node5" class="node">
<title>java&#45;goal&#45;110</title>
<polygon fill="none" stroke="black" points="180.12,-36 99.62,-36 99.62,0 180.12,0 180.12,-36"/>
<text text-anchor="middle" x="139.88" y="-13.72" font-family="Times,serif" font-size="12.00">java&#45;goal&#45;110</text>
</g>
<!-- java&#45;ast&#45;100&#45;&gt;java&#45;goal&#45;110 -->
<g id="edge4" class="edge">
<title>java&#45;ast&#45;100&#45;&gt;java&#45;goal&#45;110</title>
<path fill="none" stroke="#a63603" d="M62.6,-71.52C75.6,-62.68 91.56,-51.84 105.59,-42.3"/>
<polygon fill="#a63603" stroke="#a63603" points="107.17,-44.78 113.48,-36.26 103.24,-38.99 107.17,-44.78"/>
</g>
<!-- java&#45;df&#45;local&#45;100&#45;&gt;java&#45;goal&#45;110 -->
<g id="edge5" class="edge">
<title>java&#45;df&#45;local&#45;100&#45;&gt;java&#45;goal&#45;110</title>
<path fill="none" stroke="#a63603" d="M139.88,-71.7C139.88,-64.24 139.88,-55.32 139.88,-46.97"/>
<polygon fill="#a63603" stroke="#a63603" points="143.38,-47.1 139.88,-37.1 136.38,-47.1 143.38,-47.1"/>
</g>
<!-- java&#45;df&#45;global&#45;100&#45;&gt;java&#45;goal&#45;110 -->
<g id="edge6" class="edge">
<title>java&#45;df&#45;global&#45;100&#45;&gt;java&#45;goal&#45;110</title>
<path fill="none" stroke="#a63603" d="M228.4,-71.52C213.22,-62.51 194.53,-51.42 178.24,-41.76"/>
<polygon fill="#a63603" stroke="#a63603" points="180.36,-38.35 169.97,-36.26 176.79,-44.37 180.36,-38.35"/>
</g>
</g>
</svg>
