<?xml version="1.0" encoding="UTF-8" standalone="no"?>
<!DOCTYPE svg PUBLIC "-//W3C//DTD SVG 1.1//EN"
 "http://www.w3.org/Graphics/SVG/1.1/DTD/svg11.dtd">
<!-- Generated by graphviz version 8.0.5 (0)
 -->
<!-- Pages: 1 -->
<svg width="112pt" height="332pt"
 viewBox="0.00 0.00 111.75 332.00" xmlns="http://www.w3.org/2000/svg" xmlns:xlink="http://www.w3.org/1999/xlink">
<g id="graph0" class="graph" transform="scale(1 1) rotate(0) translate(4 328)">
<polygon fill="white" stroke="none" points="-4,4 -4,-328 107.75,-328 107.75,4 -4,4"/>
<!-- java&#45;start&#45;&#45;100 -->
<g id="node1" class="node">
<title>java&#45;start&#45;&#45;100</title>
<polygon fill="none" stroke="black" points="94,-324 9.75,-324 9.75,-288 94,-288 94,-324"/>
<text text-anchor="middle" x="51.88" y="-301.73" font-family="Times,serif" font-size="12.00">java&#45;start&#45;&#45;100</text>
</g>
<!-- java&#45;ast&#45;100 -->
<g id="node2" class="node">
<title>java&#45;ast&#45;100</title>
<polygon fill="none" stroke="black" points="88.75,-252 15,-252 15,-216 88.75,-216 88.75,-252"/>
<text text-anchor="middle" x="51.88" y="-229.72" font-family="Times,serif" font-size="12.00">java&#45;ast&#45;100</text>
</g>
<!-- java&#45;start&#45;&#45;100&#45;&gt;java&#45;ast&#45;100 -->
<g id="edge1" class="edge">
<title>java&#45;start&#45;&#45;100&#45;&gt;java&#45;ast&#45;100</title>
<path fill="none" stroke="black" d="M51.88,-287.7C51.88,-280.24 51.88,-271.32 51.88,-262.97"/>
<polygon fill="black" stroke="black" points="55.38,-263.1 51.88,-253.1 48.38,-263.1 55.38,-263.1"/>
</g>
<!-- java&#45;df&#45;local&#45;100 -->
<g id="node3" class="node">
<title>java&#45;df&#45;local&#45;100</title>
<polygon fill="none" stroke="black" points="100.38,-180 3.38,-180 3.38,-144 100.38,-144 100.38,-180"/>
<text text-anchor="middle" x="51.88" y="-157.72" font-family="Times,serif" font-size="12.00">java&#45;df&#45;local&#45;100</text>
</g>
<!-- java&#45;ast&#45;100&#45;&gt;java&#45;df&#45;local&#45;100 -->
<g id="edge2" class="edge">
<title>java&#45;ast&#45;100&#45;&gt;java&#45;df&#45;local&#45;100</title>
<path fill="none" stroke="black" d="M51.88,-215.7C51.88,-208.24 51.88,-199.32 51.88,-190.97"/>
<polygon fill="black" stroke="black" points="55.38,-191.1 51.88,-181.1 48.38,-191.1 55.38,-191.1"/>
</g>
<!-- java&#45;df&#45;global&#45;100 -->
<g id="node4" class="node">
<title>java&#45;df&#45;global&#45;100</title>
<polygon fill="none" stroke="black" points="103.75,-108 0,-108 0,-72 103.75,-72 103.75,-108"/>
<text text-anchor="middle" x="51.88" y="-85.72" font-family="Times,serif" font-size="12.00">java&#45;df&#45;global&#45;100</text>
</g>
<!-- java&#45;df&#45;local&#45;100&#45;&gt;java&#45;df&#45;global&#45;100 -->
<g id="edge3" class="edge">
<title>java&#45;df&#45;local&#45;100&#45;&gt;java&#45;df&#45;global&#45;100</title>
<path fill="none" stroke="black" d="M51.88,-143.7C51.88,-136.24 51.88,-127.32 51.88,-118.97"/>
<polygon fill="black" stroke="black" points="55.38,-119.1 51.88,-109.1 48.38,-119.1 55.38,-119.1"/>
</g>
<!-- java&#45;goal&#45;&#45;110 -->
<g id="node5" class="node">
<title>java&#45;goal&#45;&#45;110</title>
<polygon fill="none" stroke="black" points="94,-36 9.75,-36 9.75,0 94,0 94,-36"/>
<text text-anchor="middle" x="51.88" y="-13.72" font-family="Times,serif" font-size="12.00">java&#45;goal&#45;&#45;110</text>
</g>
<!-- java&#45;df&#45;global&#45;100&#45;&gt;java&#45;goal&#45;&#45;110 -->
<g id="edge4" class="edge">
<title>java&#45;df&#45;global&#45;100&#45;&gt;java&#45;goal&#45;&#45;110</title>
<path fill="none" stroke="black" d="M51.88,-71.7C51.88,-64.24 51.88,-55.32 51.88,-46.97"/>
<polygon fill="black" stroke="black" points="55.38,-47.1 51.88,-37.1 48.38,-47.1 55.38,-47.1"/>
</g>
</g>
</svg>
